#N struct 1010-symarray float x array symbols 1010-sym;
#N struct 1010-sym symbol name float on;
#N struct 1012-symarray float x array symbols 1012-sym;
#N struct 1012-sym symbol name float on;
#N struct 1020-symarray float x array symbols 1020-sym;
#N struct 1020-sym symbol name float on;
#N struct 6508-symarray float x array symbols 6508-sym;
#N struct 6508-sym symbol name float on;
#N canvas -38 130 856 727 10;
#X declare -path .;
#X declare -path rj;
#X declare -path ../pd;
#X declare -path ../../pd;
#N canvas 0 22 588 274 LICENSE 0;
#X text 79 84 (c) 2008 Reality Jockey;
#X text 57 36 Released under the GNU General Public License ver. 3
or later. See the file LICENSE.txt for the full text.;
#X restore 571 80 pd LICENSE;
#X obj 71 84 soundinput;
#X obj 74 583 soundoutput;
#X obj 571 109 OVERVIEW;
#X obj 571 24 declare -path .;
#X obj 571 52 declare -path rj;
#X text 639 108 of all RjDj abstractions;
#N canvas 0 22 448 215 more_paths 0;
#X text 27 19 You can add more paths here as well \, like the path
to soundoutput.pd on your computer etc.;
#X obj 36 57 declare -path ../pd;
#X obj 35 79 declare -path ../../pd;
#X restore 707 52 pd more_paths;
#X obj 546 250 sigmund~;
#X obj 350 443 u_robinpoly;
#X obj 457 342 u_multisamplebank;
#X obj 470 375 u_multisamplebank2;
#X obj 620 344 u_samplekit2;
#X obj 764 484 e_repeater;
#X obj 582 496 e_forcepitch;
#X obj 634 559 c_markov;
#X obj 764 542 c_patternchange;
#X obj 851 241 e_fbdelay;
#X obj 835 279 e_noclickdel;
#X obj 812 379 e_pitchshift;
#X obj 812 424 e_platereverb;
#X obj 839 318 e_tremolo;
#X obj 678 278 e_scompress;
#N canvas 0 22 702 442 cleanup 0;
#X obj 135 113 +~;
#X obj 71 149 hip~ 200;
#X obj 71 173 hip~ 200;
#X obj 129 71 inlet~;
#X obj 77 72 inlet~;
#X obj 226 139 fiddle~ 1024 1 20;
#X floatatom 226 160 5 0 0 0 - - -;
#X floatatom 262 178 5 0 0 0 - - -;
#X floatatom 357 164 5 0 0 0 - - -;
#X obj 307 185 unpack;
#X floatatom 307 235 0 0 0 0 - - -;
#X floatatom 345 208 0 0 0 0 - - -;
#X obj 145 235 mtof;
#X floatatom 272 226 5 0.5 15 2 Q - -;
#X floatatom 145 215 5 0 0 2 freq - -;
#X obj 84 302 e_beequad;
#X msg 188 236 bang;
#X msg 229 75 interp 20;
#X obj 231 48 loadbang;
#X obj 324 378 outlet~;
#X obj 438 236 outlet;
#X obj 351 291 sig~;
#X obj 353 314 lop~ 5;
#X obj 324 348 *~;
#X obj 438 212 m_speedlimit 10000;
#X obj 70 227 e_agc;
#X obj 145 259 u_bandpass2q 1000 2;
#X obj 354 265 > 50;
#X obj 398 291 tgl 15 0 empty empty empty 17 7 0 10 -262144 -1 -1 0
1;
#X connect 0 0 1 0;
#X connect 0 0 5 0;
#X connect 1 0 2 0;
#X connect 2 0 25 0;
#X connect 3 0 0 1;
#X connect 4 0 0 0;
#X connect 5 0 6 0;
#X connect 5 1 7 0;
#X connect 5 1 24 0;
#X connect 5 2 9 0;
#X connect 5 3 8 0;
#X connect 6 0 14 0;
#X connect 8 0 27 0;
#X connect 9 0 10 0;
#X connect 9 1 11 0;
#X connect 12 0 26 0;
#X connect 13 0 26 1;
#X connect 14 0 12 0;
#X connect 15 0 23 0;
#X connect 16 0 26 0;
#X connect 17 0 26 0;
#X connect 18 0 17 0;
#X connect 21 0 22 0;
#X connect 22 0 23 1;
#X connect 23 0 19 0;
#X connect 24 0 20 0;
#X connect 25 0 15 0;
#X connect 26 0 15 1;
#X connect 27 0 21 0;
#X connect 27 0 28 0;
#X restore 71 128 pd cleanup;
#X floatatom 31 149 5 0 0 0 - - -;
#X obj 401 406 e_reverb rev1;
#X obj 288 103 u_samplekit \$0-animalvox;
#X msg 289 78 open samples/vox;
#X text 27 23 JungleIt - _main.pd;
#X obj 91 535 e_reverb \$0-birdspace-left;
#X obj 176 558 e_reverb \$0-birdspace-right;
#X msg 186 495 amp 80 \, hall 80 \, freq 6000 \, damp 60;
#N canvas 91 120 1243 605 one-voice 1;
#X floatatom 446 229 5 0 0 0 slice_size - -;
#X msg 447 251 0.5 \$1 0.5 \$1;
#X obj 362 352 threshold~ 0.5 5 0.5 5;
#X obj 139 232 t b b b;
#X obj 181 198 u_record \$0-pitchedin-1 4000;
#X obj 156 156 t b b b;
#X obj 136 203 bng 15 250 50 0 empty empty empty 17 7 0 10 -262144
-1 -1;
#X msg 181 178 start;
#X obj 130 297 abs/s_playolap-p \$0-animalvox-1;
#X obj 157 359 e_circlepan;
#X obj 185 326 phasor~ 0.145;
#X obj 110 103 inlet~;
#X obj 204 101 inlet;
#X obj 404 119 u_dispatch \$0 amp;
#X obj 404 142 u_dispatch \$0 hall;
#X obj 137 469 outlet~;
#X obj 227 469 outlet~;
#X obj 456 57 u_loader one_voice-\$1 \$0;
#X floatatom 972 325 8 0 0 3 dur_in_smps - -;
#X floatatom 925 292 8 0 0 3 dur_in_ms - -;
#X symbolatom 894 325 10 0 0 3 table_name - -;
#X obj 894 255 unpack s f f f;
#X floatatom 989 293 6 0 0 3 samplerate - -;
#X obj 739 89 g_nbx chunk-size;
#X obj 739 116 g_nbx transposition;
#X obj 603 208 pack 0 10;
#X floatatom 603 142 5 0 0 2 read-position - -;
#X obj 603 174 * 44.1;
#X obj 603 230 vline~;
#X msg 301 124 sr 22050;
#X obj 841 357 list;
#X msg 841 388 0 \, \$3 \$2;
#X obj 841 334 bng 15 250 50 0 empty empty empty 17 7 0 10 -262144
-1 -1;
#X text 721 409 go to 0 \, then to last sample over duration.;
#X obj 894 226 u_samplebank \$0-mytable;
#X obj 322 84 loadbang;
#X connect 0 0 1 0;
#X connect 1 0 2 0;
#X connect 3 1 8 0;
#X connect 5 1 7 0;
#X connect 6 0 3 0;
#X connect 7 0 4 0;
#X connect 8 0 9 0;
#X connect 8 1 2 0;
#X connect 9 0 15 0;
#X connect 9 1 16 0;
#X connect 10 0 9 1;
#X connect 11 0 4 0;
#X connect 12 0 5 0;
#X connect 13 0 14 0;
#X connect 21 0 20 0;
#X connect 21 1 19 0;
#X connect 21 2 18 0;
#X connect 21 3 22 0;
#X connect 23 0 24 0;
#X connect 25 0 28 0;
#X connect 26 0 27 0;
#X connect 27 0 25 0;
#X connect 30 0 31 0;
#X connect 31 0 28 0;
#X connect 32 0 30 0;
#X connect 34 0 21 0;
#X connect 34 0 30 1;
#X restore 147 212 pd one-voice;
#X connect 1 0 23 0;
#X connect 1 1 23 1;
#X connect 23 0 2 0;
#X connect 23 0 32 0;
#X connect 27 0 26 0;
#X connect 29 0 2 0;
#X connect 30 0 2 1;
#X connect 31 0 29 0;
#X connect 31 0 30 0;
