#N struct 1632-symarray float x array symbols 1632-sym;
#N struct 1632-sym symbol name float on;
#N struct 1732-symarray float x array symbols 1732-sym;
#N struct 1732-sym symbol name float on;
#N canvas 118 73 1041 680 10;
#X declare -path .;
#X declare -path rj;
#X declare -path ../pd;
#X declare -path ../../pd;
#X declare -path .;
#X declare -path rj;
#X declare -path .;
#X declare -path rj;
#X declare -path .;
#X declare -path rj;
#X declare -path .;
#X declare -path rj;
#X declare -path .;
#X declare -path rj;
#X declare -path .;
#X declare -path rj;
#N canvas 0 22 588 274 LICENSE 0;
#X text 79 84 (c) 2008 Reality Jockey;
#X text 57 36 Released under the GNU General Public License ver. 3
or later. See the file LICENSE.txt for the full text.;
#X restore 571 80 pd LICENSE;
#X obj 29 46 soundinput;
#X obj 143 401 soundoutput;
#X obj 571 109 OVERVIEW;
#X obj 571 24 declare -path .;
#X obj 571 52 declare -path rj;
#X text 639 108 of all RjDj abstractions;
#N canvas 0 22 448 215 more_paths 0;
#X text 27 19 You can add more paths here as well \, like the path
to soundoutput.pd on your computer etc.;
#X obj 36 57 declare -path ../pd;
#X obj 35 79 declare -path ../../pd;
#X restore 707 52 pd more_paths;
#X text 27 23 Feral - _main.pd;
#X obj 42 100 e_agc;
#X text 627 225 todo: * base pitchd and volume for each sentence \,
volume lifting w/ compression \, bagkround sounds \, lift interactionother
voice types (trills?) \, differnt distance;
#N canvas 416 22 1199 820 background 0;
#X obj 267 806 outlet~;
#X obj 348 806 outlet~;
#X obj 196 193 samplerate~;
#X obj 196 218 select 22050 44100;
#X obj 319 239 t b;
#X msg 257 285 open samples/ambience/44100;
#X msg 196 262 open samples/ambience/22050;
#X msg 139 283 size \$1;
#X obj 349 312 route size;
#X obj 349 339 unpack;
#X obj 196 312 u_samplekit ambience;
#X obj 451 371 m_sm2ms;
#X msg 504 612 chunk-size \$1;
#X obj 353 679 sig~ 0;
#X obj 363 58 loadbang;
#X obj 857 631 bng 15 250 50 0 empty empty empty 17 7 0 10 -262144
-1 -1;
#X msg 609 613 volume \$1;
#X msg 363 144 0;
#X floatatom 363 181 5 0 0 0 - - -;
#X obj 767 654 samplerate~;
#X msg 767 675 sr \$1;
#X obj 353 704 s_playchunk ambience-0;
#X msg 696 341 table ambience-\$1;
#X obj 469 121 random 5;
#X obj 272 23 inlet;
#X obj 384 616 - 1000;
#X obj 384 595 swap 15000;
#X floatatom 384 637 9 0 0 0 - - -;
#X obj 308 540 random 513;
#X obj 308 561 / 512;
#X obj 308 657 * 1;
#X obj 268 453 t b b b b;
#X obj 469 101 bng 15 250 50 0 empty empty empty 17 7 0 10 -262144
-1 -1;
#X obj 230 541 random 513;
#X obj 230 562 / 512;
#X obj 230 655 * 1;
#X obj 267 704 sig~ 0;
#X obj 267 729 s_playchunk ambience-0;
#X obj 767 513 loadbang;
#N canvas 0 22 450 300 thru 0;
#X obj 40 40 inlet;
#X obj 40 61 outlet;
#X connect 0 0 1 0;
#X restore 696 612 pd thru;
#X obj 609 512 / 32;
#N canvas 0 22 450 300 thru 0;
#X obj 40 40 inlet;
#X obj 40 61 outlet;
#X connect 0 0 1 0;
#X restore 662 423 pd thru;
#X obj 504 732 threshold~ 0.4 5 0.4 5;
#N canvas 0 22 450 300 thru 0;
#X obj 40 40 inlet;
#X obj 40 61 outlet;
#X connect 0 0 1 0;
#X restore 357 378 pd thru;
#X obj 267 753 *~ 0.25;
#X obj 348 753 *~ 0.75;
#X obj 377 777 *~ 0.25;
#X obj 301 777 *~ 0.75;
#X obj 384 540 500;
#X obj 469 143 change;
#X obj 609 572 dbtorms;
#X floatatom 549 572 5 0 0 0 - - -;
#X text 685 193 wander through various soundscape backgrounds;
#X obj 566 489 < 3;
#X obj 519 489 sel 1;
#X obj 609 489 c_drunk 33 4;
#X obj 609 533 * 30;
#X obj 717 581 outlet;
#X obj 469 121;
#X obj 217 753 env~;
#X floatatom 217 774 5 0 0 0 - - -;
#X obj 609 553 + 70;
#X obj 363 91 t b b;
#X obj 363 114 delay 200;
#X msg 431 184 0;
#X connect 2 0 3 0;
#X connect 3 0 6 0;
#X connect 3 1 5 0;
#X connect 3 2 4 0;
#X connect 4 0 6 0;
#X connect 5 0 10 0;
#X connect 6 0 10 0;
#X connect 7 0 10 0;
#X connect 8 0 9 0;
#X connect 9 1 11 0;
#X connect 10 1 8 0;
#X connect 11 0 31 0;
#X connect 11 0 26 1;
#X connect 12 0 21 1;
#X connect 12 0 37 1;
#X connect 13 0 21 0;
#X connect 14 0 62 0;
#X connect 16 0 21 1;
#X connect 16 0 37 1;
#X connect 17 0 18 0;
#X connect 18 0 22 0;
#X connect 18 0 7 0;
#X connect 19 0 20 0;
#X connect 20 0 21 1;
#X connect 20 0 37 1;
#X connect 21 0 46 0;
#X connect 21 0 47 0;
#X connect 21 1 42 0;
#X connect 22 0 39 0;
#X connect 23 0 49 0;
#X connect 25 0 27 0;
#X connect 26 0 25 0;
#X connect 26 1 25 1;
#X connect 27 0 30 1;
#X connect 28 0 29 0;
#X connect 29 0 30 0;
#X connect 30 0 13 0;
#X connect 31 1 55 0;
#X connect 31 2 28 0;
#X connect 31 2 33 0;
#X connect 31 3 48 0;
#X connect 32 0 23 0;
#X connect 32 0 58 0;
#X connect 33 0 34 0;
#X connect 34 0 35 0;
#X connect 35 0 36 0;
#X connect 36 0 37 0;
#X connect 37 0 44 0;
#X connect 37 0 45 0;
#X connect 37 0 59 0;
#X connect 38 0 12 0;
#X connect 38 0 19 0;
#X connect 39 0 37 1;
#X connect 39 0 21 1;
#X connect 40 0 56 0;
#X connect 41 0 23 0;
#X connect 42 0 15 0;
#X connect 42 0 43 0;
#X connect 43 0 31 0;
#X connect 44 0 0 0;
#X connect 45 0 1 0;
#X connect 46 0 1 0;
#X connect 47 0 0 0;
#X connect 48 0 26 0;
#X connect 48 0 12 0;
#X connect 49 0 18 0;
#X connect 50 0 16 0;
#X connect 53 0 54 0;
#X connect 54 0 41 0;
#X connect 55 0 40 0;
#X connect 55 0 53 0;
#X connect 56 0 51 0;
#X connect 56 0 61 0;
#X connect 59 0 60 0;
#X connect 61 0 50 0;
#X connect 61 0 57 0;
#X connect 62 0 63 0;
#X connect 62 1 2 0;
#X connect 62 1 64 0;
#X connect 63 0 17 0;
#X connect 64 0 55 0;
#X restore 154 322 pd background;
#N canvas 0 156 924 617 critters 1;
#X obj 51 40 inlet~;
#X obj 236 464 outlet~;
#X obj 430 463 outlet~;
#X obj 272 38 inlet;
#N canvas 0 22 1356 664 cleanup 0;
#X obj 183 82 hip~ 200;
#X obj 183 106 hip~ 200;
#X obj 183 59 inlet~;
#X obj 256 160 fiddle~ 1024 1 20;
#X floatatom 256 181 5 0 0 0 - - -;
#X floatatom 372 180 5 0 0 0 - - -;
#X obj 257 235 mtof;
#X floatatom 406 261 5 0.5 15 2 Q - -;
#X floatatom 257 215 5 0 0 2 freq - -;
#X obj 183 285 e_beequad;
#X msg 300 236 bang;
#X msg 147 175 interp 20;
#X obj 183 420 outlet~;
#X obj 372 200 > 50;
#X obj 397 225 tgl 15 0 empty empty empty 17 7 0 10 -262144 -1 -1 0
1;
#X text 461 -28 where the sounds are captured (but not played);
#X obj 634 213 t b b b;
#X msg 611 257 start;
#X obj 634 150 c_pass 20;
#X obj 657 258 + 8;
#X obj 738 234 + 1;
#X obj 707 234 % 8;
#X obj 634 192 bng 15 250 50 0 empty empty empty 17 7 0 10 -262144
-1 -1;
#X floatatom 657 279 5 0 0 0 - - -;
#X obj 657 362 bng 15 250 50 0 empty empty empty 17 7 0 10 -262144
-1 -1;
#X msg 657 298 table animalvox-\$1;
#X obj 657 234 int -1;
#X obj 634 170 m_speedlimit 10000;
#X msg 662 333 normalize 1;
#X obj 473 333 varicord animalvox-- 3000;
#X obj 227 379 delwrite~ \$0-rec-delay 350;
#X obj 473 306 delread~ \$0-rec-delay 300;
#X obj 595 78 delay 300;
#X obj 595 32 select 0 1;
#X msg 595 55 stop;
#X text 675 28 we record sounds at least 300ms long;
#X obj 595 9 change;
#X obj 183 131 e_agc;
#X obj 41 72 g_nbx comp1;
#X obj 41 101 g_nbx comp2;
#X obj 41 133 g_nbx att;
#X obj 41 164 g_nbx rel;
#X obj 41 196 g_nbx makeup;
#X obj 41 257 g_hsl dry 0 1;
#X obj 41 226 g_nhsl thresh 0 120;
#X obj 183 337 e_dynproc \$0-tamer;
#X msg 75 32 dry 0 \, thresh 90 \, comp1 5;
#X obj 75 8 loadbang;
#X obj 183 314 *~ 3;
#X obj 257 259 u_bandpass2q 1000 3;
#X text 106 315 10db boost;
#X obj 397 115 + 0;
#X floatatom 397 134 5 0 0 0 - - -;
#X floatatom 468 41 5 0 0 0 - - -;
#X obj 468 59 swap 1;
#X obj 468 80 -;
#X obj 393 89 * 0.001;
#X obj 432 114 * 0.999;
#X text 478 113 long-running mean;
#X text 402 201 decay evaluator;
#X obj 299 199 unpack;
#X obj 397 155 + 6;
#X connect 0 0 1 0;
#X connect 1 0 37 0;
#X connect 2 0 0 0;
#X connect 3 0 4 0;
#X connect 3 2 60 0;
#X connect 3 3 5 0;
#X connect 4 0 8 0;
#X connect 5 0 13 0;
#X connect 6 0 49 0;
#X connect 7 0 49 1;
#X connect 8 0 6 0;
#X connect 9 0 48 0;
#X connect 10 0 49 0;
#X connect 11 0 49 0;
#X connect 13 0 14 0;
#X connect 13 0 36 0;
#X connect 16 0 17 0;
#X connect 16 1 26 0;
#X connect 17 0 29 1;
#X connect 18 0 27 0;
#X connect 19 0 23 0;
#X connect 20 0 21 0;
#X connect 21 0 26 1;
#X connect 21 0 19 0;
#X connect 22 0 16 0;
#X connect 23 0 25 0;
#X connect 25 0 29 1;
#X connect 26 0 20 0;
#X connect 27 0 22 0;
#X connect 28 0 29 1;
#X connect 29 1 24 0;
#X connect 29 1 28 0;
#X connect 31 0 29 0;
#X connect 32 0 18 0;
#X connect 33 0 34 0;
#X connect 33 1 32 0;
#X connect 34 0 32 0;
#X connect 36 0 33 0;
#X connect 37 0 3 0;
#X connect 37 0 9 0;
#X connect 38 0 39 0;
#X connect 39 0 40 0;
#X connect 40 0 41 0;
#X connect 41 0 42 0;
#X connect 42 0 44 0;
#X connect 43 0 45 2;
#X connect 44 0 43 0;
#X connect 45 0 12 0;
#X connect 45 0 30 0;
#X connect 46 0 38 0;
#X connect 47 0 46 0;
#X connect 47 0 11 0;
#X connect 48 0 45 0;
#X connect 49 0 9 1;
#X connect 51 0 52 0;
#X connect 51 0 57 0;
#X connect 52 0 61 0;
#X connect 53 0 54 0;
#X connect 53 0 56 1;
#X connect 54 0 55 0;
#X connect 55 0 57 1;
#X connect 56 0 51 0;
#X connect 57 0 51 1;
#X connect 60 1 56 0;
#X connect 61 0 13 1;
#X restore 51 67 pd cleanup;
#X obj 236 437 e_reverb \$0-birdspace-left;
#X obj 430 437 e_reverb \$0-birdspace-right;
#X obj 480 341 loadbang;
#X msg 507 410 amp 80 \, hall 90 \, freq 2800 \, damp 92;
#X msg 480 385 amp 80 \, hall 88 \, freq 3000 \, damp 90;
#X msg 257 195 new-lang;
#X floatatom 238 288 5 0 0 0 - - -;
#X msg 581 363 dry \$1;
#X floatatom 584 342 5 0 1 0 - - -;
#X msg 585 318 0.2;
#X obj 583 291 loadbang;
#X msg 281 218 start-soon;
#X msg 306 236 new-sentence;
#X obj 339 -1 loadbang;
#X obj 414 145 u_samplekit animalvox;
#X msg 414 95 open samples/vox/22050;
#X obj 414 26 samplerate~;
#X obj 414 51 select 22050 44100;
#X obj 535 72 t b;
#X msg 475 118 open samples/vox/44100;
#X obj 481 6 bng 15 250 50 0 empty empty empty 17 7 0 10 -262144 -1
-1;
#X obj 296 274 feralcall 2;
#X obj 320 122 delay 1000;
#X obj 296 295 env~;
#X floatatom 296 316 5 0 0 0 - - -;
#X obj 189 259 feralcall 1;
#X connect 0 0 4 0;
#X connect 5 0 1 0;
#X connect 6 0 2 0;
#X connect 7 0 9 0;
#X connect 7 0 8 0;
#X connect 8 0 6 1;
#X connect 9 0 5 1;
#X connect 10 0 26 1;
#X connect 10 0 30 1;
#X connect 12 0 5 1;
#X connect 12 0 6 1;
#X connect 13 0 12 0;
#X connect 14 0 13 0;
#X connect 15 0 14 0;
#X connect 16 0 26 1;
#X connect 16 0 30 1;
#X connect 17 0 26 1;
#X connect 17 0 30 1;
#X connect 18 0 21 0;
#X connect 18 0 10 0;
#X connect 18 0 27 0;
#X connect 20 0 19 0;
#X connect 21 0 22 0;
#X connect 22 0 20 0;
#X connect 22 1 24 0;
#X connect 22 2 23 0;
#X connect 23 0 20 0;
#X connect 24 0 19 0;
#X connect 25 0 21 0;
#X connect 26 0 5 0;
#X connect 26 0 28 0;
#X connect 26 1 6 0;
#X connect 27 0 16 0;
#X connect 28 0 29 0;
#X connect 30 0 5 0;
#X connect 30 1 6 0;
#X connect 30 3 11 0;
#X restore 42 322 pd critters;
#N canvas 0 22 450 300 foreground 0;
#X obj 52 227 outlet~;
#X obj 139 227 outlet~;
#X restore 259 321 pd foreground;
#X obj 154 343 env~;
#X floatatom 154 364 5 0 0 0 - - -;
#X connect 1 0 9 0;
#X connect 1 1 9 0;
#X connect 9 0 12 0;
#X connect 11 0 2 0;
#X connect 11 0 14 0;
#X connect 11 1 2 1;
#X connect 12 0 2 0;
#X connect 12 1 2 1;
#X connect 13 0 2 0;
#X connect 13 1 2 1;
#X connect 14 0 15 0;
