#N struct 2222-symarray float x array symbols 2222-sym;
#N struct 2222-sym symbol name float on;
#N canvas 78 316 1041 680 10;
#X declare -path .;
#X declare -path rj;
#X declare -path ../pd;
#X declare -path ../../pd;
#X declare -path .;
#X declare -path rj;
#X declare -path .;
#X declare -path rj;
#X declare -path .;
#X declare -path rj;
#X declare -path .;
#X declare -path rj;
#N canvas 0 22 588 274 LICENSE 0;
#X text 79 84 (c) 2008 Reality Jockey;
#X text 57 36 Released under the GNU General Public License ver. 3
or later. See the file LICENSE.txt for the full text.;
#X restore 571 80 pd LICENSE;
#X obj 71 84 soundinput;
#X obj 74 583 soundoutput;
#X obj 571 109 OVERVIEW;
#X obj 571 24 declare -path .;
#X obj 571 52 declare -path rj;
#X text 639 108 of all RjDj abstractions;
#N canvas 0 22 448 215 more_paths 0;
#X text 27 19 You can add more paths here as well \, like the path
to soundoutput.pd on your computer etc.;
#X obj 36 57 declare -path ../pd;
#X obj 35 79 declare -path ../../pd;
#X restore 707 52 pd more_paths;
#N canvas 0 22 702 442 cleanup 1;
#X obj 135 113 +~;
#X obj 71 149 hip~ 200;
#X obj 71 173 hip~ 200;
#X obj 129 71 inlet~;
#X obj 77 72 inlet~;
#X obj 226 139 fiddle~ 1024 1 20;
#X floatatom 226 160 5 0 0 0 - - -;
#X floatatom 357 164 5 0 0 0 - - -;
#X obj 307 185 unpack;
#X floatatom 307 235 0 0 0 0 - - -;
#X floatatom 345 208 0 0 0 0 - - -;
#X obj 145 235 mtof;
#X floatatom 272 226 5 0.5 15 2 Q - -;
#X floatatom 145 215 5 0 0 2 freq - -;
#X obj 71 285 e_beequad;
#X msg 188 236 bang;
#X msg 229 75 interp 20;
#X obj 231 48 loadbang;
#X obj 324 378 outlet~;
#X obj 438 236 outlet;
#X obj 351 291 sig~;
#X obj 353 314 lop~ 5;
#X obj 324 348 *~;
#X obj 71 305 e_agc;
#X obj 145 259 u_bandpass2q 1000 2;
#X obj 354 265 > 50;
#X obj 398 291 tgl 15 0 empty empty empty 17 7 0 10 -262144 -1 -1 1
1;
#X connect 0 0 1 0;
#X connect 0 0 5 0;
#X connect 1 0 2 0;
#X connect 2 0 14 0;
#X connect 3 0 0 1;
#X connect 4 0 0 0;
#X connect 5 0 6 0;
#X connect 5 1 19 0;
#X connect 5 2 8 0;
#X connect 5 3 7 0;
#X connect 6 0 13 0;
#X connect 7 0 25 0;
#X connect 8 0 9 0;
#X connect 8 1 10 0;
#X connect 11 0 24 0;
#X connect 12 0 24 1;
#X connect 13 0 11 0;
#X connect 14 0 23 0;
#X connect 15 0 24 0;
#X connect 16 0 24 0;
#X connect 17 0 16 0;
#X connect 20 0 21 0;
#X connect 21 0 22 1;
#X connect 23 0 22 0;
#X connect 23 0 18 0;
#X connect 24 0 14 1;
#X connect 25 0 20 0;
#X connect 25 0 26 0;
#X restore 71 128 pd cleanup;
#X msg 289 78 open samples/vox;
#X obj 91 535 e_reverb \$0-birdspace-left;
#X obj 176 558 e_reverb \$0-birdspace-right;
#X obj 289 53 loadbang;
#X obj 261 451 loadbang;
#X obj 289 105 u_samplekit animalvox;
#X text 27 23 Feral - _main.pd;
#X floatatom 166 162 5 0 0 0 - - -;
#X obj 226 152 env~;
#X floatatom 226 173 5 0 0 0 - - -;
#X obj 225 198 env~;
#X floatatom 225 219 5 0 0 0 - - -;
#X msg 288 520 amp 80 \, hall 90 \, freq 2800 \, damp 92;
#X msg 261 495 amp 80 \, hall 88 \, freq 3000 \, damp 90;
#N canvas 558 70 476 372 menagerie 1;
#X text 12 -5 where the sounds are captured (but not played);
#X obj 193 95 t b b b;
#X msg 170 139 start;
#X obj 44 65 inlet~;
#X obj 193 10 inlet;
#X obj 193 32 c_pass 20;
#X obj 216 140 + 8;
#X obj 290 119 + 1;
#X obj 262 119 % 8;
#X obj 193 74 bng 15 250 50 0 empty empty empty 17 7 0 10 -262144 -1
-1;
#X floatatom 216 161 5 0 0 0 - - -;
#X obj 216 244 bng 15 250 50 0 empty empty empty 17 7 0 10 -262144
-1 -1;
#X msg 216 180 table animalvox-\$1;
#X obj 216 119 int -1;
#X obj 193 52 m_speedlimit 10000;
#X msg 242 217 normalize 1;
#X obj 44 218 varicord animalvox-- 3000;
#X connect 1 0 2 0;
#X connect 1 1 13 0;
#X connect 2 0 16 1;
#X connect 3 0 16 0;
#X connect 4 0 5 0;
#X connect 5 0 14 0;
#X connect 6 0 10 0;
#X connect 7 0 8 0;
#X connect 8 0 13 1;
#X connect 9 0 1 0;
#X connect 10 0 12 0;
#X connect 12 0 16 1;
#X connect 13 0 6 0;
#X connect 13 0 7 0;
#X connect 14 0 9 0;
#X connect 15 0 16 1;
#X connect 16 1 11 0;
#X connect 16 1 15 0;
#X restore 71 212 pd menagerie;
#X msg 105 307 new-lang;
#X obj 151 372 feralcall;
#X msg 179 307 new-sentence;
#X obj 151 393 env~;
#X floatatom 151 414 5 0 0 0 - - -;
#X obj 44 357 feralcall;
#X connect 1 0 8 0;
#X connect 1 0 17 0;
#X connect 1 1 8 1;
#X connect 1 1 17 0;
#X connect 8 0 19 0;
#X connect 8 0 23 0;
#X connect 8 1 16 0;
#X connect 8 1 23 1;
#X connect 9 0 14 0;
#X connect 10 0 2 0;
#X connect 11 0 2 1;
#X connect 12 0 9 0;
#X connect 13 0 22 0;
#X connect 13 0 21 0;
#X connect 17 0 18 0;
#X connect 19 0 20 0;
#X connect 21 0 11 1;
#X connect 22 0 10 1;
#X connect 24 0 25 1;
#X connect 24 0 29 1;
#X connect 25 0 10 0;
#X connect 25 0 27 0;
#X connect 25 1 11 0;
#X connect 26 0 25 1;
#X connect 26 0 29 1;
#X connect 27 0 28 0;
#X connect 29 0 10 0;
#X connect 29 1 11 0;
