#N struct 4836-symarray float x array symbols 4836-sym;
#N struct 4836-sym symbol name float on;
#N canvas 138 45 1041 680 10;
#X declare -path .;
#X declare -path rj;
#X declare -path ../pd;
#X declare -path ../../pd;
#X declare -path .;
#X declare -path rj;
#X declare -path .;
#X declare -path rj;
#X declare -path .;
#X declare -path rj;
#X declare -path .;
#X declare -path rj;
#N canvas 0 22 588 274 LICENSE 0;
#X text 79 84 (c) 2008 Reality Jockey;
#X text 57 36 Released under the GNU General Public License ver. 3
or later. See the file LICENSE.txt for the full text.;
#X restore 571 80 pd LICENSE;
#X obj 29 46 soundinput;
#X obj 143 401 soundoutput;
#X obj 571 109 OVERVIEW;
#X obj 571 24 declare -path .;
#X obj 571 52 declare -path rj;
#X text 639 108 of all RjDj abstractions;
#N canvas 0 22 448 215 more_paths 0;
#X text 27 19 You can add more paths here as well \, like the path
to soundoutput.pd on your computer etc.;
#X obj 36 57 declare -path ../pd;
#X obj 35 79 declare -path ../../pd;
#X restore 707 52 pd more_paths;
#X text 27 23 Feral - _main.pd;
#X obj 42 100 e_agc;
#X text 627 225 todo: * base pitchd and volume for each sentence \,
volume lifting w/ compression \, bagkround sounds \, lift interactionother
voice types (trills?) \, differnt distance;
#N canvas 0 22 450 300 background 0;
#X obj 52 227 outlet~;
#X obj 139 227 outlet~;
#X restore 154 322 pd background;
#N canvas 18 398 882 361 critters 1;
#X obj 39 42 inlet~;
#X obj 346 468 outlet~;
#X obj 440 477 outlet~;
#X obj 272 38 inlet;
#N canvas 312 202 1041 623 cleanup 0;
#X obj 71 129 hip~ 200;
#X obj 71 153 hip~ 200;
#X obj 71 73 inlet~;
#X obj 226 139 fiddle~ 1024 1 20;
#X floatatom 226 160 5 0 0 0 - - -;
#X floatatom 357 164 5 0 0 0 - - -;
#X obj 145 235 mtof;
#X floatatom 272 226 5 0.5 15 2 Q - -;
#X floatatom 145 215 5 0 0 2 freq - -;
#X obj 71 285 e_beequad;
#X msg 188 236 bang;
#X msg 229 75 interp 20;
#X obj 231 48 loadbang;
#X obj 60 421 outlet~;
#X obj 351 291 sig~;
#X obj 353 314 lop~ 5;
#X obj 324 348 *~;
#X obj 71 305 e_agc;
#X obj 145 259 u_bandpass2q 1000 2;
#X obj 357 187 > 50;
#X obj 398 291 tgl 15 0 empty empty empty 17 7 0 10 -262144 -1 -1 0
1;
#X text 461 -28 where the sounds are captured (but not played);
#X obj 720 213 t b b b;
#X msg 697 257 start;
#X obj 720 150 c_pass 20;
#X obj 743 258 + 8;
#X obj 817 234 + 1;
#X obj 789 234 % 8;
#X obj 720 192 bng 15 250 50 0 empty empty empty 17 7 0 10 -262144
-1 -1;
#X floatatom 743 279 5 0 0 0 - - -;
#X obj 743 362 bng 15 250 50 0 empty empty empty 17 7 0 10 -262144
-1 -1;
#X msg 743 298 table animalvox-\$1;
#X obj 743 234 int -1;
#X obj 720 170 m_speedlimit 10000;
#X msg 769 335 normalize 1;
#X obj 571 336 varicord animalvox-- 3000;
#X obj 115 379 delwrite~ \$0-rec-delay 350;
#X obj 559 306 delread~ \$0-rec-delay 300;
#X obj 595 78 delay 300;
#X obj 595 32 select 0 1;
#X msg 595 55 stop;
#X text 682 46 we record sounds at least 300ms long;
#X obj 597 103 bng 15 250 50 0 empty empty empty 17 7 0 10 -262144
-1 -1;
#X obj 651 59 bng 15 250 50 0 empty empty empty 17 7 0 10 -262144 -1
-1;
#X obj 595 9 change;
#X connect 0 0 1 0;
#X connect 1 0 9 0;
#X connect 2 0 0 0;
#X connect 2 0 3 0;
#X connect 3 0 4 0;
#X connect 3 3 5 0;
#X connect 4 0 8 0;
#X connect 5 0 19 0;
#X connect 6 0 18 0;
#X connect 7 0 18 1;
#X connect 8 0 6 0;
#X connect 9 0 17 0;
#X connect 10 0 18 0;
#X connect 11 0 18 0;
#X connect 12 0 11 0;
#X connect 14 0 15 0;
#X connect 15 0 16 1;
#X connect 17 0 16 0;
#X connect 17 0 13 0;
#X connect 17 0 36 0;
#X connect 18 0 9 1;
#X connect 19 0 14 0;
#X connect 19 0 20 0;
#X connect 19 0 44 0;
#X connect 22 0 23 0;
#X connect 22 1 32 0;
#X connect 23 0 35 1;
#X connect 24 0 33 0;
#X connect 25 0 29 0;
#X connect 26 0 27 0;
#X connect 27 0 32 1;
#X connect 27 0 25 0;
#X connect 28 0 22 0;
#X connect 29 0 31 0;
#X connect 31 0 35 1;
#X connect 32 0 26 0;
#X connect 33 0 28 0;
#X connect 34 0 35 1;
#X connect 35 1 30 0;
#X connect 35 1 34 0;
#X connect 37 0 35 0;
#X connect 38 0 24 0;
#X connect 38 0 42 0;
#X connect 39 0 40 0;
#X connect 39 1 38 0;
#X connect 39 1 43 0;
#X connect 40 0 38 0;
#X connect 44 0 39 0;
#X restore 51 67 pd cleanup;
#X obj 236 437 e_reverb \$0-birdspace-left;
#X obj 430 437 e_reverb \$0-birdspace-right;
#X obj 480 341 loadbang;
#X msg 507 410 amp 80 \, hall 90 \, freq 2800 \, damp 92;
#X msg 480 385 amp 80 \, hall 88 \, freq 3000 \, damp 90;
#X msg 257 195 new-lang;
#X floatatom 238 288 5 0 0 0 - - -;
#X msg 581 363 dry \$1;
#X floatatom 584 342 5 0 1 0 - - -;
#X obj 189 259 feralcall 1;
#X msg 585 318 0.2;
#X obj 583 291 loadbang;
#X obj 296 274 feralcall 2;
#X msg 281 218 start-soon;
#X msg 306 236 new-sentence;
#X obj 414 5 loadbang;
#X obj 414 145 u_samplekit animalvox;
#X msg 414 95 open samples/vox/22050;
#X obj 414 26 samplerate~;
#X obj 414 51 select 22050 44100;
#X obj 535 72 t b;
#X msg 475 118 open samples/vox/44100;
#X obj 481 6 bng 15 250 50 0 empty empty empty 17 7 0 10 -262144 -1
-1;
#X connect 0 0 4 0;
#X connect 5 0 1 0;
#X connect 6 0 2 0;
#X connect 7 0 9 0;
#X connect 7 0 8 0;
#X connect 8 0 6 1;
#X connect 9 0 5 1;
#X connect 10 0 14 1;
#X connect 10 0 17 1;
#X connect 12 0 5 1;
#X connect 12 0 6 1;
#X connect 13 0 12 0;
#X connect 14 0 5 0;
#X connect 14 1 6 0;
#X connect 14 3 11 0;
#X connect 15 0 13 0;
#X connect 16 0 15 0;
#X connect 17 0 5 0;
#X connect 17 1 6 0;
#X connect 18 0 17 1;
#X connect 18 0 14 1;
#X connect 19 0 17 1;
#X connect 19 0 14 1;
#X connect 20 0 23 0;
#X connect 22 0 21 0;
#X connect 23 0 24 0;
#X connect 24 0 22 0;
#X connect 24 1 26 0;
#X connect 24 2 25 0;
#X connect 25 0 22 0;
#X connect 26 0 21 0;
#X connect 27 0 23 0;
#X restore 42 322 pd critters;
#N canvas 0 22 450 300 foreground 0;
#X obj 52 227 outlet~;
#X obj 139 227 outlet~;
#X restore 259 321 pd foreground;
#X connect 1 0 9 0;
#X connect 1 1 9 0;
#X connect 9 0 12 0;
#X connect 11 0 2 0;
#X connect 11 1 2 1;
#X connect 12 0 2 0;
#X connect 12 1 2 1;
#X connect 13 0 2 0;
#X connect 13 1 2 1;
