#N struct 1182-symarray float x array symbols 1182-sym;
#N struct 1182-sym symbol name float on;
#N canvas 138 45 1041 680 10;
#X declare -path .;
#X declare -path rj;
#X declare -path ../pd;
#X declare -path ../../pd;
#X declare -path .;
#X declare -path rj;
#X declare -path .;
#X declare -path rj;
#X declare -path .;
#X declare -path rj;
#X declare -path .;
#X declare -path rj;
#N canvas 0 22 588 274 LICENSE 0;
#X text 79 84 (c) 2008 Reality Jockey;
#X text 57 36 Released under the GNU General Public License ver. 3
or later. See the file LICENSE.txt for the full text.;
#X restore 571 80 pd LICENSE;
#X obj 29 46 soundinput;
#X obj 143 401 soundoutput;
#X obj 571 109 OVERVIEW;
#X obj 571 24 declare -path .;
#X obj 571 52 declare -path rj;
#X text 639 108 of all RjDj abstractions;
#N canvas 0 22 448 215 more_paths 0;
#X text 27 19 You can add more paths here as well \, like the path
to soundoutput.pd on your computer etc.;
#X obj 36 57 declare -path ../pd;
#X obj 35 79 declare -path ../../pd;
#X restore 707 52 pd more_paths;
#X text 27 23 Feral - _main.pd;
#X obj 42 100 e_agc;
#X text 627 225 todo: * base pitchd and volume for each sentence \,
volume lifting w/ compression \, bagkround sounds \, lift interactionother
voice types (trills?) \, differnt distance;
#N canvas 0 22 450 300 background 0;
#X obj 52 227 outlet~;
#X obj 139 227 outlet~;
#X restore 154 322 pd background;
#N canvas -1114 243 924 617 critters 1;
#X obj 51 40 inlet~;
#X obj 236 464 outlet~;
#X obj 430 463 outlet~;
#X obj 272 38 inlet;
#N canvas -1654 156 1356 664 cleanup 1;
#X obj 183 82 hip~ 200;
#X obj 183 106 hip~ 200;
#X obj 183 59 inlet~;
#X obj 256 160 fiddle~ 1024 1 20;
#X floatatom 256 181 5 0 0 0 - - -;
#X floatatom 372 180 5 0 0 0 - - -;
#X obj 257 235 mtof;
#X floatatom 354 236 5 0.5 15 2 Q - -;
#X floatatom 257 215 5 0 0 2 freq - -;
#X obj 183 285 e_beequad;
#X msg 300 236 bang;
#X msg 147 175 interp 20;
#X obj 183 420 outlet~;
#X obj 372 200 > 50;
#X obj 397 225 tgl 15 0 empty empty empty 17 7 0 10 -262144 -1 -1 1
1;
#X text 461 -28 where the sounds are captured (but not played);
#X obj 634 213 t b b b;
#X msg 611 257 start;
#X obj 634 150 c_pass 20;
#X obj 657 258 + 8;
#X obj 738 234 + 1;
#X obj 707 234 % 8;
#X obj 634 192 bng 15 250 50 0 empty empty empty 17 7 0 10 -262144
-1 -1;
#X floatatom 657 279 5 0 0 0 - - -;
#X obj 657 362 bng 15 250 50 0 empty empty empty 17 7 0 10 -262144
-1 -1;
#X msg 657 298 table animalvox-\$1;
#X obj 657 234 int -1;
#X obj 634 170 m_speedlimit 10000;
#X msg 662 333 normalize 1;
#X obj 473 333 varicord animalvox-- 3000;
#X obj 227 379 delwrite~ \$0-rec-delay 350;
#X obj 473 306 delread~ \$0-rec-delay 300;
#X obj 595 78 delay 300;
#X obj 595 32 select 0 1;
#X msg 595 55 stop;
#X text 675 28 we record sounds at least 300ms long;
#X obj 597 103 bng 15 250 50 0 empty empty empty 17 7 0 10 -262144
-1 -1;
#X obj 668 104 bng 15 250 50 0 empty empty empty 17 7 0 10 -262144
-1 -1;
#X obj 595 9 change;
#X obj 183 131 e_agc;
#X obj 41 72 g_nbx comp1;
#X obj 41 101 g_nbx comp2;
#X obj 41 133 g_nbx att;
#X obj 41 164 g_nbx rel;
#X obj 41 196 g_nbx makeup;
#X obj 41 257 g_hsl dry 0 1;
#X obj 41 226 g_nhsl thresh 0 120;
#X obj 183 337 e_dynproc \$0-tamer;
#X msg 75 32 dry 0 \, thresh 90 \, comp1 5;
#X obj 75 8 loadbang;
#X obj 183 314 *~ 3;
#X obj 257 259 u_bandpass2q 1000 3;
#X text 106 315 10db boost;
#X obj 668 78 delay 60000;
#X msg 668 57 stop;
#X text 752 81 at least every minute in the case of incessant sound
;
#X floatatom 304 212 5 0 0 0 - - -;
#X obj 342 62 env~;
#X obj 439 153 float;
#X obj 342 113 + 0;
#X floatatom 342 134 5 0 0 0 - - -;
#X floatatom 423 39 5 0 0 0 - - -;
#X obj 423 57 swap 1;
#X obj 423 78 -;
#X obj 342 83 * 0.001;
#X obj 377 112 * 0.999;
#X text 433 111 long-running mean;
#X text 463 202 decay evaluator;
#X connect 0 0 1 0;
#X connect 1 0 39 0;
#X connect 2 0 0 0;
#X connect 3 0 4 0;
#X connect 3 3 5 0;
#X connect 4 0 8 0;
#X connect 5 0 13 0;
#X connect 6 0 51 0;
#X connect 6 0 56 0;
#X connect 7 0 51 1;
#X connect 8 0 6 0;
#X connect 9 0 50 0;
#X connect 10 0 51 0;
#X connect 11 0 51 0;
#X connect 13 0 14 0;
#X connect 13 0 38 0;
#X connect 16 0 17 0;
#X connect 16 1 26 0;
#X connect 17 0 29 1;
#X connect 18 0 27 0;
#X connect 19 0 23 0;
#X connect 20 0 21 0;
#X connect 21 0 26 1;
#X connect 21 0 19 0;
#X connect 22 0 16 0;
#X connect 23 0 25 0;
#X connect 25 0 29 1;
#X connect 26 0 20 0;
#X connect 27 0 22 0;
#X connect 28 0 29 1;
#X connect 29 1 24 0;
#X connect 29 1 28 0;
#X connect 31 0 29 0;
#X connect 32 0 18 0;
#X connect 32 0 36 0;
#X connect 33 0 34 0;
#X connect 33 0 54 0;
#X connect 33 1 32 0;
#X connect 33 1 53 0;
#X connect 34 0 32 0;
#X connect 38 0 33 0;
#X connect 39 0 3 0;
#X connect 39 0 9 0;
#X connect 39 0 57 0;
#X connect 40 0 41 0;
#X connect 41 0 42 0;
#X connect 42 0 43 0;
#X connect 43 0 44 0;
#X connect 44 0 46 0;
#X connect 45 0 47 2;
#X connect 46 0 45 0;
#X connect 47 0 12 0;
#X connect 47 0 30 0;
#X connect 48 0 40 0;
#X connect 49 0 48 0;
#X connect 49 0 11 0;
#X connect 50 0 47 0;
#X connect 51 0 9 1;
#X connect 53 0 18 0;
#X connect 53 0 37 0;
#X connect 54 0 53 0;
#X connect 57 0 64 0;
#X connect 59 0 60 0;
#X connect 59 0 65 0;
#X connect 60 0 13 1;
#X connect 61 0 62 0;
#X connect 61 0 64 1;
#X connect 62 0 63 0;
#X connect 63 0 65 1;
#X connect 64 0 59 0;
#X connect 65 0 59 1;
#X restore 51 67 pd cleanup;
#X obj 236 437 e_reverb \$0-birdspace-left;
#X obj 430 437 e_reverb \$0-birdspace-right;
#X obj 480 341 loadbang;
#X msg 507 410 amp 80 \, hall 90 \, freq 2800 \, damp 92;
#X msg 480 385 amp 80 \, hall 88 \, freq 3000 \, damp 90;
#X msg 257 195 new-lang;
#X floatatom 238 288 5 0 0 0 - - -;
#X msg 581 363 dry \$1;
#X floatatom 584 342 5 0 1 0 - - -;
#X obj 189 259 feralcall 1;
#X msg 585 318 0.2;
#X obj 583 291 loadbang;
#X msg 281 218 start-soon;
#X msg 306 236 new-sentence;
#X obj 339 -1 loadbang;
#X obj 414 145 u_samplekit animalvox;
#X msg 414 95 open samples/vox/22050;
#X obj 414 26 samplerate~;
#X obj 414 51 select 22050 44100;
#X obj 535 72 t b;
#X msg 475 118 open samples/vox/44100;
#X obj 481 6 bng 15 250 50 0 empty empty empty 17 7 0 10 -262144 -1
-1;
#X obj 296 274 feralcall 2;
#X connect 0 0 4 0;
#X connect 5 0 1 0;
#X connect 6 0 2 0;
#X connect 7 0 9 0;
#X connect 7 0 8 0;
#X connect 8 0 6 1;
#X connect 9 0 5 1;
#X connect 10 0 14 1;
#X connect 10 0 27 1;
#X connect 12 0 5 1;
#X connect 12 0 6 1;
#X connect 13 0 12 0;
#X connect 14 0 5 0;
#X connect 14 1 6 0;
#X connect 14 3 11 0;
#X connect 15 0 13 0;
#X connect 16 0 15 0;
#X connect 17 0 14 1;
#X connect 17 0 27 1;
#X connect 18 0 14 1;
#X connect 18 0 27 1;
#X connect 19 0 22 0;
#X connect 19 0 10 0;
#X connect 19 0 17 0;
#X connect 21 0 20 0;
#X connect 22 0 23 0;
#X connect 23 0 21 0;
#X connect 23 1 25 0;
#X connect 23 2 24 0;
#X connect 24 0 21 0;
#X connect 25 0 20 0;
#X connect 26 0 22 0;
#X connect 27 0 5 0;
#X connect 27 1 6 0;
#X restore 42 322 pd critters;
#N canvas 0 22 450 300 foreground 0;
#X obj 52 227 outlet~;
#X obj 139 227 outlet~;
#X restore 259 321 pd foreground;
#X connect 1 0 9 0;
#X connect 1 1 9 0;
#X connect 9 0 12 0;
#X connect 11 0 2 0;
#X connect 11 1 2 1;
#X connect 12 0 2 0;
#X connect 12 1 2 1;
#X connect 13 0 2 0;
#X connect 13 1 2 1;
