#N canvas 106 89 1227 653 10;
#X declare -path .;
#X declare -path rj;
#X floatatom 454 203 5 5 1000 0 slice_size - -;
#X msg 447 251 0.5 \$1 0.5 \$1;
#X obj 359 350 threshold~ 0.5 5 0.5 5;
#X obj 156 156 t b b b;
#X msg 181 178 start;
#X obj 110 103 inlet~;
#X obj 177 96 inlet;
#X obj 137 469 outlet~;
#X obj 227 469 outlet~;
#X obj 729 255 loadbang;
#X obj 594 302 u_collect;
#X obj 1017 46 inlet;
#X obj 1017 74 list trim;
#X obj 1017 102 route save;
#X obj 1017 160 outlet;
#X obj 1084 190 u_dispatch \$0 mute;
#X obj 1017 132 u_loader u_channelstrip-\$1 \$0;
#X msg 278 231 chunk-size \$1;
#X msg 320 258 transposition \$1;
#X floatatom 392 230 5 0 0 0 - - -;
#X obj 600 458 pack 2000 44100;
#X obj 102 257 sig~ 0;
#X obj 1107 24 declare -path .;
#X obj 1107 52 declare -path rj;
#X obj 607 422 * 22.05;
#X obj 687 328 samplerate~;
#X obj 687 349 / 1000;
#X floatatom 687 370 5 0 0 0 - - -;
#X msg 610 342 2000;
#X obj 627 371 t f f;
#X obj 455 143 loadbang;
#X msg 455 164 300;
#X obj 122 207 u_record animalvox-2 2000;
#X obj 118 322 s_playolap-p animalvox-1;
#X obj 475 388 metro 1000;
#X obj 524 364 tgl 15 0 empty empty empty 17 7 0 10 -262144 -1 -1 1
1;
#X obj 314 459 snapshot~;
#X floatatom 314 480 5 0 0 0 - - -;
#X obj 100 855 e_pan;
#X obj 112 401 e_pan \$0;
#X obj 445 -68 loadbang;
#X obj 249 111 c_lfo \$0-feralcallpan;
#X msg 541 -59 freq \$1;
#X floatatom 540 -91 5 0 0 0 - - -;
#X msg 464 -15 waveform sine \, on 1 \, updates 20;
#X floatatom 249 132 5 0 0 0 - - -;
#X msg 253 291 table animalvox-\$1;
#X msg 237 247 1;
#X obj 336 392 bng 15 250 50 0 empty empty empty 17 7 0 10 -262144
-1 -1;
#X connect 0 0 1 0;
#X connect 0 0 17 0;
#X connect 1 0 2 0;
#X connect 2 0 48 0;
#X connect 3 1 4 0;
#X connect 4 0 32 0;
#X connect 5 0 32 0;
#X connect 6 0 3 0;
#X connect 9 0 25 0;
#X connect 11 0 12 0;
#X connect 12 0 13 0;
#X connect 13 0 16 0;
#X connect 13 1 15 0;
#X connect 16 0 14 0;
#X connect 17 0 33 1;
#X connect 18 0 33 1;
#X connect 19 0 18 0;
#X connect 21 0 33 0;
#X connect 24 0 20 0;
#X connect 25 0 26 0;
#X connect 26 0 27 0;
#X connect 27 0 24 1;
#X connect 28 0 29 0;
#X connect 29 0 24 0;
#X connect 29 1 20 1;
#X connect 30 0 31 0;
#X connect 31 0 0 0;
#X connect 33 0 39 0;
#X connect 33 1 2 0;
#X connect 34 0 36 0;
#X connect 35 0 34 0;
#X connect 36 0 37 0;
#X connect 39 0 7 0;
#X connect 39 1 8 0;
#X connect 39 1 36 0;
#X connect 40 0 44 0;
#X connect 41 0 39 1;
#X connect 41 0 45 0;
#X connect 42 0 41 1;
#X connect 43 0 42 0;
#X connect 44 0 41 1;
#X connect 46 0 33 1;
#X connect 47 0 46 0;
