#N canvas 49 68 1248 789 10;
#X declare -path .;
#X declare -path rj;
#X declare -path .;
#X declare -path rj;
#X floatatom 734 283 6 5 1000 0 slice_size - -;
#X msg 844 312 0.5 \$1 0.5 \$1;
#X obj 844 332 threshold~ 0.5 5 0.5 5;
#X obj 228 -89 inlet~;
#X obj 749 562 outlet~;
#X obj 839 562 outlet~;
#X obj 943 -187 inlet;
#X obj 943 -164 list trim;
#X obj 943 -141 route save;
#X obj 943 -83 outlet;
#X obj 1010 -62 u_dispatch \$0 mute;
#X msg 734 381 chunk-size \$1;
#X msg 668 352 transposition \$1;
#X floatatom 667 335 5 0 0 0 - - -;
#X obj 506 407 sig~ 0;
#X obj 1033 -165 declare -path .;
#X obj 1033 -137 declare -path rj;
#X obj 905 234 loadbang;
#X obj 749 538 e_pan \$0;
#X msg 972 400 table animalvox-\$1;
#X obj 843 428 bng 15 250 50 0 empty empty empty 17 7 0 10 -262144
-1 -1;
#X text 191 -111 Feral - feralcall.pd;
#N canvas 147 199 734 526 syntax 0;
#N canvas 0 22 450 300 enumerate 0;
#N canvas 473 338 450 300 count 0;
#X obj 131 154 f 0;
#X obj 163 154 + 1;
#X msg 178 122 0;
#X obj 131 183 outlet;
#X obj 131 59 inlet;
#X obj 131 96 b;
#X obj 178 58 inlet;
#X obj 178 98 b;
#X connect 0 0 1 0;
#X connect 0 0 3 0;
#X connect 1 0 0 1;
#X connect 2 0 0 1;
#X connect 4 0 5 0;
#X connect 5 0 0 0;
#X connect 6 0 7 0;
#X connect 7 0 2 0;
#X restore 233 170 pd count;
#X obj 152 128 t a b;
#X obj 152 196 list prepend;
#X obj 152 72 inlet;
#X obj 152 228 outlet;
#X obj 286 74 inlet;
#X connect 0 0 2 1;
#X connect 1 0 2 0;
#X connect 1 1 0 0;
#X connect 2 0 4 0;
#X connect 3 0 1 0;
#X connect 5 0 0 1;
#X restore 246 198 pd enumerate;
#X msg 66 165 bang;
#X obj 204 143 t b b;
#X obj 246 3 until;
#X obj 246 143 u_cocollect;
#X msg 246 171 4 0 0 0 \, 4 3 1 1 \, 4 2 0 1 \, 4 2 0 5 \,;
#X obj 115 -31 bng 15 250 50 0 empty empty empty 17 7 0 10 -262144
-1 -1;
#X obj 223 -38 t b b b;
#X obj 129 221 c_markov 4;
#X obj 211 -71 inlet;
#X obj -9 156 inlet;
#X text -51 140 trigger a letter;
#X obj 125 263 outlet;
#X obj 94 99 inlet;
#X text 59 76 start a seq;
#X obj 97 120 t b;
#X msg 97 141 1;
#X obj 302 -73 loadbang;
#X msg 246 -18 3;
#X obj 246 23 t b b b b;
#X text 296 -40 this generates a 4x4 markov transition matrix \, with
state 0 being always capturing;
#X msg 222 46 4 0 0 0;
#X msg 126 183 set \$1;
#X obj 301 87 random 8;
#X obj 339 66 random 8;
#X obj 268 67 random 8;
#X obj 246 112 pack 4 0 0 0;
#X connect 0 0 8 1;
#X connect 1 0 8 0;
#X connect 2 0 5 0;
#X connect 2 1 0 1;
#X connect 3 0 19 0;
#X connect 4 0 5 0;
#X connect 5 0 0 0;
#X connect 6 0 7 0;
#X connect 7 0 2 0;
#X connect 7 1 18 0;
#X connect 7 2 4 1;
#X connect 7 2 21 0;
#X connect 8 0 12 0;
#X connect 9 0 7 0;
#X connect 10 0 8 0;
#X connect 13 0 15 0;
#X connect 15 0 16 0;
#X connect 16 0 12 0;
#X connect 16 0 22 0;
#X connect 17 0 7 0;
#X connect 18 0 3 0;
#X connect 19 0 26 0;
#X connect 19 1 25 0;
#X connect 19 2 23 0;
#X connect 19 3 24 0;
#X connect 21 0 4 0;
#X connect 22 0 8 0;
#X connect 23 0 26 2;
#X connect 24 0 26 3;
#X connect 25 0 26 1;
#X connect 26 0 4 0;
#X restore 669 -13 pd syntax;
#N canvas 169 271 946 568 semantics 0;
#X obj 390 141 send \$0-vel;
#X obj 264 141 send \$0-loc;
#X obj 529 163 send \$0-pitch;
#X obj 640 140 send \$0-len;
#X obj 739 173 loadbang;
#X obj 392 370 table \$0-vel;
#X obj 278 371 table \$0-loc;
#X obj 500 376 table \$0-pitch;
#X obj 633 376 table \$0-len;
#X obj 245 197 inlet;
#X obj 504 -109 inlet;
#X obj 390 339 outlet;
#X obj 277 272 tabread \$0-loc;
#X obj 277 339 outlet;
#X obj 504 339 outlet;
#X obj 634 340 outlet;
#X text 219 179 recall a state;
#X text 494 -125 gen new states;
#X obj 634 272 tabread \$0-len;
#X obj 504 272 tabread \$0-pitch;
#X obj 390 272 tabread \$0-vel;
#X obj 358 248 sel 0;
#X obj 245 248 sel 0;
#X obj 476 248 sel 0;
#X obj 602 248 sel 0;
#X obj 390 98 u_listmap;
#X obj 390 75 u_listrandom 17 4;
#X obj 463 100 / 16;
#X obj 263 -16 bng 15 250 50 0 empty empty empty 17 7 0 10 -262144
-1 -1;
#X obj 264 98 u_listmap;
#X obj 264 76 u_listrandom 17 4;
#X obj 336 98 / 16;
#X obj 640 101 u_listmap;
#X obj 718 101 / 16;
#X obj 640 78 u_listrandom 17 4;
#X obj 529 36 u_wrandom;
#X obj 529 122 u_collect;
#X obj 594 -10 loadbang;
#X obj 455 -108 bng 15 250 50 0 empty empty empty 17 7 0 10 -262144
-1 -1;
#X obj 529 16 until;
#X msg 529 -4 4;
#X msg 594 11 2 1 1 8 1 1 2;
#X obj 529 56 - 3;
#X msg 529 142 0 0 0 0;
#X obj 504 -27 t b b b;
#X text 519 -50 (pitch is tricky);
#X msg 733 195 resize 4 \, bounds 0 1 3 -1;
#X msg 735 218 resize 4 \, bounds 0 3 3 -3;
#X obj 529 76 pow 3;
#X obj 529 98 / 3;
#X floatatom 218 325 5 0 0 0 - - -;
#X floatatom 218 293 5 0 0 0 - - -;
#X obj 277 314 prop_perturb 0.01;
#X obj 390 293 prop_perturb 0.1;
#X obj 634 293 prop_perturb 0.2;
#X obj 504 313 prop_perturb 0.1;
#X connect 4 0 46 0;
#X connect 4 0 47 0;
#X connect 9 0 21 0;
#X connect 9 0 22 0;
#X connect 9 0 23 0;
#X connect 9 0 24 0;
#X connect 10 0 26 0;
#X connect 10 0 30 0;
#X connect 10 0 44 0;
#X connect 10 0 34 0;
#X connect 12 0 51 0;
#X connect 12 0 52 0;
#X connect 18 0 54 0;
#X connect 19 0 55 0;
#X connect 20 0 53 0;
#X connect 21 1 20 0;
#X connect 22 1 12 0;
#X connect 23 1 19 0;
#X connect 24 1 18 0;
#X connect 25 0 0 0;
#X connect 25 1 27 0;
#X connect 26 0 25 0;
#X connect 27 0 25 1;
#X connect 28 0 26 0;
#X connect 29 0 1 0;
#X connect 29 1 31 0;
#X connect 30 0 29 0;
#X connect 31 0 29 1;
#X connect 32 0 3 0;
#X connect 32 1 33 0;
#X connect 33 0 32 1;
#X connect 34 0 32 0;
#X connect 35 0 42 0;
#X connect 36 0 43 0;
#X connect 37 0 41 0;
#X connect 38 0 44 0;
#X connect 39 0 35 0;
#X connect 40 0 39 0;
#X connect 41 0 35 1;
#X connect 42 0 48 0;
#X connect 43 0 2 0;
#X connect 44 0 43 0;
#X connect 44 1 40 0;
#X connect 44 2 36 1;
#X connect 46 0 0 0;
#X connect 46 0 1 0;
#X connect 46 0 3 0;
#X connect 47 0 2 0;
#X connect 48 0 49 0;
#X connect 49 0 36 0;
#X connect 52 0 50 0;
#X connect 52 0 13 0;
#X connect 53 0 11 0;
#X connect 54 0 15 0;
#X connect 55 0 14 0;
#X restore 596 105 pd semantics;
#X obj 776 -76 bng 15 250 50 0 empty empty new_sentence 17 7 0 10 -262144
-1 -1;
#X obj 590 -77 bng 15 250 50 0 empty empty new_word 17 7 0 10 -262144
-1 -1;
#X floatatom 669 12 5 0 0 0 - - -;
#X floatatom 609 139 5 0 0 0 - - -;
#X floatatom 506 138 5 0 0 0 - - -;
#X floatatom 667 140 5 0 0 0 - - -;
#X floatatom 734 135 5 0 0 0 - - -;
#X obj 669 -77 bng 15 250 50 0 empty empty new_language 17 7 0 10 -262144
-1 -1;
#X obj 734 210 swap 2;
#X obj 734 238 pow 2;
#X obj 506 159 * 1000;
#X obj 1010 -62 u_dispatch \$0 mute;
#X msg 609 375 volume \$1;
#X msg 776 261 300;
#X obj 642 156 > 0;
#N canvas 0 22 450 300 thru 0;
#X obj 175 85 inlet;
#X obj 175 106 outlet;
#X connect 0 0 1 0;
#X restore 1080 117 pd thru;
#X obj 844 292 * 0.5;
#X obj 669 77 sel 0;
#X floatatom 402 47 8 0 0 0 - - -;
#X obj 402 -35 / 100;
#X obj 402 -14 swap 2;
#X obj 402 7 pow 1;
#X obj 669 56 change;
#X obj 609 201 * 1;
#X floatatom 618 222 5 0 0 0 - - -;
#X obj 402 64 delay 1000;
#X obj 943 -111 u_loader feralcall-\$1 \$0;
#X obj 669 36 t f f;
#X obj 617 178 t b f;
#X text 656 176 <- shouldn't need this \, but do;
#X msg 972 354 0;
#X obj 734 189 * 3;
#X obj 734 259 * 20;
#X obj 402 28 * 500;
#X obj 729 -37 t b b b;
#X obj 988 308 random 16;
#X floatatom 972 375 5 0 0 0 - - -;
#X text 776 -55 run one mating call;
#X obj 444 483 env~;
#X floatatom 378 503 5 0 0 0 - - -;
#X obj 506 432 s_playchunk animalvox-0;
#N canvas 0 22 450 300 thru 0;
#X obj 175 85 inlet;
#X obj 175 106 outlet;
#X connect 0 0 1 0;
#X restore 1103 -33 pd thru;
#X obj 402 -56 random 600;
#X obj 1119 379 random 513;
#X obj 1119 400 / 512;
#X obj 889 354 samplerate~;
#X msg 889 375 sr \$1;
#X floatatom 1119 421 5 0 0 0 - - -;
#X obj 1237 213 loadbang;
#X obj 1237 234 \$0;
#X obj 1237 276 print;
#X floatatom 1282 255 5 0 0 0 - - -;
#X obj 1185 257 outlet;
#X obj 444 504 max;
#X floatatom 473 507 5 0 0 0 - - -;
#X obj 295 243 g_nbx comp1;
#X obj 295 272 g_nbx comp2;
#X obj 295 304 g_nbx att;
#X obj 295 335 g_nbx rel;
#X obj 295 367 g_nbx makeup;
#X obj 295 428 g_hsl dry 0 1;
#X obj 295 397 g_nhsl thresh 0 120;
#X text 392 300 default: 50;
#X text 390 333 default: 50;
#X text 391 381 units: percent;
#X obj 506 480 e_dynproc \$0-tamer;
#X msg 263 203 dry 0 \, thresh 90 \, comp1 5;
#X obj 263 179 loadbang;
#X obj 506 457 *~ 3;
#X obj 527 511 env~;
#X obj 527 532 max;
#X floatatom 556 535 5 0 0 0 - - -;
#X obj 659 -111 route new-lang new-sentence start-soon;
#X connect 0 0 11 0;
#X connect 0 0 40 0;
#X connect 1 0 2 0;
#X connect 2 0 20 0;
#X connect 2 0 39 0;
#X connect 6 0 7 0;
#X connect 7 0 8 0;
#X connect 8 0 50 0;
#X connect 8 1 10 0;
#X connect 8 1 96 0;
#X connect 11 0 64 1;
#X connect 12 0 64 1;
#X connect 13 0 12 0;
#X connect 14 0 64 0;
#X connect 17 0 54 0;
#X connect 17 0 37 0;
#X connect 17 0 69 0;
#X connect 18 0 4 0;
#X connect 18 1 5 0;
#X connect 19 0 64 1;
#X connect 22 0 26 0;
#X connect 23 0 28 0;
#X connect 23 1 27 0;
#X connect 23 2 29 0;
#X connect 23 3 30 0;
#X connect 24 0 22 1;
#X connect 24 0 67 0;
#X connect 25 0 22 0;
#X connect 26 0 51 0;
#X connect 27 0 47 0;
#X connect 28 0 34 0;
#X connect 29 0 13 0;
#X connect 30 0 55 0;
#X connect 31 0 58 0;
#X connect 32 0 33 0;
#X connect 32 1 33 1;
#X connect 33 0 56 0;
#X connect 34 0 14 0;
#X connect 36 0 64 1;
#X connect 37 0 0 0;
#X connect 38 0 52 0;
#X connect 39 0 22 0;
#X connect 40 0 1 0;
#X connect 41 0 66 0;
#X connect 42 0 49 0;
#X connect 43 0 44 0;
#X connect 44 0 45 0;
#X connect 44 1 45 1;
#X connect 45 0 57 0;
#X connect 46 0 41 0;
#X connect 47 0 36 0;
#X connect 47 0 48 0;
#X connect 49 0 24 0;
#X connect 50 0 9 0;
#X connect 51 0 23 0;
#X connect 51 0 46 0;
#X connect 51 1 38 0;
#X connect 52 0 47 0;
#X connect 52 1 47 1;
#X connect 54 0 60 0;
#X connect 55 0 32 0;
#X connect 56 0 0 0;
#X connect 57 0 42 0;
#X connect 58 0 22 2;
#X connect 58 1 23 1;
#X connect 58 2 59 0;
#X connect 59 0 60 0;
#X connect 60 0 19 0;
#X connect 62 0 63 0;
#X connect 62 0 77 0;
#X connect 64 0 18 0;
#X connect 64 0 62 0;
#X connect 64 0 92 0;
#X connect 64 0 93 0;
#X connect 64 1 2 0;
#X connect 66 0 43 0;
#X connect 67 0 68 0;
#X connect 68 0 18 1;
#X connect 68 0 71 0;
#X connect 69 0 70 0;
#X connect 70 0 64 1;
#X connect 72 0 73 0;
#X connect 73 0 74 0;
#X connect 73 0 75 0;
#X connect 73 0 76 0;
#X connect 77 0 78 0;
#X connect 78 0 77 1;
#X connect 79 0 80 0;
#X connect 80 0 81 0;
#X connect 81 0 82 0;
#X connect 82 0 83 0;
#X connect 83 0 85 0;
#X connect 84 0 89 2;
#X connect 85 0 84 0;
#X connect 89 0 18 0;
#X connect 90 0 79 0;
#X connect 91 0 90 0;
#X connect 92 0 89 0;
#X connect 93 0 94 0;
#X connect 94 0 95 0;
#X connect 95 0 94 1;
#X connect 96 0 31 0;
#X connect 96 1 24 0;
#X connect 96 2 66 0;
