#N canvas 30 66 1227 653 10;
#X declare -path .;
#X declare -path rj;
#X declare -path .;
#X declare -path rj;
#X floatatom 786 273 5 5 1000 0 slice_size - -;
#X msg 897 373 0.5 \$1 0.5 \$1;
#X obj 897 393 threshold~ 0.5 5 0.5 5;
#X obj 156 156 t b b b;
#X msg 181 178 start;
#X obj 110 103 inlet~;
#X obj 177 96 inlet;
#X obj 441 600 outlet~;
#X obj 531 600 outlet~;
#X obj 881 -12 inlet;
#X obj 881 16 list trim;
#X obj 881 44 route save;
#X obj 881 102 outlet;
#X obj 948 132 u_dispatch \$0 mute;
#X obj 881 74 u_loader u_channelstrip-\$1 \$0;
#X msg 786 369 chunk-size \$1;
#X msg 721 340 transposition \$1;
#X floatatom 720 323 5 0 0 0 - - -;
#X obj 506 425 sig~ 0;
#X obj 971 -34 declare -path .;
#X obj 971 -6 declare -path rj;
#X obj 575 202 loadbang;
#X obj 636 565 metro 1000;
#X obj 636 546 tgl 15 0 empty empty empty 17 7 0 10 -262144 -1 -1 1
1;
#X obj 636 590 snapshot~;
#X floatatom 636 611 5 0 0 0 - - -;
#X obj 441 532 e_pan \$0;
#X obj 393 -82 loadbang;
#X obj 249 111 c_lfo \$0-feralcallpan;
#X msg 393 58 freq \$1;
#X floatatom 393 42 5 0 0 0 - - -;
#X msg 300 83 waveform sine \, on 1 \, updates 20;
#X floatatom 249 132 5 0 0 0 - - -;
#X msg 575 422 table animalvox-\$1;
#X msg 575 401 1;
#X obj 897 414 bng 15 250 50 0 empty empty empty 17 7 0 10 -262144
-1 -1;
#X text 49 -61 Feral - feralcall.pd;
#N canvas 158 186 734 526 syntax 0;
#N canvas 0 22 450 300 enumerate 0;
#N canvas 473 338 450 300 count 0;
#X obj 131 154 f 0;
#X obj 163 154 + 1;
#X msg 178 122 0;
#X obj 131 183 outlet;
#X obj 131 59 inlet;
#X obj 131 96 b;
#X obj 178 58 inlet;
#X obj 178 98 b;
#X connect 0 0 1 0;
#X connect 0 0 3 0;
#X connect 1 0 0 1;
#X connect 2 0 0 1;
#X connect 4 0 5 0;
#X connect 5 0 0 0;
#X connect 6 0 7 0;
#X connect 7 0 2 0;
#X restore 233 170 pd count;
#X obj 152 128 t a b;
#X obj 152 196 list prepend;
#X obj 152 72 inlet;
#X obj 152 228 outlet;
#X obj 286 74 inlet;
#X connect 0 0 2 1;
#X connect 1 0 2 0;
#X connect 1 1 0 0;
#X connect 2 0 4 0;
#X connect 3 0 1 0;
#X connect 5 0 0 1;
#X restore 246 198 pd enumerate;
#X msg 69 224 bang;
#X obj 204 143 t b b;
#X obj 246 29 until;
#X obj 246 143 u_cocollect;
#X msg 246 171 4 0 0 0 \, 1 1 11 9 \, 1 13 12 8 \, 1 7 0 4 \,;
#X obj 115 -31 bng 15 250 50 0 empty empty empty 17 7 0 10 -262144
-1 -1;
#X obj 223 -12 t b b b;
#X obj 180 221 c_markov 4;
#X obj 211 -45 inlet;
#X obj -9 179 inlet;
#X text -51 140 trigger a letter;
#X obj 176 263 outlet;
#X obj 94 99 inlet;
#X text 59 76 start a seq;
#X obj 97 120 t b;
#X msg 97 141 1;
#X obj 302 -47 loadbang;
#X msg 246 8 3;
#X obj 246 49 t b b b b;
#X obj 246 112 pack 1 0 0 0;
#X obj 266 70 random 16;
#X text 296 -14 this generates a 4x4 markov transition matrix \, with
state 0 being always capturing;
#X obj 299 90 random 16;
#X obj 337 70 random 16;
#X msg 230 90 4 0 0 0;
#X msg 177 183 set \$1;
#X connect 0 0 8 1;
#X connect 1 0 8 0;
#X connect 2 0 5 0;
#X connect 2 1 0 1;
#X connect 3 0 19 0;
#X connect 4 0 5 0;
#X connect 5 0 0 0;
#X connect 6 0 7 0;
#X connect 7 0 2 0;
#X connect 7 1 18 0;
#X connect 7 2 4 1;
#X connect 7 2 25 0;
#X connect 8 0 12 0;
#X connect 9 0 7 0;
#X connect 10 0 8 0;
#X connect 13 0 15 0;
#X connect 15 0 16 0;
#X connect 16 0 12 0;
#X connect 16 0 26 0;
#X connect 17 0 7 0;
#X connect 18 0 3 0;
#X connect 19 0 20 0;
#X connect 19 1 21 0;
#X connect 19 2 23 0;
#X connect 19 3 24 0;
#X connect 20 0 4 0;
#X connect 21 0 20 1;
#X connect 23 0 20 2;
#X connect 24 0 20 3;
#X connect 25 0 4 0;
#X connect 26 0 8 0;
#X restore 652 60 pd syntax;
#N canvas 169 271 946 568 semantics 0;
#X obj 390 141 send \$0-vel;
#X obj 264 141 send \$0-loc;
#X obj 529 163 send \$0-pitch;
#X obj 640 140 send \$0-len;
#X obj 739 173 loadbang;
#X obj 392 340 table \$0-vel;
#X obj 278 341 table \$0-loc;
#X obj 500 346 table \$0-pitch;
#X obj 633 346 table \$0-len;
#X obj 245 197 inlet;
#X obj 504 -109 inlet;
#X obj 390 309 outlet;
#X obj 277 272 tabread \$0-loc;
#X obj 277 309 outlet;
#X obj 504 309 outlet;
#X obj 634 310 outlet;
#X text 219 179 recall a state;
#X text 494 -125 gen new states;
#X obj 634 272 tabread \$0-len;
#X obj 504 272 tabread \$0-pitch;
#X obj 390 272 tabread \$0-vel;
#X obj 358 248 sel 0;
#X obj 245 248 sel 0;
#X obj 476 248 sel 0;
#X obj 602 248 sel 0;
#X obj 390 98 u_listmap;
#X obj 390 75 u_listrandom 17 4;
#X obj 463 100 / 16;
#X obj 263 -16 bng 15 250 50 0 empty empty empty 17 7 0 10 -262144
-1 -1;
#X obj 264 98 u_listmap;
#X obj 264 76 u_listrandom 17 4;
#X obj 336 98 / 16;
#X obj 640 101 u_listmap;
#X obj 718 101 / 16;
#X obj 640 78 u_listrandom 17 4;
#X obj 529 36 u_wrandom;
#X obj 529 122 u_collect;
#X obj 594 -10 loadbang;
#X obj 455 -108 bng 15 250 50 0 empty empty empty 17 7 0 10 -262144
-1 -1;
#X obj 529 16 until;
#X msg 529 -4 4;
#X msg 594 11 2 1 1 8 1 1 2;
#X obj 529 56 - 3;
#X msg 529 142 0 0 0 0;
#X obj 504 -27 t b b b;
#X text 519 -50 (pitch is tricky);
#X msg 733 195 resize 4 \, bounds 0 1 3 -1;
#X msg 735 218 resize 4 \, bounds 0 3 3 -3;
#X obj 529 76 pow 3;
#X obj 529 98 / 3;
#X connect 4 0 46 0;
#X connect 4 0 47 0;
#X connect 9 0 21 0;
#X connect 9 0 22 0;
#X connect 9 0 23 0;
#X connect 9 0 24 0;
#X connect 10 0 26 0;
#X connect 10 0 30 0;
#X connect 10 0 44 0;
#X connect 10 0 34 0;
#X connect 12 0 13 0;
#X connect 18 0 15 0;
#X connect 19 0 14 0;
#X connect 20 0 11 0;
#X connect 21 1 20 0;
#X connect 22 1 12 0;
#X connect 23 1 19 0;
#X connect 24 1 18 0;
#X connect 25 0 0 0;
#X connect 25 1 27 0;
#X connect 26 0 25 0;
#X connect 27 0 25 1;
#X connect 28 0 26 0;
#X connect 29 0 1 0;
#X connect 29 1 31 0;
#X connect 30 0 29 0;
#X connect 31 0 29 1;
#X connect 32 0 3 0;
#X connect 32 1 33 0;
#X connect 33 0 32 1;
#X connect 34 0 32 0;
#X connect 35 0 42 0;
#X connect 36 0 43 0;
#X connect 37 0 41 0;
#X connect 38 0 44 0;
#X connect 39 0 35 0;
#X connect 40 0 39 0;
#X connect 41 0 35 1;
#X connect 42 0 48 0;
#X connect 43 0 2 0;
#X connect 44 0 43 0;
#X connect 44 1 40 0;
#X connect 44 2 36 1;
#X connect 46 0 0 0;
#X connect 46 0 1 0;
#X connect 46 0 3 0;
#X connect 47 0 2 0;
#X connect 48 0 49 0;
#X connect 49 0 36 0;
#X restore 652 105 pd semantics;
#X obj 677 22 bng 15 250 50 0 empty empty empty 17 7 0 10 -262144 -1
-1;
#X obj 641 30 bng 15 250 50 0 empty empty empty 17 7 0 10 -262144 -1
-1;
#X floatatom 603 46 5 0 0 0 - - -;
#X floatatom 662 127 5 0 0 0 - - -;
#X floatatom 506 138 5 0 0 0 - - -;
#X floatatom 720 128 5 0 0 0 - - -;
#X floatatom 787 129 5 0 0 0 - - -;
#X obj 725 22 t b b;
#X obj 726 -6 bng 15 250 50 0 empty empty empty 17 7 0 10 -262144 -1
-1;
#X obj 506 450 s_playchunk animalvox-1;
#X obj 787 198 swap 2;
#X obj 787 226 pow 2;
#X obj 506 159 * 1000;
#X obj 948 132 u_dispatch \$0 mute;
#X msg 662 363 volume \$1;
#X obj 122 207 u_record animalvox-1 2000;
#X obj 787 177 * 4;
#X obj 786 248 * 80;
#X msg 748 249 300;
#X obj 608 87 > 0;
#N canvas 0 22 450 300 thru 0;
#X obj 175 85 inlet;
#X obj 175 106 outlet;
#X connect 0 0 1 0;
#X restore 1030 194 pd thru;
#X obj 897 353 * 0.5;
#X obj 393 -40 / 100;
#X obj 393 -19 swap 2;
#X obj 393 2 pow 1;
#X obj 357 -60 bng 15 250 50 0 empty empty empty 17 7 0 10 -262144
-1 -1;
#X obj 393 -61 random 400;
#X obj 393 22 * 0.025;
#X connect 0 0 15 0;
#X connect 0 0 60 0;
#X connect 1 0 2 0;
#X connect 2 0 35 0;
#X connect 2 0 59 0;
#X connect 3 1 4 0;
#X connect 4 0 54 0;
#X connect 5 0 54 0;
#X connect 6 0 3 0;
#X connect 9 0 10 0;
#X connect 10 0 11 0;
#X connect 11 0 14 0;
#X connect 11 1 13 0;
#X connect 14 0 12 0;
#X connect 15 0 48 1;
#X connect 16 0 48 1;
#X connect 17 0 16 0;
#X connect 18 0 48 0;
#X connect 21 0 34 0;
#X connect 21 0 57 0;
#X connect 22 0 24 0;
#X connect 23 0 22 0;
#X connect 24 0 25 0;
#X connect 26 0 7 0;
#X connect 26 1 8 0;
#X connect 27 0 31 0;
#X connect 27 0 65 0;
#X connect 28 0 26 1;
#X connect 28 0 32 0;
#X connect 29 0 28 1;
#X connect 30 0 29 0;
#X connect 31 0 28 1;
#X connect 33 0 48 1;
#X connect 34 0 33 0;
#X connect 37 0 38 0;
#X connect 37 0 41 0;
#X connect 37 0 58 0;
#X connect 38 0 43 0;
#X connect 38 1 42 0;
#X connect 38 2 44 0;
#X connect 38 3 45 0;
#X connect 39 0 37 1;
#X connect 40 0 37 0;
#X connect 42 0 53 0;
#X connect 43 0 51 0;
#X connect 44 0 17 0;
#X connect 45 0 55 0;
#X connect 46 0 37 2;
#X connect 46 1 38 1;
#X connect 47 0 46 0;
#X connect 48 0 26 0;
#X connect 48 0 24 0;
#X connect 48 1 2 0;
#X connect 49 0 50 0;
#X connect 50 0 56 0;
#X connect 51 0 18 0;
#X connect 53 0 48 1;
#X connect 55 0 49 0;
#X connect 56 0 0 0;
#X connect 57 0 0 0;
#X connect 59 0 37 0;
#X connect 60 0 1 0;
#X connect 61 0 62 0;
#X connect 62 0 63 0;
#X connect 62 1 63 1;
#X connect 63 0 66 0;
#X connect 64 0 65 0;
#X connect 65 0 61 0;
#X connect 66 0 30 0;
