#N canvas 83 261 694 479 10;
#X obj 262 158 inlet;
#X obj 431 160 inlet;
#X obj 262 179 t f b;
#X obj 323 204 random 32769;
#X obj 431 207 / 16384;
#X obj 323 247 * 6.10352e-05;
#X obj 262 316 outlet;
#X obj 323 268 + 1;
#X obj 262 295 * 1;
#X obj 513 69 loadbang;
#X floatatom 431 181 5 0 0 0 - - -;
#X obj 323 225 - 16384;
#X obj 513 90 f \$1;
#X text 162 388 perturb a number by a fraction of its own magnitude.
parameter 0..1;
#X connect 0 0 2 0;
#X connect 1 0 10 0;
#X connect 2 0 8 0;
#X connect 2 1 3 0;
#X connect 3 0 11 0;
#X connect 4 0 5 1;
#X connect 5 0 7 0;
#X connect 7 0 8 1;
#X connect 8 0 6 0;
#X connect 9 0 12 0;
#X connect 10 0 4 0;
#X connect 11 0 5 0;
#X connect 12 0 10 0;
