#N canvas 476 123 719 435 10;
#X declare -path ../;
#X declare -path ../rjlib/rj/;
#X obj -8 103 makefilename /dubtable/block/%d;
#X obj -8 82 \$1;
#X obj 131 -27 loadbang;
#X obj 112 217 pack s f f f f;
#X symbolatom 112 196 30 0 0 0 - - -;
#X obj 132 58 tgl 15 0 empty empty empty 17 7 0 10 -262144 -1 -1 0
1;
#X obj 131 14 random 30000;
#X obj 115 38 delay 15000;
#X obj 255 111 spigot;
#X obj 132 172 t b f;
#X obj 515 32 declare -path ../;
#X obj 515 60 declare -path ../rjlib/rj/;
#X obj 328 109 c_drunk 128 4;
#X obj 336 57 + 50;
#X obj 379 57 delay 114;
#X obj 336 32 c_drunk 256 8;
#X obj 328 131 / 128;
#X obj 413 109 c_drunk 128 4;
#X obj 413 131 / 128;
#X obj 497 109 c_drunk 128 4;
#X obj 497 131 / 128;
#X obj 379 79 t b b b b;
#X obj 112 265 outlet;
#X msg 112 240 send \$1 \$2 \$3 \$4 \$5;
#X obj 336 4 sel 1;
#X connect 0 0 4 0;
#X connect 1 0 0 0;
#X connect 2 0 1 0;
#X connect 2 0 6 0;
#X connect 2 0 15 0;
#X connect 3 0 23 0;
#X connect 4 0 3 0;
#X connect 5 0 8 1;
#X connect 5 0 9 0;
#X connect 5 0 24 0;
#X connect 6 0 7 0;
#X connect 7 0 6 0;
#X connect 7 0 5 0;
#X connect 8 0 4 0;
#X connect 8 0 15 0;
#X connect 9 0 4 0;
#X connect 9 1 3 1;
#X connect 12 0 16 0;
#X connect 13 0 14 0;
#X connect 14 0 21 0;
#X connect 15 0 13 0;
#X connect 16 0 3 2;
#X connect 17 0 18 0;
#X connect 18 0 3 3;
#X connect 19 0 20 0;
#X connect 20 0 3 4;
#X connect 21 0 8 0;
#X connect 21 1 12 0;
#X connect 21 2 17 0;
#X connect 21 3 19 0;
#X connect 23 0 22 0;
#X connect 24 0 15 0;
