#N canvas 115 126 932 683 10;
#X declare -lib mrpeach;
#X declare -path ../;
#X declare -path ../rjlib/rj/;
#X declare -path ../;
#X declare -path ../rjlib/rj/;
#X declare -path ../;
#X declare -path ../rjlib/rj/;
#X declare -path ../;
#X declare -path ../rjlib/rj/;
#X declare -path ../;
#X declare -path ../rjlib/rj/;
#X declare -path ../;
#X declare -path ../rjlib/rj/;
#X declare -path ../;
#X declare -path ../rjlib/rj/;
#X declare -path ../;
#X declare -path ../rjlib/rj/;
#X declare -path ../;
#X declare -path ../rjlib/rj/;
#X declare -path ../;
#X declare -path ../rjlib/rj/;
#X declare -path ../;
#X declare -path ../rjlib/rj/;
#X declare -path ../;
#X declare -path ../rjlib/rj/;
#X declare -path ../;
#X declare -path ../rjlib/rj/;
#X declare -path ../;
#X declare -path ../rjlib/rj/;
#X declare -path ../;
#X declare -path ../rjlib/rj/;
#X declare -path ../;
#X declare -path ../rjlib/rj/;
#X declare -path ../;
#X declare -path ../rjlib/rj/;
#X obj 516 3 import mrpeach;
#X obj 92 141 packOSC;
#X obj 92 315 udpsend;
#X obj 116 268 loadbang;
#X obj 516 28 declare -path ../;
#X obj 516 52 declare -path ../rjlib/rj/;
#X obj -42 2 fakeblock 0;
#N canvas 0 22 450 300 thru 0;
#X obj 201 100 inlet;
#X obj 200 121 outlet;
#X connect 0 0 1 0;
#X restore 92 95 pd thru;
#X obj 92 118 list trim;
#X obj -31 22 fakeblock 1;
#X obj -20 41 fakeblock 2;
#X obj -9 62 fakeblock 3;
#X obj 43 2 fakeblock 4;
#X obj 54 22 fakeblock 5;
#X obj 65 41 fakeblock 6;
#X obj 76 62 fakeblock 7;
#X obj 235 41 fakeblock 14;
#X obj 128 2 fakeblock 8;
#X obj 139 22 fakeblock 9;
#X obj 150 41 fakeblock 10;
#X obj 161 62 fakeblock 11;
#X obj 213 2 fakeblock 12;
#X obj 224 22 fakeblock 13;
#X obj 246 62 fakeblock 15;
#X msg 116 291 connect localhost 7772;
#X obj 92 338 tgl 15 0 empty empty empty 17 7 0 10 -262144 -1 -1 0
1;
#X obj 46 200 print;
#X obj 46 172 spigot;
#X obj 278 167 unpackOSC;
#X obj 278 189 routeOSC /dubtable;
#X obj 278 210 routeOSC /block;
#X text 271 94 dubtable-like signals;
#X text 398 148 conversion to compatability with QC's crappy OSC implementation
;
#X obj 278 232 list split 1;
#X obj 517 76 OVERVIEW;
#X obj 300 302 1;
#X obj 322 283 2;
#X obj 344 302 3;
#X obj 278 283 0;
#X obj 367 283 4;
#X obj 389 302 5;
#X obj 411 283 6;
#X obj 434 302 7;
#X obj 456 283 8;
#X obj 478 302 9;
#X obj 501 283 10;
#X obj 523 302 11;
#X obj 545 283 12;
#X obj 568 302 13;
#X obj 590 283 14;
#X obj 612 302 15;
#N canvas 0 22 450 300 thru 0;
#X obj 224 91 inlet;
#X obj 224 114 outlet;
#X connect 0 0 1 0;
#X restore 444 373 pd thru;
#X obj 278 255 select /0 /1 /2 /3 /4 /5 /6 /7 /8 /9 /10 /11 /12 /13
/14 /15;
#X obj 444 397 list append;
#X obj 522 511 udpsend;
#X obj 599 345 loadbang;
#X obj 522 532 tgl 15 0 empty empty empty 17 7 0 10 -262144 -1 -1 0
1;
#X obj 444 485 packOSC;
#X obj 444 460 list trim;
#X obj 444 436 list prepend;
#X msg 513 373 list sendtyped /dubtable/struct fffff;
#X obj 613 436 sel 0;
#X obj 613 460 delay 2000;
#X obj 92 172 spigot;
#X obj 167 125 tgl 15 0 empty empty empty 17 7 0 10 -262144 -1 -1 0
1;
#X obj 283 377 metro 50;
#X obj 283 356 tgl 15 0 empty empty empty 17 7 0 10 -262144 -1 -1 1
1;
#X msg 283 402 sendtyped /test f 37;
#X msg 522 485 disconnect;
#X msg 599 482 connect localhost 7774;
#X obj 423 540 print;
#X obj 423 512 spigot;
#X obj 394 486 tgl 15 0 empty empty empty 17 7 0 10 -262144 -1 -1 0
1;
#X connect 1 0 28 0;
#X connect 1 0 63 0;
#X connect 2 0 25 0;
#X connect 3 0 24 0;
#X connect 6 0 7 0;
#X connect 7 0 8 0;
#X connect 8 0 1 0;
#X connect 8 0 27 0;
#X connect 9 0 7 0;
#X connect 10 0 7 0;
#X connect 11 0 7 0;
#X connect 12 0 7 0;
#X connect 13 0 7 0;
#X connect 14 0 7 0;
#X connect 15 0 7 0;
#X connect 16 0 7 0;
#X connect 17 0 7 0;
#X connect 18 0 7 0;
#X connect 19 0 7 0;
#X connect 20 0 7 0;
#X connect 21 0 7 0;
#X connect 22 0 7 0;
#X connect 23 0 7 0;
#X connect 24 0 2 0;
#X connect 27 0 26 0;
#X connect 28 0 29 0;
#X connect 29 0 30 0;
#X connect 30 0 33 0;
#X connect 33 0 52 0;
#X connect 33 1 53 1;
#X connect 35 0 51 0;
#X connect 36 0 51 0;
#X connect 37 0 51 0;
#X connect 38 0 51 0;
#X connect 39 0 51 0;
#X connect 40 0 51 0;
#X connect 41 0 51 0;
#X connect 42 0 51 0;
#X connect 43 0 51 0;
#X connect 44 0 51 0;
#X connect 45 0 51 0;
#X connect 46 0 51 0;
#X connect 47 0 51 0;
#X connect 48 0 51 0;
#X connect 49 0 51 0;
#X connect 50 0 51 0;
#X connect 51 0 53 0;
#X connect 52 0 38 0;
#X connect 52 1 35 0;
#X connect 52 2 36 0;
#X connect 52 3 37 0;
#X connect 52 4 39 0;
#X connect 52 5 40 0;
#X connect 52 6 41 0;
#X connect 52 7 42 0;
#X connect 52 8 43 0;
#X connect 52 9 44 0;
#X connect 52 10 45 0;
#X connect 52 11 46 0;
#X connect 52 12 47 0;
#X connect 52 13 48 0;
#X connect 52 14 49 0;
#X connect 52 15 50 0;
#X connect 53 0 59 0;
#X connect 54 0 56 0;
#X connect 55 0 69 0;
#X connect 55 0 60 0;
#X connect 56 0 61 0;
#X connect 57 0 54 0;
#X connect 58 0 57 0;
#X connect 58 0 71 0;
#X connect 59 0 58 0;
#X connect 60 0 59 1;
#X connect 61 0 62 0;
#X connect 62 0 69 0;
#X connect 63 0 2 0;
#X connect 64 0 63 1;
#X connect 64 0 27 1;
#X connect 65 0 67 0;
#X connect 66 0 65 0;
#X connect 67 0 58 0;
#X connect 68 0 54 0;
#X connect 69 0 54 0;
#X connect 71 0 70 0;
#X connect 72 0 71 1;
