#N struct 1010-symarray float x array symbols 1010-sym;
#N struct 1010-sym symbol name float on;
#N struct 1096-symarray float x array symbols 1096-sym;
#N struct 1096-sym symbol name float on;
#N struct 1183-symarray float x array symbols 1183-sym;
#N struct 1183-sym symbol name float on;
#N canvas 206 41 1041 680 10;
#X declare -path .;
#X declare -path rj;
#X declare -path ../pd;
#X declare -path ../../pd;
#X declare -path .;
#X declare -path rj;
#X declare -path .;
#X declare -path rj;
#X declare -path .;
#X declare -path rj;
#X declare -path .;
#X declare -path rj;
#X declare -path .;
#X declare -path rj;
#X declare -path .;
#X declare -path rj;
#X declare -path .;
#X declare -path rj;
#X declare -path .;
#X declare -path rj;
#N canvas 0 22 588 274 LICENSE 0;
#X text 79 84 (c) 2008 Reality Jockey;
#X text 57 36 Released under the GNU General Public License ver. 3
or later. See the file LICENSE.txt for the full text.;
#X restore 571 80 pd LICENSE;
#X obj 29 46 soundinput;
#X obj 128 539 soundoutput;
#X obj 571 109 OVERVIEW;
#X obj 571 24 declare -path .;
#X obj 571 52 declare -path rj;
#X text 639 108 of all RjDj abstractions;
#N canvas 0 22 448 215 more_paths 0;
#X text 27 19 You can add more paths here as well \, like the path
to soundoutput.pd on your computer etc.;
#X obj 36 57 declare -path ../pd;
#X obj 35 79 declare -path ../../pd;
#X restore 707 52 pd more_paths;
#X text 27 23 Feral - _main.pd;
#X obj 52 100 e_agc;
#N canvas 0 22 1199 820 background 0;
#X obj 267 842 outlet~;
#X obj 348 842 outlet~;
#X obj 196 193 samplerate~;
#X obj 196 218 select 22050 44100;
#X obj 319 239 t b;
#X msg 257 285 open samples/ambience/44100;
#X msg 196 262 open samples/ambience/22050;
#X msg 139 283 size \$1;
#X obj 349 312 route size;
#X obj 349 339 unpack;
#X obj 196 312 u_samplekit ambience;
#X obj 451 371 m_sm2ms;
#X msg 504 612 chunk-size \$1;
#X obj 353 644 sig~ 0;
#X obj 363 58 loadbang;
#X msg 609 613 volume \$1;
#X msg 363 144 0;
#X floatatom 363 181 5 0 0 0 - - -;
#X obj 475 586 samplerate~;
#X msg 475 633 sr \$1;
#X msg 696 341 table ambience-\$1;
#X obj 272 23 inlet;
#X obj 384 581 - 1000;
#X obj 384 560 swap 15000;
#X floatatom 384 602 9 0 0 0 - - -;
#X obj 308 540 random 513;
#X obj 308 561 / 512;
#X obj 308 622 * 1;
#X obj 268 453 t b b b b;
#X obj 732 369 bng 15 250 50 0 empty empty empty 17 7 0 10 -262144
-1 -1;
#X obj 230 541 random 513;
#X obj 230 562 / 512;
#X obj 230 655 * 1;
#X obj 267 704 sig~ 0;
#X obj 486 524 loadbang;
#N canvas 0 22 450 300 thru 0;
#X obj 40 40 inlet;
#X obj 40 61 outlet;
#X connect 0 0 1 0;
#X restore 696 612 pd thru;
#N canvas 0 22 450 300 thru 0;
#X obj 40 40 inlet;
#X obj 40 61 outlet;
#X connect 0 0 1 0;
#X restore 732 398 pd thru;
#N canvas 0 22 450 300 thru 0;
#X obj 40 40 inlet;
#X obj 40 61 outlet;
#X connect 0 0 1 0;
#X restore 925 360 pd thru;
#X obj 267 789 *~ 0.25;
#X obj 348 790 *~ 0.75;
#X obj 377 813 *~ 0.25;
#X obj 301 813 *~ 0.75;
#X obj 385 512 500;
#X obj 715 474 change;
#X obj 609 575 dbtorms;
#X text 685 193 wander through various soundscape backgrounds;
#X obj 717 581 outlet;
#X obj 217 756 env~;
#X floatatom 217 777 5 0 0 0 - - -;
#X obj 363 91 t b b;
#X obj 363 114 delay 200;
#X msg 431 184 0;
#X floatatom 640 512 5 0 0 0 - - -;
#X obj 609 533 * 40;
#X floatatom 617 596 5 0 0 0 - - -;
#X obj 267 762 *~;
#X obj 354 762 *~;
#X obj 603 693 vline~;
#X obj 738 426 delay 500;
#X msg 718 497 0 450;
#X msg 754 521 1;
#X msg 706 520 1 450;
#N canvas 0 22 450 300 thru 0;
#X obj 40 40 inlet;
#X obj 40 61 outlet;
#X connect 0 0 1 0;
#X restore 718 543 pd thru;
#X obj 559 532 sel 0;
#X obj 605 446 bng 15 250 50 0 empty empty empty 17 7 0 10 -262144
-1 -1;
#X obj 559 512 change;
#X obj 609 489 c_drunk 7 2;
#X obj 609 512 / 6;
#X msg 687 427 set 1;
#X obj 385 540 * 10;
#X obj 549 788 threshold~ 0.25 5 0.25 5;
#X obj 609 553 + 40;
#X obj 715 450 random 4;
#X obj 353 669 s_playchunks ambience-0;
#X obj 267 729 s_playchunks ambience-0;
#X connect 2 0 3 0;
#X connect 3 0 6 0;
#X connect 3 1 5 0;
#X connect 3 2 4 0;
#X connect 4 0 6 0;
#X connect 5 0 10 0;
#X connect 6 0 10 0;
#X connect 7 0 10 0;
#X connect 8 0 9 0;
#X connect 9 1 11 0;
#X connect 10 1 8 0;
#X connect 11 0 28 0;
#X connect 11 0 23 1;
#X connect 12 0 73 1;
#X connect 12 0 74 1;
#X connect 13 0 73 0;
#X connect 14 0 49 0;
#X connect 15 0 73 1;
#X connect 15 0 74 1;
#X connect 16 0 17 0;
#X connect 17 0 20 0;
#X connect 17 0 7 0;
#X connect 18 0 19 0;
#X connect 19 0 73 1;
#X connect 19 0 74 1;
#X connect 20 0 35 0;
#X connect 22 0 24 0;
#X connect 23 0 22 0;
#X connect 23 1 22 1;
#X connect 24 0 27 1;
#X connect 24 0 32 1;
#X connect 25 0 26 0;
#X connect 26 0 27 0;
#X connect 27 0 13 0;
#X connect 28 1 66 0;
#X connect 28 2 25 0;
#X connect 28 2 30 0;
#X connect 28 3 42 0;
#X connect 29 0 36 0;
#X connect 30 0 31 0;
#X connect 31 0 32 0;
#X connect 32 0 33 0;
#X connect 33 0 74 0;
#X connect 34 0 12 0;
#X connect 34 0 18 0;
#X connect 34 0 60 0;
#X connect 35 0 73 1;
#X connect 35 0 74 1;
#X connect 36 0 58 0;
#X connect 36 0 59 0;
#X connect 36 0 68 0;
#X connect 37 0 28 0;
#X connect 38 0 0 0;
#X connect 39 0 1 0;
#X connect 40 0 1 0;
#X connect 41 0 0 0;
#X connect 42 0 12 0;
#X connect 42 0 69 0;
#X connect 43 0 17 0;
#X connect 44 0 15 0;
#X connect 44 0 54 0;
#X connect 47 0 48 0;
#X connect 49 0 50 0;
#X connect 49 1 2 0;
#X connect 49 1 51 0;
#X connect 50 0 16 0;
#X connect 51 0 66 0;
#X connect 53 0 71 0;
#X connect 55 0 38 0;
#X connect 55 0 39 0;
#X connect 56 0 40 0;
#X connect 56 0 41 0;
#X connect 57 0 55 1;
#X connect 57 0 56 1;
#X connect 58 0 61 0;
#X connect 58 0 72 0;
#X connect 59 0 62 0;
#X connect 60 0 62 0;
#X connect 61 0 62 0;
#X connect 62 0 57 0;
#X connect 63 0 36 0;
#X connect 64 0 66 0;
#X connect 65 0 63 0;
#X connect 66 0 52 0;
#X connect 66 0 65 0;
#X connect 66 0 67 0;
#X connect 67 0 53 0;
#X connect 68 0 66 0;
#X connect 69 0 23 0;
#X connect 70 0 37 0;
#X connect 71 0 44 0;
#X connect 71 0 46 0;
#X connect 72 0 43 0;
#X connect 73 0 56 0;
#X connect 73 1 70 0;
#X connect 74 0 47 0;
#X connect 74 0 55 0;
#X restore 154 322 pd background;
#N canvas 110 323 924 617 critters 0;
#X obj 51 40 inlet~;
#X obj 236 464 outlet~;
#X obj 430 463 outlet~;
#X obj 272 38 inlet;
#N canvas 0 22 1356 664 cleanup 0;
#X obj 183 82 hip~ 200;
#X obj 183 106 hip~ 200;
#X obj 183 59 inlet~;
#X obj 256 160 fiddle~ 1024 1 20;
#X floatatom 256 181 5 0 0 0 - - -;
#X floatatom 372 180 5 0 0 0 - - -;
#X obj 257 235 mtof;
#X floatatom 406 261 5 0.5 15 2 Q - -;
#X floatatom 257 215 5 0 0 2 freq - -;
#X obj 183 285 e_beequad;
#X msg 300 236 bang;
#X msg 147 175 interp 20;
#X obj 183 420 outlet~;
#X obj 372 200 > 50;
#X obj 397 225 tgl 15 0 empty empty empty 17 7 0 10 -262144 -1 -1 1
1;
#X text 461 -28 where the sounds are captured (but not played);
#X obj 634 213 t b b b;
#X msg 611 257 start;
#X obj 634 150 c_pass 20;
#X obj 657 258 + 8;
#X obj 738 234 + 1;
#X obj 707 234 % 8;
#X obj 634 192 bng 15 250 50 0 empty empty empty 17 7 0 10 -262144
-1 -1;
#X floatatom 657 279 5 0 0 0 - - -;
#X obj 657 362 bng 15 250 50 0 empty empty empty 17 7 0 10 -262144
-1 -1;
#X msg 657 298 table animalvox-\$1;
#X obj 657 234 int -1;
#X obj 634 170 m_speedlimit 10000;
#X msg 662 333 normalize 1;
#X obj 473 333 varicord animalvox-- 3000;
#X obj 227 379 delwrite~ \$0-rec-delay 350;
#X obj 473 306 delread~ \$0-rec-delay 300;
#X obj 595 78 delay 300;
#X obj 595 32 select 0 1;
#X msg 595 55 stop;
#X text 675 28 we record sounds at least 300ms long;
#X obj 595 9 change;
#X obj 183 131 e_agc;
#X obj 41 72 g_nbx comp1;
#X obj 41 101 g_nbx comp2;
#X obj 41 133 g_nbx att;
#X obj 41 164 g_nbx rel;
#X obj 41 196 g_nbx makeup;
#X obj 41 257 g_hsl dry 0 1;
#X obj 41 226 g_nhsl thresh 0 120;
#X obj 183 337 e_dynproc \$0-tamer;
#X msg 75 32 dry 0 \, thresh 90 \, comp1 5;
#X obj 75 8 loadbang;
#X obj 183 314 *~ 3;
#X obj 257 259 u_bandpass2q 1000 3;
#X text 106 315 10db boost;
#X obj 397 115 + 0;
#X floatatom 397 134 5 0 0 0 - - -;
#X floatatom 468 41 5 0 0 0 - - -;
#X obj 468 59 swap 1;
#X obj 468 80 -;
#X obj 393 89 * 0.001;
#X obj 432 114 * 0.999;
#X text 478 113 long-running mean;
#X text 402 201 decay evaluator;
#X obj 299 199 unpack;
#X obj 397 155 + 6;
#X connect 0 0 1 0;
#X connect 1 0 37 0;
#X connect 2 0 0 0;
#X connect 3 0 4 0;
#X connect 3 2 60 0;
#X connect 3 3 5 0;
#X connect 4 0 8 0;
#X connect 5 0 13 0;
#X connect 6 0 49 0;
#X connect 7 0 49 1;
#X connect 8 0 6 0;
#X connect 9 0 48 0;
#X connect 10 0 49 0;
#X connect 11 0 49 0;
#X connect 13 0 14 0;
#X connect 13 0 36 0;
#X connect 16 0 17 0;
#X connect 16 1 26 0;
#X connect 17 0 29 1;
#X connect 18 0 27 0;
#X connect 19 0 23 0;
#X connect 20 0 21 0;
#X connect 21 0 26 1;
#X connect 21 0 19 0;
#X connect 22 0 16 0;
#X connect 23 0 25 0;
#X connect 25 0 29 1;
#X connect 26 0 20 0;
#X connect 27 0 22 0;
#X connect 28 0 29 1;
#X connect 29 1 24 0;
#X connect 29 1 28 0;
#X connect 31 0 29 0;
#X connect 32 0 18 0;
#X connect 33 0 34 0;
#X connect 33 1 32 0;
#X connect 34 0 32 0;
#X connect 36 0 33 0;
#X connect 37 0 3 0;
#X connect 37 0 9 0;
#X connect 38 0 39 0;
#X connect 39 0 40 0;
#X connect 40 0 41 0;
#X connect 41 0 42 0;
#X connect 42 0 44 0;
#X connect 43 0 45 2;
#X connect 44 0 43 0;
#X connect 45 0 12 0;
#X connect 45 0 30 0;
#X connect 46 0 38 0;
#X connect 47 0 46 0;
#X connect 47 0 11 0;
#X connect 48 0 45 0;
#X connect 49 0 9 1;
#X connect 51 0 52 0;
#X connect 51 0 57 0;
#X connect 52 0 61 0;
#X connect 53 0 54 0;
#X connect 53 0 56 1;
#X connect 54 0 55 0;
#X connect 55 0 57 1;
#X connect 56 0 51 0;
#X connect 57 0 51 1;
#X connect 60 1 56 0;
#X connect 61 0 13 1;
#X restore 51 67 pd cleanup;
#X obj 278 427 e_reverb \$0-birdspace-left;
#X obj 480 341 loadbang;
#X msg 257 195 new-lang;
#X msg 281 218 start-soon;
#X msg 306 236 new-sentence;
#X obj 339 -1 loadbang;
#X obj 414 145 u_samplekit animalvox;
#X msg 414 95 open samples/vox/22050;
#X obj 414 26 samplerate~;
#X obj 414 51 select 22050 44100;
#X obj 535 72 t b;
#X msg 475 118 open samples/vox/44100;
#X obj 481 6 bng 15 250 50 0 empty empty empty 17 7 0 10 -262144 -1
-1;
#X obj 320 122 delay 1000;
#X msg 480 385 amp 90 \, hall 88 \, freq 3000 \, damp 90 \, dry 0;
#X obj 296 274 feralcall 2;
#X obj 189 259 feralcall 1;
#X connect 0 0 4 0;
#X connect 5 0 1 0;
#X connect 5 0 2 0;
#X connect 6 0 19 0;
#X connect 7 0 20 1;
#X connect 7 0 21 1;
#X connect 8 0 20 1;
#X connect 8 0 21 1;
#X connect 9 0 20 1;
#X connect 9 0 21 1;
#X connect 10 0 13 0;
#X connect 10 0 7 0;
#X connect 10 0 18 0;
#X connect 12 0 11 0;
#X connect 13 0 14 0;
#X connect 14 0 12 0;
#X connect 14 1 16 0;
#X connect 14 2 15 0;
#X connect 15 0 12 0;
#X connect 16 0 11 0;
#X connect 17 0 13 0;
#X connect 18 0 8 0;
#X connect 19 0 5 1;
#X connect 20 0 1 0;
#X connect 20 1 2 0;
#X connect 20 1 5 0;
#X connect 21 0 5 0;
#X connect 21 0 1 0;
#X connect 21 1 2 0;
#X restore 52 322 pd critters;
#N canvas 0 22 1334 820 foreground 0;
#X obj 347 898 outlet~;
#X obj 428 898 outlet~;
#X obj 196 193 samplerate~;
#X obj 196 218 select 22050 44100;
#X obj 319 239 t b;
#X msg 139 283 size \$1;
#X obj 349 312 route size;
#X obj 349 339 unpack;
#X obj 451 371 m_sm2ms;
#X msg 504 612 chunk-size \$1;
#X obj 353 644 sig~ 0;
#X obj 363 58 loadbang;
#X msg 753 613 volume \$1;
#X msg 363 144 0;
#X floatatom 363 181 5 0 0 0 - - -;
#X obj 475 586 samplerate~;
#X msg 475 633 sr \$1;
#X obj 272 23 inlet;
#X obj 391 581 - 1000;
#X obj 391 560 swap 15000;
#X floatatom 391 602 9 0 0 0 - - -;
#X obj 308 622 * 1;
#X obj 275 399 t b b b b;
#X obj 650 369 bng 15 250 50 0 empty empty empty 17 7 0 10 -262144
-1 -1;
#X obj 486 524 loadbang;
#N canvas 0 22 450 300 thru 0;
#X obj 40 40 inlet;
#X obj 40 61 outlet;
#X connect 0 0 1 0;
#X restore 614 612 pd thru;
#N canvas 0 22 450 300 thru 0;
#X obj 40 40 inlet;
#X obj 40 61 outlet;
#X connect 0 0 1 0;
#X restore 650 398 pd thru;
#N canvas 0 22 450 300 thru 0;
#X obj 40 40 inlet;
#X obj 40 61 outlet;
#X connect 0 0 1 0;
#X restore 102 379 pd thru;
#X obj 633 474 change;
#X obj 753 575 dbtorms;
#X obj 635 581 outlet;
#X obj 363 91 t b b;
#X obj 363 114 delay 200;
#X msg 431 184 0;
#X floatatom 784 512 5 0 0 0 - - -;
#X floatatom 761 596 5 0 0 0 - - -;
#X obj 354 762 *~;
#X obj 672 688 vline~;
#X obj 656 426 delay 500;
#X msg 636 497 0 450;
#X msg 672 521 1;
#X msg 624 520 1 450;
#N canvas 0 22 450 300 thru 0;
#X obj 40 40 inlet;
#X obj 40 61 outlet;
#X connect 0 0 1 0;
#X restore 672 553 pd thru;
#X obj 703 532 sel 0;
#X obj 749 446 bng 15 250 50 0 empty empty empty 17 7 0 10 -262144
-1 -1;
#X obj 703 512 change;
#X obj 753 489 c_drunk 7 2;
#X obj 753 512 / 6;
#X msg 605 427 set 1;
#X msg 196 262 open samples/fore/22050;
#X msg 257 285 open samples/fore/44100;
#X msg 565 333 table fore-\$1;
#X text 435 150 wander through various melodies;
#X obj 354 786 e_pan \$0;
#X msg 245 592 reverse \$1;
#X obj 245 570 tgl 15 0 empty empty empty 17 7 0 10 -262144 -1 -1 1
1;
#X floatatom 268 655 9 0 0 0 - - -;
#X obj 112 792 bng 15 250 50 0 empty empty empty 17 7 0 10 -262144
-1 -1;
#X obj 391 537 * 10;
#X floatatom 441 585 5 0 0 0 - - -;
#X floatatom 475 393 9 0 0 0 - - -;
#X obj 196 312 u_samplekit fore;
#X obj 391 516 200;
#X floatatom 872 548 5 0 0 0 - - -;
#X obj 841 548 / 6;
#N canvas 0 22 450 300 thru 0;
#X obj 40 40 inlet;
#X obj 40 61 outlet;
#X connect 0 0 1 0;
#X restore 795 465 pd thru;
#X floatatom 766 444 5 0 0 0 - - -;
#X obj 245 525 sel 0;
#X obj 245 504 random 4;
#X obj 308 537 random 33;
#X obj 308 558 / 32;
#X msg 170 667 0;
#X obj 85 695 m_minorscale 0 2 1;
#X obj 74 416 bng 15 250 50 0 empty empty empty 17 7 0 10 -262144 -1
-1;
#X obj 85 517 sin;
#X obj 85 498 * 1.5708;
#X obj 85 672 int;
#X text 93 419 favour octave tranposes;
#X obj 85 437 random 1025;
#X obj 85 457 - 512;
#X obj 85 478 / 512;
#X obj 85 653 * 7.5;
#X msg 128 715 transposition \$1;
#X obj 85 627 +;
#X obj 85 560 *;
#X obj 85 584 *;
#X obj 85 537 t f f f;
#X obj 753 553 + 40;
#X floatatom 85 716 5 0 0 0 - - -;
#X obj 515 779 loadbang;
#X obj 27 758 threshold~ 0.25 5 0.25 5;
#X obj 841 525 c_drunk 7 4;
#X obj 753 533 * 40;
#X obj 633 450 random 3;
#X obj 447 846 e_pongpong;
#X msg 516 818 del 1500 \, fpitch 70 \, feedback 0.9 \, freq 0.3;
#X obj 353 669 s_playchunks fore-0;
#X connect 2 0 3 0;
#X connect 3 0 49 0;
#X connect 3 1 50 0;
#X connect 3 2 4 0;
#X connect 4 0 49 0;
#X connect 5 0 61 0;
#X connect 6 0 7 0;
#X connect 7 1 8 0;
#X connect 8 0 22 0;
#X connect 8 0 19 1;
#X connect 8 0 60 0;
#X connect 9 0 96 1;
#X connect 10 0 96 0;
#X connect 11 0 31 0;
#X connect 12 0 96 1;
#X connect 13 0 14 0;
#X connect 14 0 51 0;
#X connect 14 0 5 0;
#X connect 15 0 16 0;
#X connect 16 0 96 1;
#X connect 18 0 20 0;
#X connect 19 0 18 0;
#X connect 19 1 18 1;
#X connect 19 1 59 0;
#X connect 20 0 21 1;
#X connect 21 0 10 0;
#X connect 21 0 56 0;
#X connect 22 1 65 0;
#X connect 22 1 68 0;
#X connect 22 1 78 0;
#X connect 22 2 69 0;
#X connect 22 3 62 0;
#X connect 23 0 26 0;
#X connect 24 0 9 0;
#X connect 24 0 15 0;
#X connect 24 0 40 0;
#X connect 25 0 96 1;
#X connect 26 0 38 0;
#X connect 26 0 39 0;
#X connect 26 0 48 0;
#X connect 27 0 22 0;
#X connect 28 0 14 0;
#X connect 29 0 12 0;
#X connect 29 0 35 0;
#X connect 31 0 32 0;
#X connect 31 1 2 0;
#X connect 31 1 33 0;
#X connect 32 0 13 0;
#X connect 33 0 46 0;
#X connect 36 0 53 0;
#X connect 36 0 94 0;
#X connect 37 0 36 1;
#X connect 38 0 41 0;
#X connect 38 0 93 0;
#X connect 39 0 42 0;
#X connect 40 0 42 0;
#X connect 41 0 42 0;
#X connect 42 0 37 0;
#X connect 43 0 26 0;
#X connect 44 0 46 0;
#X connect 45 0 43 0;
#X connect 46 0 34 0;
#X connect 46 0 45 0;
#X connect 46 0 47 0;
#X connect 47 0 92 0;
#X connect 48 0 46 0;
#X connect 49 0 61 0;
#X connect 50 0 61 0;
#X connect 51 0 25 0;
#X connect 53 0 0 0;
#X connect 53 1 1 0;
#X connect 54 0 96 1;
#X connect 55 0 54 0;
#X connect 58 0 19 0;
#X connect 61 1 6 0;
#X connect 62 0 9 0;
#X connect 62 0 58 0;
#X connect 64 0 53 1;
#X connect 65 0 46 0;
#X connect 65 0 91 0;
#X connect 66 0 46 0;
#X connect 67 0 55 0;
#X connect 68 0 67 0;
#X connect 69 0 70 0;
#X connect 70 0 21 0;
#X connect 71 0 72 0;
#X connect 72 0 82 0;
#X connect 72 0 88 0;
#X connect 73 0 78 0;
#X connect 74 0 86 0;
#X connect 75 0 74 0;
#X connect 76 0 72 0;
#X connect 78 0 79 0;
#X connect 79 0 80 0;
#X connect 80 0 75 0;
#X connect 81 0 76 0;
#X connect 82 0 96 1;
#X connect 83 0 81 0;
#X connect 84 0 85 0;
#X connect 85 0 83 0;
#X connect 86 0 84 0;
#X connect 86 1 84 1;
#X connect 86 2 85 1;
#X connect 87 0 29 0;
#X connect 87 0 30 0;
#X connect 89 0 95 0;
#X connect 90 0 27 0;
#X connect 90 0 57 0;
#X connect 91 0 63 0;
#X connect 91 0 64 0;
#X connect 92 0 87 0;
#X connect 93 0 28 0;
#X connect 94 0 0 0;
#X connect 94 1 1 0;
#X connect 95 0 94 1;
#X connect 96 0 36 0;
#X connect 96 1 90 0;
#X restore 259 321 pd foreground;
#X text 383 204 todo: * base pitchd and volume for each sentence *
other voice types (trills?);
#X obj 487 311 u_loadmeter;
#X msg 485 276 1;
#X obj 486 363 list trim;
#X obj 486 342 list prepend text;
#X obj 452 393 g_showtext 200 200 1;
#X obj 485 255 loadbang;
#X obj 52 382 g_vol2;
#X obj 154 382 g_vol2;
#X obj 259 382 g_vol2;
#X obj 162 264 loadbang;
#X msg 230 293 100;
#X msg 112 293 84;
#X msg 322 292 94;
#X connect 1 0 9 0;
#X connect 1 1 9 0;
#X connect 9 0 11 0;
#X connect 10 0 21 0;
#X connect 10 1 21 1;
#X connect 11 0 20 0;
#X connect 11 1 20 1;
#X connect 12 0 22 0;
#X connect 12 1 22 1;
#X connect 14 0 17 0;
#X connect 15 0 14 0;
#X connect 15 0 18 0;
#X connect 16 0 18 1;
#X connect 17 0 16 0;
#X connect 19 0 15 0;
#X connect 20 0 2 0;
#X connect 20 1 2 1;
#X connect 21 0 2 0;
#X connect 21 1 2 1;
#X connect 22 0 2 0;
#X connect 22 1 2 1;
#X connect 23 0 25 0;
#X connect 23 0 24 0;
#X connect 23 0 26 0;
#X connect 24 0 21 2;
#X connect 25 0 20 2;
#X connect 26 0 22 2;
