#N canvas 93 22 637 601 10;
#X declare -path .;
#X declare -path rj;
#X obj 40 288 *~;
#X obj 40 368 outlet~;
#X obj 43 19 inlet;
#X obj 343 43 declare -path .;
#X obj 343 71 declare -path rj;
#X obj 40 248 delread~ \$1;
#X obj 40 140 float 100;
#X obj 43 42 change;
#X obj 173 202 line~;
#X obj 243 25 loadbang;
#X msg 243 46 1;
#X obj 43 84 t f b b;
#X text 28 421 cheap declicking delread. don't hit it too often or
it never update;
#X msg 126 176 1 50;
#X msg 173 177 0 50;
#X obj 40 115 del 51;
#X connect 0 0 1 0;
#X connect 2 0 7 0;
#X connect 5 0 0 0;
#X connect 6 0 5 0;
#X connect 7 0 11 0;
#X connect 8 0 0 1;
#X connect 9 0 10 0;
#X connect 10 0 8 0;
#X connect 11 0 6 1;
#X connect 11 1 14 0;
#X connect 11 2 15 0;
#X connect 13 0 8 0;
#X connect 14 0 8 0;
#X connect 15 0 6 0;
#X connect 15 0 13 0;
