#N canvas 0 22 1050 824 10;
#X declare -path .;
#X declare -path rj;
#X obj 83 36 inlet~;
#X obj 537 -270 inlet;
#X obj 537 -247 list trim;
#X obj 537 -224 route save;
#X obj 537 -166 outlet;
#X obj 86 398 outlet~;
#X obj 145 398 outlet~;
#X obj 537 -194 u_loader e_pongpong-\$1 \$0;
#X obj 339 121 * 0.785398;
#X obj 229 168 sin;
#X obj 153 168 cos;
#X obj 339 91 c_lfo pongpong-\$0 0.1 100 tri;
#X obj 153 188 lop~ 1;
#X obj 229 188 lop~ 1;
#X obj 409 188 metro;
#X obj 434 164 tgl 15 0 empty empty empty 17 7 0 10 -262144 -1 -1 1
1;
#X text 421 117 poor man's panner;
#X obj 83 105 delwrite~ \$0-\$1-del 5000;
#X obj 600 -108 u_dispatch \$0 feedback;
#X obj 600 -62 u_dispatch \$0 basedur;
#X obj 600 -85 u_dispatch \$0 fpitch;
#X obj 145 217 *~;
#X obj 87 216 *~;
#X obj 600 -133 u_dispatch \$0 freq;
#X obj 640 29 declare -path .;
#X obj 640 57 declare -path rj;
#X obj 409 209 snapshot~;
#X floatatom 409 230 5 0 0 0 - - -;
#X obj 339 45 r \$0-freq;
#X msg 339 66 freq \$1;
#X obj 231 237 *~ 0.9;
#N canvas 0 22 450 300 thru 0;
#X obj 171 79 inlet~;
#X obj 171 100 outlet~;
#X connect 0 0 1 0;
#X restore 275 44 pd thru;
#X obj 270 215 r \$0-feedback;
#X obj 87 147 delread~ \$0-\$1-del;
#X obj 87 168 lop~ 500;
#X obj 600 -157 u_dispatch \$0 del;
#X obj 18 106 r \$0-del;
#X obj 163 14 r \$0-fpitch;
#X obj 163 35 mtof;
#X connect 0 0 17 0;
#X connect 1 0 2 0;
#X connect 2 0 3 0;
#X connect 3 0 7 0;
#X connect 3 1 35 0;
#X connect 7 0 4 0;
#X connect 8 0 9 0;
#X connect 8 0 10 0;
#X connect 9 0 13 0;
#X connect 10 0 12 0;
#X connect 11 0 8 0;
#X connect 12 0 22 1;
#X connect 13 0 21 1;
#X connect 13 0 26 0;
#X connect 14 0 26 0;
#X connect 15 0 14 0;
#X connect 18 0 20 0;
#X connect 20 0 19 0;
#X connect 21 0 6 0;
#X connect 22 0 5 0;
#X connect 23 0 18 0;
#X connect 26 0 27 0;
#X connect 28 0 29 0;
#X connect 29 0 11 0;
#X connect 30 0 31 0;
#X connect 31 0 17 0;
#X connect 32 0 30 1;
#X connect 33 0 34 0;
#X connect 34 0 21 0;
#X connect 34 0 22 0;
#X connect 34 0 30 0;
#X connect 35 0 23 0;
#X connect 36 0 33 0;
#X connect 37 0 38 0;
#X connect 38 0 34 1;
