#N canvas 0 58 1360 814 10;
#X declare -path .;
#X declare -path rj;
#X declare -path .;
#X declare -path rj;
#X floatatom 734 326 6 5 1000 2 slice_size - -;
#X obj 228 -89 inlet~;
#X obj 749 562 outlet~;
#X obj 805 562 outlet~;
#X obj 943 -187 inlet;
#X obj 943 -164 list trim;
#X obj 943 -141 route save;
#X obj 943 -83 outlet;
#X msg 734 381 chunk-size \$1;
#X msg 668 352 transposition \$1;
#X obj 1033 -165 declare -path .;
#X obj 1033 -137 declare -path rj;
#X obj 889 235 loadbang;
#X obj 749 538 e_pan \$0;
#X msg 972 397 table animalvox-\$1;
#X obj 843 428 bng 15 250 50 0 empty empty empty 17 7 0 10 -262144
-1 -1;
#X text 191 -111 Feral - feralcall.pd;
#N canvas 147 199 734 526 syntax 0;
#N canvas 0 22 450 300 enumerate 0;
#N canvas 473 338 450 300 count 0;
#X obj 131 154 f 0;
#X obj 163 154 + 1;
#X msg 178 122 0;
#X obj 131 183 outlet;
#X obj 131 59 inlet;
#X obj 131 96 b;
#X obj 178 58 inlet;
#X obj 178 98 b;
#X connect 0 0 1 0;
#X connect 0 0 3 0;
#X connect 1 0 0 1;
#X connect 2 0 0 1;
#X connect 4 0 5 0;
#X connect 5 0 0 0;
#X connect 6 0 7 0;
#X connect 7 0 2 0;
#X restore 233 170 pd count;
#X obj 152 128 t a b;
#X obj 152 196 list prepend;
#X obj 152 72 inlet;
#X obj 152 228 outlet;
#X obj 286 74 inlet;
#X connect 0 0 2 1;
#X connect 1 0 2 0;
#X connect 1 1 0 0;
#X connect 2 0 4 0;
#X connect 3 0 1 0;
#X connect 5 0 0 1;
#X restore 246 198 pd enumerate;
#X msg 66 165 bang;
#X obj 204 143 t b b;
#X obj 246 3 until;
#X obj 246 143 u_cocollect;
#X msg 246 171 4 0 0 0 \, 4 6 4 5 \, 4 4 6 1 \, 4 2 6 2 \,;
#X obj 115 -31 bng 15 250 50 0 empty empty empty 17 7 0 10 -262144
-1 -1;
#X obj 223 -38 t b b b;
#X obj 129 221 c_markov 4;
#X obj 211 -71 inlet;
#X obj -9 156 inlet;
#X text -51 140 trigger a letter;
#X obj 125 263 outlet;
#X obj 94 99 inlet;
#X text 59 76 start a seq;
#X obj 97 120 t b;
#X msg 97 141 1;
#X obj 302 -73 loadbang;
#X msg 246 -18 3;
#X obj 246 23 t b b b b;
#X text 296 -40 this generates a 4x4 markov transition matrix \, with
state 0 being always capturing;
#X msg 222 46 4 0 0 0;
#X msg 126 183 set \$1;
#X obj 301 87 random 8;
#X obj 339 66 random 8;
#X obj 268 67 random 8;
#X obj 246 112 pack 4 0 0 0;
#X connect 0 0 8 1;
#X connect 1 0 8 0;
#X connect 2 0 5 0;
#X connect 2 1 0 1;
#X connect 3 0 19 0;
#X connect 4 0 5 0;
#X connect 5 0 0 0;
#X connect 6 0 7 0;
#X connect 7 0 2 0;
#X connect 7 1 18 0;
#X connect 7 2 4 1;
#X connect 7 2 21 0;
#X connect 8 0 12 0;
#X connect 9 0 7 0;
#X connect 10 0 8 0;
#X connect 13 0 15 0;
#X connect 15 0 16 0;
#X connect 16 0 12 0;
#X connect 16 0 22 0;
#X connect 17 0 7 0;
#X connect 18 0 3 0;
#X connect 19 0 26 0;
#X connect 19 1 25 0;
#X connect 19 2 23 0;
#X connect 19 3 24 0;
#X connect 21 0 4 0;
#X connect 22 0 8 0;
#X connect 23 0 26 2;
#X connect 24 0 26 3;
#X connect 25 0 26 1;
#X connect 26 0 4 0;
#X restore 669 -13 pd syntax;
#N canvas 194 109 946 568 semantics 0;
#X obj 390 141 send \$0-vel;
#X obj 264 141 send \$0-loc;
#X obj 529 163 send \$0-pitch;
#X obj 640 140 send \$0-len;
#X obj 739 173 loadbang;
#X obj 392 370 table \$0-vel;
#X obj 278 371 table \$0-loc;
#X obj 500 376 table \$0-pitch;
#X obj 633 376 table \$0-len;
#X obj 245 197 inlet;
#X obj 504 -109 inlet;
#X obj 390 339 outlet;
#X obj 277 272 tabread \$0-loc;
#X obj 277 339 outlet;
#X obj 504 339 outlet;
#X obj 634 340 outlet;
#X text 219 179 recall a state;
#X text 494 -125 gen new states;
#X obj 634 272 tabread \$0-len;
#X obj 504 272 tabread \$0-pitch;
#X obj 390 272 tabread \$0-vel;
#X obj 358 248 sel 0;
#X obj 245 248 sel 0;
#X obj 476 248 sel 0;
#X obj 602 248 sel 0;
#X obj 390 98 u_listmap;
#X obj 390 75 u_listrandom 17 4;
#X obj 463 100 / 16;
#X obj 263 -16 bng 15 250 50 0 empty empty empty 17 7 0 10 -262144
-1 -1;
#X obj 264 98 u_listmap;
#X obj 264 76 u_listrandom 17 4;
#X obj 336 98 / 16;
#X obj 640 101 u_listmap;
#X obj 718 101 / 16;
#X obj 640 78 u_listrandom 17 4;
#X obj 529 36 u_wrandom;
#X obj 529 122 u_collect;
#X obj 594 -10 loadbang;
#X obj 455 -108 bng 15 250 50 0 empty empty empty 17 7 0 10 -262144
-1 -1;
#X obj 529 16 until;
#X msg 529 -4 4;
#X obj 529 56 - 3;
#X msg 529 142 0 3 3 0;
#X obj 504 -27 t b b b;
#X text 519 -50 (pitch is tricky);
#X msg 733 195 resize 4 \, bounds 0 1 3 -1;
#X msg 735 218 resize 4 \, bounds 0 3 3 -3;
#X obj 529 76 pow 3;
#X floatatom 218 325 5 0 0 0 - - -;
#X floatatom 218 293 5 0 0 0 - - -;
#X obj 277 314 prop_perturb 0.01;
#X obj 390 293 prop_perturb 0.1;
#X obj 504 313 prop_perturb 0.1;
#X floatatom 792 293 5 0 0 0 - - -;
#X floatatom 704 331 5 0 0 0 - - -;
#X obj 529 98 / 9;
#X obj 634 293 prop_perturb 0.1;
#X msg 594 11 2 1 1 4 1 1 2;
#X connect 4 0 45 0;
#X connect 4 0 46 0;
#X connect 9 0 21 0;
#X connect 9 0 22 0;
#X connect 9 0 23 0;
#X connect 9 0 24 0;
#X connect 10 0 26 0;
#X connect 10 0 30 0;
#X connect 10 0 43 0;
#X connect 10 0 34 0;
#X connect 12 0 49 0;
#X connect 12 0 50 0;
#X connect 18 0 53 0;
#X connect 18 0 56 0;
#X connect 19 0 52 0;
#X connect 20 0 51 0;
#X connect 21 1 20 0;
#X connect 22 1 12 0;
#X connect 23 1 19 0;
#X connect 24 1 18 0;
#X connect 25 0 0 0;
#X connect 25 1 27 0;
#X connect 26 0 25 0;
#X connect 27 0 25 1;
#X connect 28 0 26 0;
#X connect 29 0 1 0;
#X connect 29 1 31 0;
#X connect 30 0 29 0;
#X connect 31 0 29 1;
#X connect 32 0 3 0;
#X connect 32 1 33 0;
#X connect 33 0 32 1;
#X connect 34 0 32 0;
#X connect 35 0 41 0;
#X connect 36 0 42 0;
#X connect 37 0 57 0;
#X connect 38 0 43 0;
#X connect 39 0 35 0;
#X connect 40 0 39 0;
#X connect 41 0 47 0;
#X connect 42 0 2 0;
#X connect 43 0 42 0;
#X connect 43 1 40 0;
#X connect 43 2 36 1;
#X connect 45 0 0 0;
#X connect 45 0 1 0;
#X connect 45 0 3 0;
#X connect 46 0 2 0;
#X connect 47 0 55 0;
#X connect 50 0 48 0;
#X connect 50 0 13 0;
#X connect 51 0 11 0;
#X connect 52 0 14 0;
#X connect 55 0 36 0;
#X connect 56 0 15 0;
#X connect 56 0 54 0;
#X connect 57 0 35 1;
#X restore 596 105 pd semantics;
#X obj 776 -76 bng 15 250 50 0 empty empty new_sentence 17 7 0 10 -262144
-1 -1;
#X obj 590 -77 bng 15 250 50 0 empty empty new_word 17 7 0 10 -262144
-1 -1;
#X floatatom 669 12 5 0 0 0 - - -;
#X floatatom 609 139 5 0 0 0 - - -;
#X floatatom 506 138 5 0 0 0 - - -;
#X floatatom 668 141 5 0 0 0 - - -;
#X floatatom 734 135 5 0 0 0 - - -;
#X obj 669 -77 bng 15 250 50 0 empty empty new_language 17 7 0 10 -262144
-1 -1;
#X obj 734 210 swap 2;
#X obj 734 238 pow 2;
#X obj 506 159 * 1000;
#X msg 609 375 volume \$1;
#X msg 779 296 300;
#N canvas 0 22 450 300 thru 0;
#X obj 175 85 inlet;
#X obj 175 106 outlet;
#X connect 0 0 1 0;
#X restore 1080 117 pd thru;
#X obj 669 77 sel 0;
#X floatatom 402 47 8 0 0 0 - - -;
#X obj 402 -35 / 100;
#X obj 402 -14 swap 2;
#X obj 402 7 pow 1;
#X obj 669 56 change;
#X obj 402 64 delay 1000;
#X obj 943 -111 u_loader feralcall-\$1 \$0;
#X msg 972 354 0;
#X obj 731 -35 t b b b;
#X obj 988 308 random 16;
#X floatatom 972 375 5 0 0 0 - - -;
#X obj 402 -56 random 600;
#X obj 1115 262 random 513;
#X obj 1115 283 / 512;
#X obj 889 354 samplerate~;
#X msg 889 375 sr \$1;
#X obj 1100 158 outlet;
#X obj 659 -111 route new-lang new-sentence start-soon;
#X obj 517 -23 c_pass 20;
#X obj 1173 128 random 513;
#X obj 1173 149 / 512;
#X floatatom 1173 169 5 0 0 0 - - -;
#X obj 669 36 t f f b b;
#X obj 776 -58 t b b b;
#X text 1180 102 distance;
#X obj 1115 305 - 0.5;
#X obj 1115 326 * 1;
#X obj 1115 347 + 0.5;
#X obj 749 491 lop~;
#X obj 1173 368 + 48;
#X obj 1173 389 mtof;
#X obj 609 244 * 1;
#X obj 749 513 hip~ 80;
#X obj 1063 190 * 0.5;
#X obj 1063 210 + 0.75;
#X obj 506 432 s_playchunk animalvox-0;
#X obj 862 286 bng 15 250 50 0 empty empty empty 17 7 0 10 -262144
-1 -1;
#X obj 844 332 threshold~ 0.5 5 0.5 5;
#X obj 402 28 * 500;
#X obj 712 77 > 0;
#X obj 620 185 t b f;
#X obj 609 206 * 1;
#X obj 692 104 change;
#X floatatom 753 106 5 0 0 0 - - -;
#X obj 609 265 min 1.1;
#X obj 1173 347 * 70;
#X obj 609 291 * 10;
#X obj 816 134 random 65;
#X obj 816 221 swap 2;
#X obj 816 242 pow;
#X floatatom 826 265 5 0 0 0 - - -;
#X obj 816 155 / 64;
#X text 819 117 base length;
#X obj 734 189 * 3;
#X obj 734 259 * 200;
#X obj 816 176 * 4;
#X obj 816 198 - 2;
#X obj 734 281 * 200;
#X text 881 159 base transpose;
#X obj 678 167 random 129;
#X obj 678 188 / 128;
#X obj 678 209 * 10;
#X obj 678 231 - 5;
#X floatatom 678 252 5 0 0 0 - - -;
#X obj 668 291 + 0;
#X obj 1009 13 switch~;
#X obj 1011 -84 u_dispatch \$0 enable;
#X obj 1009 -32 r \$0-enable;
#X connect 0 0 8 0;
#X connect 4 0 5 0;
#X connect 5 0 6 0;
#X connect 6 0 40 0;
#X connect 6 1 51 0;
#X connect 6 1 100 0;
#X connect 8 0 69 1;
#X connect 9 0 69 1;
#X connect 12 0 41 0;
#X connect 12 0 31 0;
#X connect 12 0 48 0;
#X connect 13 0 2 0;
#X connect 13 1 3 0;
#X connect 14 0 69 1;
#X connect 17 0 21 0;
#X connect 18 0 23 0;
#X connect 18 1 22 0;
#X connect 18 2 24 0;
#X connect 18 3 25 0;
#X connect 19 0 57 0;
#X connect 20 0 17 0;
#X connect 21 0 56 0;
#X connect 22 0 75 0;
#X connect 23 0 29 0;
#X connect 24 0 98 0;
#X connect 25 0 87 0;
#X connect 26 0 42 0;
#X connect 27 0 28 0;
#X connect 27 1 28 1;
#X connect 28 0 88 0;
#X connect 29 0 69 0;
#X connect 30 0 69 1;
#X connect 31 0 0 0;
#X connect 32 0 17 0;
#X connect 33 0 45 0;
#X connect 33 0 50 0;
#X connect 33 0 52 0;
#X connect 34 0 39 0;
#X connect 35 0 36 0;
#X connect 36 0 37 0;
#X connect 36 1 37 1;
#X connect 37 0 72 0;
#X connect 38 0 33 0;
#X connect 39 0 19 0;
#X connect 40 0 7 0;
#X connect 41 0 44 0;
#X connect 42 0 17 2;
#X connect 42 1 18 1;
#X connect 42 2 43 0;
#X connect 42 2 81 0;
#X connect 42 2 93 0;
#X connect 43 0 44 0;
#X connect 44 0 14 0;
#X connect 45 0 35 0;
#X connect 46 0 47 0;
#X connect 47 0 59 0;
#X connect 48 0 49 0;
#X connect 49 0 69 1;
#X connect 51 0 26 0;
#X connect 51 1 19 0;
#X connect 51 2 45 0;
#X connect 52 0 26 0;
#X connect 53 0 54 0;
#X connect 54 0 55 0;
#X connect 55 0 60 1;
#X connect 55 0 67 0;
#X connect 55 0 79 0;
#X connect 56 0 18 0;
#X connect 56 0 38 0;
#X connect 56 1 73 0;
#X connect 57 0 17 1;
#X connect 57 1 46 0;
#X connect 57 2 53 0;
#X connect 59 0 60 0;
#X connect 60 0 61 0;
#X connect 61 0 13 1;
#X connect 62 0 66 0;
#X connect 63 0 64 0;
#X connect 64 0 62 1;
#X connect 65 0 78 0;
#X connect 66 0 13 0;
#X connect 67 0 68 0;
#X connect 68 0 65 1;
#X connect 69 0 62 0;
#X connect 69 1 71 0;
#X connect 70 0 48 0;
#X connect 71 0 15 0;
#X connect 71 0 32 0;
#X connect 72 0 34 0;
#X connect 73 0 76 0;
#X connect 73 0 77 0;
#X connect 74 0 75 0;
#X connect 74 1 75 1;
#X connect 75 0 65 0;
#X connect 76 0 74 0;
#X connect 78 0 80 0;
#X connect 79 0 63 0;
#X connect 80 0 30 0;
#X connect 81 0 85 0;
#X connect 82 0 83 0;
#X connect 82 1 83 1;
#X connect 83 0 84 0;
#X connect 83 0 91 1;
#X connect 85 0 89 0;
#X connect 87 0 27 0;
#X connect 88 0 91 0;
#X connect 89 0 90 0;
#X connect 90 0 82 0;
#X connect 91 0 0 0;
#X connect 93 0 94 0;
#X connect 94 0 95 0;
#X connect 95 0 96 0;
#X connect 96 0 97 0;
#X connect 96 0 98 1;
#X connect 98 0 9 0;
#X connect 101 0 99 0;
