#N canvas 0 130 800 545 10;
#X declare -path .;
#X declare -path rj;
#N canvas 0 112 854 788 playsamp 0;
#X obj 195 340 +~ 1;
#X obj 195 411 *~;
#X obj 195 362 +~;
#X obj 254 255 samphold~;
#X obj 195 194 samphold~;
#X obj 195 251 *~;
#X obj 384 288 -~ 0.5;
#X obj 384 312 *~ 0.5;
#X obj 384 335 cos~;
#X obj 254 31 inlet~;
#X obj 411 169 inlet~;
#X obj 195 460 outlet~;
#X obj 195 159 r \$0-chunk-size-samples;
#X text 253 10 read-pt;
#X text 420 158 phase;
#X obj 83 362 r \$0-set-table;
#X obj 442 93 pow;
#X obj 442 47 t b f;
#X msg 442 70 2;
#X obj 442 -6 r \$0-transposition;
#X obj 442 23 / 12;
#X obj 284 195 samphold~;
#X obj 195 224 *~;
#X obj 436 359 samphold~;
#X obj 436 329 r \$0-volume;
#X obj 195 432 *~;
#X floatatom 495 23 5 0 0 0 - - -;
#X obj 195 387 tabread4~ \$1;
#X obj 598 49 r \$0-reverse;
#X obj 366 257 samphold~;
#X obj 272 286 *~;
#X obj 254 311 +~;
#X obj 492 48 * 2;
#X obj 492 70 swap 1;
#X obj 492 91 -;
#X obj 442 144 * 1;
#X text 99 223 chunk length;
#X obj 452 122 t b f;
#X obj 333 -20 loadbang;
#X msg 369 17 0;
#X obj 277 71 r \$0-sr;
#X obj 277 92 * 0.001;
#X obj 254 122 *~ 22.05;
#X connect 0 0 2 0;
#X connect 1 0 25 0;
#X connect 2 0 27 0;
#X connect 3 0 31 0;
#X connect 4 0 22 0;
#X connect 5 0 0 0;
#X connect 6 0 7 0;
#X connect 7 0 8 0;
#X connect 8 0 1 1;
#X connect 9 0 42 0;
#X connect 10 0 4 1;
#X connect 10 0 5 1;
#X connect 10 0 3 1;
#X connect 10 0 6 0;
#X connect 10 0 21 1;
#X connect 10 0 23 1;
#X connect 10 0 29 1;
#X connect 12 0 4 0;
#X connect 15 0 27 0;
#X connect 16 0 35 0;
#X connect 17 0 18 0;
#X connect 17 1 16 1;
#X connect 18 0 16 0;
#X connect 19 0 20 0;
#X connect 19 0 26 0;
#X connect 20 0 17 0;
#X connect 21 0 22 1;
#X connect 22 0 5 0;
#X connect 22 0 30 0;
#X connect 23 0 25 1;
#X connect 24 0 23 0;
#X connect 25 0 11 0;
#X connect 27 0 1 0;
#X connect 28 0 29 0;
#X connect 28 0 32 0;
#X connect 29 0 30 1;
#X connect 30 0 31 1;
#X connect 31 0 2 1;
#X connect 32 0 33 0;
#X connect 33 0 34 0;
#X connect 33 1 34 1;
#X connect 34 0 37 0;
#X connect 35 0 21 0;
#X connect 37 0 35 0;
#X connect 37 1 35 1;
#X connect 38 0 39 0;
#X connect 39 0 20 0;
#X connect 40 0 41 0;
#X connect 41 0 42 1;
#X connect 42 0 3 0;
#X restore 45 193 pd playsamp;
#X obj 546 356 s \$0-set-table;
#X obj 546 287 r \$0-table;
#X obj 331 68 inlet;
#X obj 331 106 u_dispatch \$0 table;
#X obj 331 129 u_dispatch \$0 sr;
#X obj 331 152 u_dispatch \$0 chunk-size;
#X obj 335 245 r \$0-chunk-size;
#X obj 349 278 * 0.01;
#X obj 349 301 s \$0-chunk-size-sec;
#X obj 349 324 r \$0-sr;
#X obj 349 358 * 0.01;
#X obj 349 381 t b f;
#X obj 335 414 * 220.5;
#X obj 335 445 s \$0-chunk-size-samples;
#X obj 331 176 u_dispatch \$0 transposition;
#X obj 45 117 inlet~;
#X text 46 99 read-pt;
#N canvas 0 22 514 440 two-phases 0;
#X obj 87 202 /;
#X obj 87 226 phasor~;
#X text 125 201 loop frequency;
#X obj 88 363 outlet~;
#X obj 171 279 +~ 0.5;
#X obj 172 305 wrap~;
#X text 232 266 second phase signal;
#X text 232 286 out of phase from;
#X text 231 307 first one;
#X obj 172 363 outlet~;
#X obj 87 92 r \$0-chunk-size-sec;
#X obj 87 118 swap 1;
#X connect 0 0 1 0;
#X connect 1 0 4 0;
#X connect 1 0 3 0;
#X connect 4 0 5 0;
#X connect 5 0 9 0;
#X connect 10 0 11 0;
#X connect 11 0 0 0;
#X connect 11 1 0 1;
#X restore 119 118 pd two-phases;
#X obj 45 238 hip~ 5;
#X obj 45 264 outlet~;
#N canvas 347 541 768 257 defaults 0;
#X obj 60 40 loadbang;
#X msg 60 67 0;
#X obj 60 92 s \$0-transposition;
#X obj 260 38 loadbang;
#X obj 260 90 s \$0-chunk-size;
#X msg 260 65 5;
#X obj 382 37 loadbang;
#X msg 382 64 0;
#X obj 382 89 s \$0-reverse;
#X connect 0 0 1 0;
#X connect 1 0 2 0;
#X connect 3 0 5 0;
#X connect 5 0 4 0;
#X connect 6 0 7 0;
#X connect 7 0 8 0;
#X restore 128 361 pd defaults;
#N canvas 228 198 627 317 LICENSE-BSD 0;
#X text 121 56 This software is copyrighted by Miller Puckette \, Reality
Jockey Ltd. and others. The terms (the "Standard Improved BSD License")
apply to all files associated with the software unless explicitly disclaimed
in individual files.;
#X text 123 148 See the file LICENSE.txt for the full license text.
;
#X restore 488 28 pd LICENSE-BSD;
#X obj 141 153 outlet~;
#X obj 608 24 declare -path .;
#X obj 608 52 declare -path rj;
#X text 18 34 differs from the inbuilt one in that it supplies sample
and hold on the transposition too;
#X obj 377 68 u_loader s_playchunk-\$1 \$0;
#X obj 331 198 u_dispatch \$0 volume;
#X floatatom 413 414 9 0 0 0 - - -;
#X obj 546 331 list trim;
#X obj 546 309 list prepend set;
#X floatatom 656 264 5 0 0 0 - - -;
#X obj 331 220 u_dispatch \$0 reverse;
#N canvas 0 112 854 788 playsamp 0;
#X obj 195 340 +~ 1;
#X obj 195 411 *~;
#X obj 195 362 +~;
#X obj 254 255 samphold~;
#X obj 195 194 samphold~;
#X obj 195 251 *~;
#X obj 384 288 -~ 0.5;
#X obj 384 312 *~ 0.5;
#X obj 384 335 cos~;
#X obj 254 31 inlet~;
#X obj 411 169 inlet~;
#X obj 195 460 outlet~;
#X obj 195 159 r \$0-chunk-size-samples;
#X text 253 10 read-pt;
#X text 420 158 phase;
#X obj 83 362 r \$0-set-table;
#X obj 442 93 pow;
#X obj 442 47 t b f;
#X msg 442 70 2;
#X obj 442 -6 r \$0-transposition;
#X obj 442 23 / 12;
#X obj 284 195 samphold~;
#X obj 195 224 *~;
#X obj 436 359 samphold~;
#X obj 436 329 r \$0-volume;
#X obj 195 432 *~;
#X floatatom 495 23 5 0 0 0 - - -;
#X obj 195 387 tabread4~ \$1;
#X obj 598 49 r \$0-reverse;
#X obj 366 257 samphold~;
#X obj 272 286 *~;
#X obj 254 311 +~;
#X obj 492 48 * 2;
#X obj 492 70 swap 1;
#X obj 492 91 -;
#X obj 442 144 * 1;
#X text 99 223 chunk length;
#X obj 598 78 tgl 15 0 empty empty empty 17 7 0 10 -262144 -1 -1 0
1;
#X obj 452 122 t b f;
#X obj 333 -20 loadbang;
#X msg 369 17 0;
#X obj 277 71 r \$0-sr;
#X obj 277 92 * 0.001;
#X obj 254 122 *~ 22.05;
#X connect 0 0 2 0;
#X connect 1 0 25 0;
#X connect 2 0 27 0;
#X connect 3 0 31 0;
#X connect 4 0 22 0;
#X connect 5 0 0 0;
#X connect 6 0 7 0;
#X connect 7 0 8 0;
#X connect 8 0 1 1;
#X connect 9 0 43 0;
#X connect 10 0 4 1;
#X connect 10 0 5 1;
#X connect 10 0 3 1;
#X connect 10 0 6 0;
#X connect 10 0 21 1;
#X connect 10 0 23 1;
#X connect 10 0 29 1;
#X connect 12 0 4 0;
#X connect 15 0 27 0;
#X connect 16 0 35 0;
#X connect 17 0 18 0;
#X connect 17 1 16 1;
#X connect 18 0 16 0;
#X connect 19 0 20 0;
#X connect 19 0 26 0;
#X connect 20 0 17 0;
#X connect 21 0 22 1;
#X connect 22 0 5 0;
#X connect 22 0 30 0;
#X connect 23 0 25 1;
#X connect 24 0 23 0;
#X connect 25 0 11 0;
#X connect 27 0 1 0;
#X connect 28 0 29 0;
#X connect 28 0 32 0;
#X connect 28 0 37 0;
#X connect 29 0 30 1;
#X connect 30 0 31 1;
#X connect 31 0 2 1;
#X connect 32 0 33 0;
#X connect 33 0 34 0;
#X connect 33 1 34 1;
#X connect 34 0 38 0;
#X connect 35 0 21 0;
#X connect 38 0 35 0;
#X connect 38 1 35 1;
#X connect 39 0 40 0;
#X connect 40 0 20 0;
#X connect 41 0 42 0;
#X connect 42 0 43 1;
#X connect 43 0 3 0;
#X restore 133 193 pd playsamp;
#X connect 0 0 19 0;
#X connect 2 0 31 0;
#X connect 3 0 4 0;
#X connect 4 0 5 0;
#X connect 5 0 6 0;
#X connect 6 0 15 0;
#X connect 7 0 8 0;
#X connect 7 0 13 0;
#X connect 8 0 9 0;
#X connect 10 0 11 0;
#X connect 11 0 12 0;
#X connect 12 0 13 0;
#X connect 12 1 13 1;
#X connect 13 0 14 0;
#X connect 13 0 29 0;
#X connect 15 0 28 0;
#X connect 16 0 0 0;
#X connect 16 0 34 0;
#X connect 18 0 0 1;
#X connect 18 0 23 0;
#X connect 18 1 34 1;
#X connect 19 0 20 0;
#X connect 28 0 33 0;
#X connect 30 0 1 0;
#X connect 31 0 30 0;
#X connect 32 0 31 0;
#X connect 34 0 19 0;
