#N canvas -1573 230 800 545 10;
#X declare -path .;
#X declare -path rj;
#N canvas -941 -85 854 788 playsamp 1;
#X obj 195 411 *~;
#X obj 195 362 +~;
#X obj 333 340 -~ 0.5;
#X obj 333 364 *~ 0.5;
#X obj 333 387 cos~;
#X obj 331 286 inlet~;
#X obj 195 460 outlet~;
#X obj 127 105 r \$0-chunk-size-samples;
#X text 359 -7 read-pt;
#X text 343 242 phase;
#X obj 83 362 r \$0-set-table;
#X obj 442 93 pow;
#X obj 442 47 t b f;
#X msg 442 70 2;
#X obj 474 -34 r \$0-transposition;
#X obj 442 23 / 12;
#X obj 195 256 *~;
#X obj 444 367 r \$0-volume;
#X floatatom 495 23 5 0 0 0 - - -;
#X obj 195 387 tabread4~ \$1;
#X obj 652 -14 r \$0-reverse;
#X obj 492 48 * 2;
#X obj 492 70 swap 1;
#X obj 492 91 -;
#X obj 442 144 * 1;
#X text 99 260 chunk length;
#X obj 598 78 tgl 15 0 empty empty empty 17 7 0 10 -262144 -1 -1 0
1;
#X floatatom 525 275 5 0 0 0 - - -;
#X obj 452 122 t b f;
#X obj 423 -59 loadbang;
#X msg 424 -31 0;
#X obj 383 54 r \$0-sr;
#X obj 383 75 * 0.001;
#X obj 749 160 inlet;
#X text 740 141 new ramp;
#X obj 213 195 float;
#X floatatom 97 232 9 0 0 0 - - -;
#X obj 245 171 * 1;
#X obj 245 150 t b f;
#X obj 360 14 inlet;
#X obj 360 105 * 22.05;
#X obj 261 211 float;
#X obj 289 257 t b f;
#X obj 261 278 + 0;
#X obj 289 235 * 0;
#X obj 442 -1 float;
#X floatatom 520 127 5 0 0 0 - - -;
#X obj 195 432 *~ 1;
#X floatatom 620 28 5 0 0 0 - - -;
#X floatatom 404 123 5 0 0 0 - - -;
#X floatatom 469 166 5 0 0 0 - - -;
#X obj 412 389 float;
#X obj 620 8 float;
#X floatatom 273 172 9 0 0 0 - - -;
#X obj 213 234 * 20000;
#X floatatom 344 257 5 0 0 0 - - -;
#X obj 360 143 + 1;
#X floatatom 412 410 5 0 0 0 - - -;
#X obj 745 193 bng 15 250 50 0 empty empty empty 17 7 0 10 -262144
-1 -1;
#X obj 111 526 env~;
#X floatatom 111 547 5 0 0 0 - - -;
#X connect 0 0 47 0;
#X connect 1 0 19 0;
#X connect 2 0 3 0;
#X connect 3 0 4 0;
#X connect 4 0 0 1;
#X connect 5 0 2 0;
#X connect 5 0 16 0;
#X connect 7 0 37 0;
#X connect 10 0 19 0;
#X connect 11 0 24 0;
#X connect 11 0 38 0;
#X connect 11 0 46 0;
#X connect 11 0 49 0;
#X connect 12 0 13 0;
#X connect 12 1 11 1;
#X connect 13 0 11 0;
#X connect 14 0 18 0;
#X connect 14 0 45 1;
#X connect 15 0 12 0;
#X connect 16 0 1 0;
#X connect 17 0 51 1;
#X connect 19 0 0 0;
#X connect 20 0 52 1;
#X connect 21 0 22 0;
#X connect 22 0 23 0;
#X connect 22 1 23 1;
#X connect 23 0 28 0;
#X connect 24 0 27 0;
#X connect 24 0 50 0;
#X connect 24 0 54 1;
#X connect 28 0 24 0;
#X connect 28 1 24 1;
#X connect 29 0 30 0;
#X connect 30 0 48 0;
#X connect 30 0 45 0;
#X connect 31 0 32 0;
#X connect 32 0 40 1;
#X connect 33 0 35 0;
#X connect 33 0 41 0;
#X connect 33 0 45 0;
#X connect 33 0 48 0;
#X connect 33 0 51 0;
#X connect 33 0 52 0;
#X connect 33 0 58 0;
#X connect 35 0 36 0;
#X connect 35 0 44 0;
#X connect 35 0 54 0;
#X connect 37 0 35 1;
#X connect 37 0 53 0;
#X connect 38 0 37 0;
#X connect 38 1 37 1;
#X connect 39 0 40 0;
#X connect 40 0 56 0;
#X connect 41 0 43 0;
#X connect 42 0 43 0;
#X connect 42 1 43 1;
#X connect 43 0 1 1;
#X connect 44 0 42 0;
#X connect 44 0 55 0;
#X connect 45 0 15 0;
#X connect 47 0 6 0;
#X connect 47 0 59 0;
#X connect 48 0 21 0;
#X connect 48 0 44 1;
#X connect 48 0 26 0;
#X connect 51 0 47 1;
#X connect 51 0 57 0;
#X connect 52 0 48 0;
#X connect 54 0 16 1;
#X connect 56 0 41 1;
#X connect 59 0 60 0;
#X restore 45 193 pd playsamp;
#X obj 546 356 s \$0-set-table;
#X obj 546 287 r \$0-table;
#X obj 331 68 inlet;
#X obj 331 106 u_dispatch \$0 table;
#X obj 331 129 u_dispatch \$0 sr;
#X obj 331 152 u_dispatch \$0 chunk-size;
#X obj 335 245 r \$0-chunk-size;
#X obj 349 301 s \$0-chunk-size-sec;
#X obj 349 324 r \$0-sr;
#X obj 349 381 t b f;
#X obj 335 445 s \$0-chunk-size-samples;
#X obj 331 176 u_dispatch \$0 transposition;
#X text 59 101 read-pt;
#X obj 45 235 hip~ 5;
#X obj 45 264 outlet~;
#N canvas 347 541 768 257 defaults 0;
#X obj 60 40 loadbang;
#X msg 60 67 0;
#X obj 60 92 s \$0-transposition;
#X obj 260 38 loadbang;
#X obj 260 90 s \$0-chunk-size;
#X obj 382 37 loadbang;
#X msg 382 64 0;
#X obj 382 89 s \$0-reverse;
#X msg 260 65 50;
#X connect 0 0 1 0;
#X connect 1 0 2 0;
#X connect 3 0 8 0;
#X connect 5 0 6 0;
#X connect 6 0 7 0;
#X connect 8 0 4 0;
#X restore 128 361 pd defaults;
#N canvas 228 198 627 317 LICENSE-BSD 0;
#X text 121 56 This software is copyrighted by Miller Puckette \, Reality
Jockey Ltd. and others. The terms (the "Standard Improved BSD License")
apply to all files associated with the software unless explicitly disclaimed
in individual files.;
#X text 123 148 See the file LICENSE.txt for the full license text.
;
#X restore 488 28 pd LICENSE-BSD;
#X obj 141 153 outlet~;
#X obj 608 24 declare -path .;
#X obj 608 52 declare -path rj;
#X text 18 34 differs from the inbuilt one in that it supplies sample
and hold on the transposition too;
#X obj 377 68 u_loader s_playchunk-\$1 \$0;
#X obj 331 198 u_dispatch \$0 volume;
#X obj 546 331 list trim;
#X obj 546 309 list prepend set;
#X obj 331 220 u_dispatch \$0 reverse;
#N canvas 0 22 514 440 phase 0;
#X obj 87 181 outlet~;
#X obj 87 70 r \$0-chunk-size-sec;
#X obj 87 153 line~;
#X obj 14 66 loadbang;
#X floatatom 87 112 5 0 0 0 - - -;
#X obj 198 160 outlet;
#X obj 198 111 expr~ $v1>=1;
#X obj 198 132 threshold~ 0.5 5 0.5 5;
#X msg 87 130 0 \, 1 \$1;
#X floatatom 150 90 5 0 0 0 - - -;
#X obj 87 91 * 1000;
#X msg 14 87 1;
#X connect 1 0 9 0;
#X connect 1 0 10 0;
#X connect 2 0 6 0;
#X connect 2 0 0 0;
#X connect 3 0 11 0;
#X connect 4 0 8 0;
#X connect 6 0 7 0;
#X connect 7 0 4 0;
#X connect 7 0 5 0;
#X connect 8 0 2 0;
#X connect 10 0 4 0;
#X connect 11 0 10 0;
#X restore 119 118 pd phase;
#X obj 200 153 outlet;
#X obj 58 119 inlet;
#X obj 799 335 bng 15 250 50 0 empty empty empty 17 7 0 10 -262144
-1 -1;
#X obj 109 241 env~;
#X floatatom 109 262 5 0 0 0 - - -;
#X obj 221 125 bng 15 250 50 0 empty empty empty 17 7 0 10 -262144
-1 -1;
#X obj 349 278 * 0.001;
#X obj 349 358 * 0.001;
#X obj 335 414 * 22.05;
#X text 94 485 note that unlike s_playchunks and s_playolap \, which
are in centiseconds for some fucking reason \, the chunk size here
is in milliseconds;
#X connect 0 0 14 0;
#X connect 0 0 31 0;
#X connect 2 0 25 0;
#X connect 3 0 4 0;
#X connect 4 0 5 0;
#X connect 5 0 6 0;
#X connect 6 0 12 0;
#X connect 7 0 34 0;
#X connect 7 0 36 0;
#X connect 9 0 35 0;
#X connect 10 0 36 0;
#X connect 10 1 36 1;
#X connect 12 0 23 0;
#X connect 14 0 15 0;
#X connect 23 0 26 0;
#X connect 24 0 1 0;
#X connect 25 0 24 0;
#X connect 27 0 0 0;
#X connect 27 0 18 0;
#X connect 27 1 28 0;
#X connect 27 1 0 2;
#X connect 27 1 33 0;
#X connect 29 0 0 1;
#X connect 31 0 32 0;
#X connect 34 0 8 0;
#X connect 35 0 10 0;
#X connect 36 0 11 0;
