#N canvas 0 22 450 300 10;
#X obj 85 71 inlet~;
#X obj 85 92 *~ 1;
#X obj 261 62 dbtorms;
#X obj 85 113 outlet~;
#X obj 146 71 inlet~;
#X obj 146 92 *~ 1;
#X obj 146 113 outlet~;
#X obj 260 37 inlet;
#X obj 355 44 float \$1;
#X obj 355 17 loadbang;
#X connect 0 0 1 0;
#X connect 1 0 3 0;
#X connect 2 0 1 1;
#X connect 2 0 5 1;
#X connect 4 0 5 0;
#X connect 5 0 6 0;
#X connect 7 0 2 0;
#X connect 8 0 2 0;
#X connect 9 0 8 0;
