#N canvas 47 23 1263 735 10;
#X declare -path .;
#X declare -path rj;
#X obj 75 23 soundinput;
#X obj 73 544 soundoutput;
#X obj 571 108 OVERVIEW;
#X obj 571 24 declare -path .;
#X obj 571 52 declare -path rj;
#X obj 75 80 +~;
#X obj 219 186 < 1;
#X floatatom 219 207 0 0 0 0 - - -;
#X msg 172 230 auto \$1;
#X obj 73 509 e_dynproc sunlimiter -10;
#X obj 188 544 loadbang;
#X obj 75 142 e_agc;
#X obj 73 396 *~;
#X obj 90 255 lop~ 5;
#X obj 90 232 sig~ 0;
#X text 238 154 0 for listen 1 for speak;
#X obj 228 252 lop~ 5;
#X obj 228 229 sig~ 0;
#X msg 396 32 \; pd dsp 1;
#X floatatom 172 309 8 40 100 1 detected - -;
#X obj 172 282 fiddle~ 1024 1 20 3;
#X obj 73 373 e_forcepitch spoo;
#X msg 396 67 \; pd dsp 0;
#X obj 219 160 tgl 15 0 empty empty empty 17 7 0 10 -262144 -1 -1 0
1;
#X obj 291 316 bng 15 250 50 0 empty empty empty 17 7 0 10 -262144
-1 -1;
#X obj 219 131 metro 1000;
#X obj 551 132 loadbang;
#X floatatom 552 223 5 0 0 0 - - -;
#X obj 552 244 int;
#X floatatom 533 293 5 0 0 0 - - -;
#X obj 552 201 c_frand 2 4.5;
#X obj 467 201 c_frand 2 4.5;
#X floatatom 467 223 5 0 0 0 - - -;
#X obj 467 244 int;
#X obj 533 270 / 1;
#X floatatom 533 364 5 0 0 0 - - -;
#X floatatom 383 223 5 0 0 0 - - -;
#X obj 533 316 ftom;
#X obj 579 316 ftom;
#X obj 552 175 t b b;
#X msg 551 153 bang;
#X msg 579 293 1;
#X obj 533 342 - 0;
#X obj 383 269 expr 1000*pow(10. \, $f1);
#X floatatom 219 102 10 0 0 0 - - -;
#X obj 383 201 c_frand 0 1;
#X floatatom 172 351 8 40 100 1 output - -;
#X text 245 489 should I give everything a fundamental pitch that it
wishes to synchronise to? How about filtering out self and forming
sychronised chords w/ neighbours?;
#X obj 172 330 + 0;
#X obj 143 459 e_agc;
#X obj 191 259 *~;
#X obj 683 315 tabwrite~ \$0-orig;
#X obj 683 368 tabwrite~ \$0-proc;
#X obj 683 214 tgl 15 0 empty empty scope 17 7 1 10 -262144 -1 -1 0
1;
#X obj 683 415 tabwrite~ \$0-diff;
#X obj 683 267 b;
#X msg 716 268 bang;
#X obj 683 240 metro 1300;
#X obj 694 291 r~ \$0-orig~;
#X obj 691 345 r~ \$0-comp~;
#X obj 695 395 r~ \$0-env~;
#N canvas 0 22 450 300 (subpatch) 0;
#X array \$0-orig 22050 float 2;
#X coords 0 1 22050 -1 200 140 1;
#X restore 891 32 graph;
#N canvas 0 22 450 300 (subpatch) 0;
#X array \$0-proc 22050 float 2;
#X coords 0 1 22050 -1 200 140 1;
#X restore 891 192 graph;
#N canvas 0 22 450 300 (subpatch) 0;
#X array \$0-diff 22050 float 2;
#X coords 0 1 22050 -1 200 140 1 0 0;
#X restore 892 360 graph;
#N canvas 0 22 406 309 resize 0;
#X obj 65 129 s \$0-orig;
#X obj 62 162 s \$0-proc;
#X obj 62 190 s \$0-diff;
#X msg 74 99 resize \$1;
#X obj 74 70 inlet;
#X connect 3 0 0 0;
#X connect 3 0 1 0;
#X connect 3 0 2 0;
#X connect 4 0 3 0;
#X restore 742 75 pd resize;
#X msg 750 48 441;
#X msg 742 25 44100;
#X msg 785 48 22050;
#X obj 772 500 vu 15 120 empty compressed 20 -12 1 10 -66577 -1 1 0
;
#X obj 705 500 vu 15 120 empty orig -20 -12 1 10 -66577 -1 1 0;
#N canvas 0 22 390 284 vumeter 0;
#X obj 190 112 env~;
#X obj 190 137 - 100;
#X obj 64 117 env~;
#X obj 64 142 - 100;
#X obj 64 92 r~ \$0-orig~;
#X obj 189 91 r~ \$0-comp~;
#X obj 64 170 outlet;
#X obj 190 163 outlet;
#X connect 0 0 1 0;
#X connect 1 0 7 0;
#X connect 2 0 3 0;
#X connect 3 0 6 0;
#X connect 4 0 2 0;
#X connect 5 0 0 0;
#X restore 704 455 pd vumeter;
#X obj 185 458 s~ \$0-orig~;
#X obj 128 182 s~ \$0-comp~;
#X obj 102 595 s~ \$0-env~;
#X obj 73 422 hip~ 100;
#X obj 75 111 *~ 20;
#X text 116 111 poss too low for AGC;
#X msg 188 568 comp2 1 \, comp1 100 \, rel 200 \, att 20 \, thresh
94 \, makeup 100;
#X connect 0 0 5 0;
#X connect 0 1 5 1;
#X connect 5 0 75 0;
#X connect 6 0 7 0;
#X connect 7 0 17 0;
#X connect 7 0 8 0;
#X connect 8 0 20 0;
#X connect 9 0 1 0;
#X connect 9 0 1 1;
#X connect 9 0 73 0;
#X connect 10 0 77 0;
#X connect 11 0 21 0;
#X connect 11 0 50 0;
#X connect 11 0 72 0;
#X connect 12 0 74 0;
#X connect 13 0 12 1;
#X connect 14 0 13 0;
#X connect 16 0 50 1;
#X connect 17 0 16 0;
#X connect 19 0 48 0;
#X connect 20 0 19 0;
#X connect 20 1 24 0;
#X connect 21 0 12 0;
#X connect 23 0 14 0;
#X connect 23 0 6 0;
#X connect 25 0 23 0;
#X connect 26 0 40 0;
#X connect 27 0 28 0;
#X connect 28 0 34 1;
#X connect 29 0 37 0;
#X connect 30 0 27 0;
#X connect 31 0 32 0;
#X connect 32 0 33 0;
#X connect 33 0 34 0;
#X connect 34 0 29 0;
#X connect 35 0 48 1;
#X connect 36 0 43 0;
#X connect 37 0 42 0;
#X connect 38 0 42 1;
#X connect 39 0 31 0;
#X connect 39 0 30 0;
#X connect 39 0 45 0;
#X connect 39 1 41 0;
#X connect 40 0 39 0;
#X connect 41 0 38 0;
#X connect 42 0 35 0;
#X connect 43 0 44 0;
#X connect 44 0 25 0;
#X connect 45 0 36 0;
#X connect 46 0 21 1;
#X connect 48 0 46 0;
#X connect 49 0 9 0;
#X connect 49 0 9 1;
#X connect 50 0 20 0;
#X connect 53 0 57 0;
#X connect 55 0 51 0;
#X connect 55 0 52 0;
#X connect 55 0 54 0;
#X connect 56 0 55 0;
#X connect 57 0 55 0;
#X connect 58 0 51 0;
#X connect 59 0 52 0;
#X connect 60 0 54 0;
#X connect 65 0 64 0;
#X connect 66 0 64 0;
#X connect 67 0 64 0;
#X connect 70 0 69 0;
#X connect 70 1 68 0;
#X connect 74 0 49 0;
#X connect 74 0 9 0;
#X connect 74 0 9 1;
#X connect 74 0 71 0;
#X connect 75 0 11 0;
#X connect 77 0 9 2;
