#N canvas 47 23 1263 735 10;
#X declare -path .;
#X declare -path rj;
#X obj 75 23 soundinput;
#X obj 73 544 soundoutput;
#X obj 571 79 OVERVIEW;
#X obj 571 24 declare -path .;
#X obj 571 52 declare -path rj;
#X obj 75 80 +~;
#X obj 219 186 < 1;
#X floatatom 219 207 0 0 0 0 - - -;
#X msg 172 230 auto \$1;
#X obj 73 509 e_dynproc sunlimiter -10;
#X obj 188 544 loadbang;
#X obj 75 142 e_agc;
#X obj 73 396 *~;
#X obj 90 255 lop~ 5;
#X obj 90 232 sig~ 0;
#X text 238 154 0 for listen 1 for speak;
#X obj 228 252 lop~ 5;
#X obj 228 229 sig~ 0;
#X msg 396 32 \; pd dsp 1;
#X floatatom 172 309 8 40 100 1 detected - -;
#X obj 172 282 fiddle~ 1024 1 20 3;
#X obj 73 373 e_forcepitch spoo;
#X msg 396 67 \; pd dsp 0;
#X obj 219 160 tgl 15 0 empty empty empty 17 7 0 10 -262144 -1 -1 1
1;
#X obj 291 316 bng 15 250 50 0 empty empty empty 17 7 0 10 -262144
-1 -1;
#X obj 219 131 metro 1000;
#X obj 539 132 loadbang;
#X floatatom 559 223 5 0 0 0 - - -;
#X obj 559 244 int;
#X floatatom 544 293 5 0 0 0 - - -;
#X obj 559 201 c_frand 2 4.5;
#X obj 474 201 c_frand 2 4.5;
#X floatatom 474 223 5 0 0 0 - - -;
#X obj 474 244 int;
#X obj 544 270 / 1;
#X floatatom 544 364 5 0 0 0 - - -;
#X floatatom 387 223 5 0 0 0 - - -;
#X obj 544 316 ftom;
#X obj 590 316 ftom;
#X msg 539 153 bang;
#X msg 590 293 1;
#X obj 544 342 - 0;
#X obj 387 270 expr 1000*pow(10. \, $f1);
#X floatatom 219 102 10 0 0 0 - - -;
#X obj 387 201 c_frand 0 1;
#X floatatom 172 351 8 40 100 1 output - -;
#X text 245 489 should I give everything a fundamental pitch that it
wishes to synchronise to? How about filtering out self and forming
sychronised chords w/ neighbours?;
#X obj 172 330 + 0;
#X obj 143 459 e_agc;
#X obj 191 259 *~;
#X obj 185 458 s~ \$0-orig~;
#X obj 128 182 s~ \$0-comp~;
#X obj 102 595 s~ \$0-env~;
#X obj 73 422 hip~ 100;
#X obj 75 111 *~ 20;
#X text 116 111 poss too low for AGC;
#X msg 188 568 comp2 1 \, comp1 100 \, rel 200 \, att 20 \, thresh
94 \, makeup 100;
#X obj 540 175 t b b b;
#X connect 0 0 5 0;
#X connect 0 1 5 1;
#X connect 5 0 54 0;
#X connect 6 0 7 0;
#X connect 7 0 17 0;
#X connect 7 0 8 0;
#X connect 8 0 20 0;
#X connect 9 0 1 0;
#X connect 9 0 1 1;
#X connect 9 0 52 0;
#X connect 10 0 56 0;
#X connect 11 0 21 0;
#X connect 11 0 49 0;
#X connect 11 0 51 0;
#X connect 12 0 53 0;
#X connect 13 0 12 1;
#X connect 14 0 13 0;
#X connect 16 0 49 1;
#X connect 17 0 16 0;
#X connect 19 0 47 0;
#X connect 20 0 19 0;
#X connect 20 1 24 0;
#X connect 21 0 12 0;
#X connect 23 0 14 0;
#X connect 23 0 6 0;
#X connect 25 0 23 0;
#X connect 26 0 39 0;
#X connect 27 0 28 0;
#X connect 28 0 34 1;
#X connect 29 0 37 0;
#X connect 30 0 27 0;
#X connect 31 0 32 0;
#X connect 32 0 33 0;
#X connect 33 0 34 0;
#X connect 34 0 29 0;
#X connect 35 0 47 1;
#X connect 36 0 42 0;
#X connect 37 0 41 0;
#X connect 38 0 41 1;
#X connect 39 0 57 0;
#X connect 40 0 38 0;
#X connect 41 0 35 0;
#X connect 42 0 43 0;
#X connect 43 0 25 0;
#X connect 44 0 36 0;
#X connect 45 0 21 1;
#X connect 47 0 45 0;
#X connect 48 0 9 0;
#X connect 48 0 9 1;
#X connect 49 0 20 0;
#X connect 53 0 48 0;
#X connect 53 0 9 0;
#X connect 53 0 9 1;
#X connect 53 0 50 0;
#X connect 54 0 11 0;
#X connect 56 0 9 2;
#X connect 57 0 31 0;
#X connect 57 0 44 0;
#X connect 57 1 30 0;
#X connect 57 2 40 0;
