#N canvas 36 58 818 750 10;
#X declare -path .;
#X declare -path rj;
#X obj 571 79 OVERVIEW;
#X obj 571 24 declare -path .;
#X obj 571 52 declare -path rj;
#X obj 75 80 +~;
#X obj 219 186 < 1;
#X floatatom 219 207 0 0 0 0 - - -;
#X obj 73 592 e_dynproc sunlimiter -10;
#X obj 188 627 loadbang;
#X obj 73 497 *~;
#X obj 90 255 lop~ 5;
#X obj 90 232 sig~ 0;
#X text 238 154 0 for listen 1 for speak;
#X msg 396 32 \; pd dsp 1;
#X floatatom 172 331 8 40 100 1 detected - -;
#X obj 172 304 fiddle~ 1024 1 20 3;
#X msg 396 67 \; pd dsp 0;
#X obj 219 160 tgl 15 0 empty empty empty 17 7 0 10 -262144 -1 -1 1
1;
#X obj 280 331 bng 15 250 50 0 empty empty empty 17 7 0 10 -262144
-1 -1;
#X obj 219 131 metro 1000;
#X obj 539 132 loadbang;
#X floatatom 559 223 5 0 0 0 - - -;
#X obj 559 244 int;
#X floatatom 544 293 5 0 0 0 - - -;
#X obj 559 201 c_frand 2 4.5;
#X obj 474 201 c_frand 2 4.5;
#X floatatom 474 223 5 0 0 0 - - -;
#X obj 474 244 int;
#X obj 544 270 / 1;
#X floatatom 544 364 5 0 0 0 - - -;
#X floatatom 387 223 5 0 0 0 - - -;
#X obj 544 316 ftom;
#X obj 590 316 ftom;
#X msg 539 153 bang;
#X msg 590 293 1;
#X obj 544 342 - 0;
#X floatatom 280 98 10 0 0 0 - - -;
#X obj 387 201 c_frand 0 1;
#X floatatom 172 418 8 40 100 1 output - -;
#X text 245 572 should I give everything a fundamental pitch that it
wishes to synchronise to? How about filtering out self and forming
sychronised chords w/ neighbours?;
#X obj 172 397 + 0;
#X obj 143 560 e_agc;
#X obj 73 523 hip~ 100;
#X text 76 -4 poss too low for AGC;
#X msg 188 651 comp2 1 \, comp1 100 \, rel 200 \, att 20 \, thresh
94 \, makeup 100;
#X obj 540 175 t b b b;
#X obj 183 445 mtof;
#X obj 73 469 bp~ 500 10;
#X obj 387 270 expr 1000*pow(10. \, $f1);
#X obj 75 130 *~ 10;
#X obj 230 -43 loadbang;
#X msg 230 -19 comp2 100 \, comp1 1 \, rel 50 \, att 20 \, thresh 35
\, makeup 100;
#X obj 73 444 e_forcepitch poo;
#X obj 75 105 e_dynproc sunlimiterb -10;
#X obj 75 154 e_agc sungaina;
#X msg 191 281 auto \$1;
#X obj 319 373 maximum;
#X obj 391 373 f;
#X obj 358 428 moses 0.5;
#X obj 359 406 > 0;
#X obj 73 60 adc~;
#X obj 74 621 dac~;
#X obj 158 509 tabwrite~ wtf;
#X obj 172 484 metro 100;
#X connect 3 0 52 0;
#X connect 3 0 52 1;
#X connect 4 0 5 0;
#X connect 5 0 54 0;
#X connect 6 0 60 0;
#X connect 6 0 60 1;
#X connect 6 0 61 0;
#X connect 7 0 43 0;
#X connect 8 0 41 0;
#X connect 9 0 8 1;
#X connect 10 0 9 0;
#X connect 13 0 39 0;
#X connect 14 0 13 0;
#X connect 14 1 17 0;
#X connect 16 0 10 0;
#X connect 16 0 4 0;
#X connect 18 0 16 0;
#X connect 18 0 36 0;
#X connect 19 0 32 0;
#X connect 19 0 54 0;
#X connect 20 0 21 0;
#X connect 21 0 27 1;
#X connect 22 0 30 0;
#X connect 23 0 20 0;
#X connect 24 0 25 0;
#X connect 25 0 26 0;
#X connect 26 0 27 0;
#X connect 27 0 22 0;
#X connect 28 0 39 1;
#X connect 29 0 47 0;
#X connect 30 0 34 0;
#X connect 31 0 34 1;
#X connect 32 0 44 0;
#X connect 33 0 31 0;
#X connect 34 0 28 0;
#X connect 35 0 18 1;
#X connect 36 0 29 0;
#X connect 37 0 45 0;
#X connect 37 0 51 1;
#X connect 39 0 37 0;
#X connect 40 0 6 0;
#X connect 40 0 6 1;
#X connect 41 0 40 0;
#X connect 41 0 6 0;
#X connect 41 0 6 1;
#X connect 43 0 6 2;
#X connect 44 0 24 0;
#X connect 44 0 36 0;
#X connect 44 1 23 0;
#X connect 44 2 33 0;
#X connect 45 0 46 1;
#X connect 46 0 8 0;
#X connect 47 0 35 0;
#X connect 48 0 53 0;
#X connect 49 0 50 0;
#X connect 49 0 12 0;
#X connect 49 0 18 0;
#X connect 49 0 62 0;
#X connect 50 0 52 2;
#X connect 51 0 46 0;
#X connect 52 0 48 0;
#X connect 53 0 14 0;
#X connect 53 0 51 0;
#X connect 54 0 14 0;
#X connect 55 0 56 0;
#X connect 55 0 58 0;
#X connect 56 0 55 1;
#X connect 56 0 58 1;
#X connect 58 0 57 0;
#X connect 59 0 3 0;
#X connect 59 1 3 1;
#X connect 62 0 61 0;
