#N struct 1010-symarray float x array symbols 1010-sym;
#N struct 1010-sym symbol name float on;
#N struct 1012-symarray float x array symbols 1012-sym;
#N struct 1012-sym symbol name float on;
#N struct 1020-symarray float x array symbols 1020-sym;
#N struct 1020-sym symbol name float on;
#N struct 6508-symarray float x array symbols 6508-sym;
#N struct 6508-sym symbol name float on;
#N canvas 175 178 1035 652 10;
#X declare -path .;
#X declare -path rj;
#X declare -path ../pd;
#X declare -path ../../pd;
#N canvas 0 22 588 274 LICENSE 0;
#X text 79 84 (c) 2008 Reality Jockey;
#X text 57 36 Released under the GNU General Public License ver. 3
or later. See the file LICENSE.txt for the full text.;
#X restore 571 80 pd LICENSE;
#X obj 71 84 soundinput;
#X obj 76 490 soundoutput;
#X obj 571 109 OVERVIEW;
#X obj 571 24 declare -path .;
#X obj 571 52 declare -path rj;
#X text 639 108 of all RjDj abstractions;
#N canvas 0 22 448 215 more_paths 0;
#X text 27 19 You can add more paths here as well \, like the path
to soundoutput.pd on your computer etc.;
#X obj 36 57 declare -path ../pd;
#X obj 35 79 declare -path ../../pd;
#X restore 707 52 pd more_paths;
#X obj 546 250 sigmund~;
#X obj 350 443 u_robinpoly;
#X obj 458 340 u_multisamplebank;
#X obj 470 375 u_multisamplebank2;
#X obj 620 344 u_samplekit2;
#X obj 764 484 e_repeater;
#X obj 582 496 e_forcepitch;
#X obj 634 559 c_markov;
#X obj 764 542 c_patternchange;
#X obj 851 241 e_fbdelay;
#X obj 835 279 e_noclickdel;
#X obj 812 379 e_pitchshift;
#X obj 812 424 e_platereverb;
#X obj 899 546 e_reverb;
#X obj 839 318 e_tremolo;
#X obj 678 278 e_scompress;
#N canvas 0 22 702 442 cleanup 1;
#X obj 135 113 +~;
#X obj 71 149 hip~ 200;
#X obj 71 173 hip~ 200;
#X obj 129 71 inlet~;
#X obj 77 72 inlet~;
#X obj 226 139 fiddle~ 1024 1 20;
#X floatatom 226 160 5 0 0 0 - - -;
#X floatatom 262 178 5 0 0 0 - - -;
#X floatatom 357 164 5 0 0 0 - - -;
#X obj 307 185 unpack;
#X floatatom 307 235 0 0 0 0 - - -;
#X floatatom 345 208 0 0 0 0 - - -;
#X obj 145 235 mtof;
#X floatatom 272 226 5 0.5 15 2 Q - -;
#X floatatom 145 215 5 0 0 2 freq - -;
#X obj 84 302 e_beequad;
#X msg 188 236 bang;
#X msg 229 75 interp 20;
#X obj 231 48 loadbang;
#X obj 324 378 outlet~;
#X obj 438 236 outlet;
#X obj 351 291 sig~;
#X obj 353 314 lop~ 5;
#X obj 324 348 *~;
#X obj 438 212 m_speedlimit 10000;
#X obj 70 227 e_agc;
#X obj 145 259 u_bandpass2q 1000 2;
#X obj 354 265 > 50;
#X obj 398 291 tgl 15 0 empty empty empty 17 7 0 10 -262144 -1 -1 0
1;
#X connect 0 0 1 0;
#X connect 0 0 5 0;
#X connect 1 0 2 0;
#X connect 2 0 25 0;
#X connect 3 0 0 1;
#X connect 4 0 0 0;
#X connect 5 0 6 0;
#X connect 5 1 7 0;
#X connect 5 1 24 0;
#X connect 5 2 9 0;
#X connect 5 3 8 0;
#X connect 6 0 14 0;
#X connect 8 0 27 0;
#X connect 9 0 10 0;
#X connect 9 1 11 0;
#X connect 12 0 26 0;
#X connect 13 0 26 1;
#X connect 14 0 12 0;
#X connect 15 0 23 0;
#X connect 16 0 26 0;
#X connect 17 0 26 0;
#X connect 18 0 17 0;
#X connect 21 0 22 0;
#X connect 22 0 23 1;
#X connect 23 0 19 0;
#X connect 24 0 20 0;
#X connect 25 0 15 0;
#X connect 26 0 15 1;
#X connect 27 0 21 0;
#X connect 27 0 28 0;
#X restore 71 128 pd cleanup;
#X floatatom 31 149 5 0 0 0 - - -;
#X obj 256 378 e_reverb rev1;
#X obj 161 254 abs/s_playolap-p \$0-pitchedin-1;
#X obj 369 281 threshold~ 0.5 5 0.5 5;
#X floatatom 397 230 5 0 0 0 slice_size - -;
#X msg 398 252 0.5 \$1 0.5 \$1;
#X obj 139 232 t b b b;
#X obj 181 198 u_record \$0-pitchedin-1 4000;
#X obj 156 156 t b b b;
#X obj 136 203 bng 15 250 50 0 empty empty empty 17 7 0 10 -262144
-1 -1;
#X msg 181 178 start;
#X obj 288 103 u_samplekit \$0-animalvox;
#X msg 289 78 open samples/vox;
#X text 27 23 JungleIt - _main.pd;
#X connect 1 0 24 0;
#X connect 1 1 24 1;
#X connect 24 0 2 0;
#X connect 24 1 33 0;
#X connect 27 1 28 0;
#X connect 29 0 30 0;
#X connect 30 0 28 0;
#X connect 31 1 27 0;
#X connect 33 1 35 0;
#X connect 34 0 31 0;
#X connect 35 0 32 0;
#X connect 37 0 36 0;
