#N struct 1010-symarray float x array symbols 1010-sym;
#N struct 1010-sym symbol name float on;
#N struct 1012-symarray float x array symbols 1012-sym;
#N struct 1012-sym symbol name float on;
#N struct 1016-symarray float x array symbols 1016-sym;
#N struct 1016-sym symbol name float on;
#N struct 1020-symarray float x array symbols 1020-sym;
#N struct 1020-sym symbol name float on;
#N canvas 200 191 1035 652 10;
#X declare -path .;
#X declare -path rj;
#X declare -path ../pd;
#X declare -path ../../pd;
#N canvas 0 22 588 274 LICENSE 0;
#X text 79 84 (c) 2008 Reality Jockey;
#X text 57 36 Released under the GNU General Public License ver. 3
or later. See the file LICENSE.txt for the full text.;
#X restore 571 80 pd LICENSE;
#X obj 71 83 soundinput;
#X obj 76 490 soundoutput;
#X obj 571 109 OVERVIEW;
#X text 27 23 RjDj Scene Template - _main.pd;
#X obj 571 24 declare -path .;
#X obj 571 52 declare -path rj;
#X text 639 108 of all RjDj abstractions;
#N canvas 0 22 448 215 more_paths 0;
#X text 27 19 You can add more paths here as well \, like the path
to soundoutput.pd on your computer etc.;
#X obj 36 57 declare -path ../pd;
#X obj 35 79 declare -path ../../pd;
#X restore 707 52 pd more_paths;
#X text 580 155 plan: 1) evolve a lead synth line sequence 2) record
all hte pitched input i can 3) constrain the pitched input into the
sequence 4) play bass and beats with markov dropouts;
#X obj 546 250 sigmund~;
#X obj 466 301 a_onset;
#X obj 350 443 u_robinpoly;
#X obj 458 340 u_multisamplebank;
#X obj 470 375 u_multisamplebank2;
#X obj 641 441 u_samplekit;
#X obj 620 344 u_samplekit2;
#X obj 764 484 e_repeater;
#X obj 582 496 e_forcepitch;
#X obj 634 559 c_markov;
#X obj 764 542 c_patternchange;
#X obj 851 241 e_fbdelay;
#X obj 835 279 e_noclickdel;
#X obj 812 379 e_pitchshift;
#X obj 812 424 e_platereverb;
#X obj 899 546 e_reverb;
#X obj 839 318 e_tremolo;
#X obj 678 278 e_scompress;
#N canvas 0 22 702 442 cleanup 0;
#X obj 71 128 +~;
#X obj 71 149 hip~ 200;
#X obj 71 173 hip~ 200;
#X obj 130 74 inlet~;
#X obj 77 72 inlet~;
#X obj 226 139 fiddle~ 1024 1 20;
#X floatatom 226 160 5 0 0 0 - - -;
#X floatatom 262 178 5 0 0 0 - - -;
#X floatatom 358 154 5 0 0 0 - - -;
#X obj 307 185 unpack;
#X floatatom 307 235 0 0 0 0 - - -;
#X floatatom 321 212 0 0 0 0 - - -;
#X obj 390 258 mtof;
#X floatatom 520 242 5 0 0 2 Q - -;
#X floatatom 390 238 5 0 0 2 freq - -;
#X obj 285 304 e_beequad;
#X msg 433 259 bang;
#X text 425 304 args: <freq> <Q>;
#X msg 460 180 interp 20;
#X obj 462 153 loadbang;
#X obj 70 375 outlet~;
#X obj 406 378 outlet;
#X obj 233 279 sig~;
#X obj 232 259 > 0;
#X obj 235 302 lop~ 5;
#X obj 235 326 *~;
#X obj 390 282 u_bandpass2q 1000 5;
#X obj 404 347 m_speedlimit 10000;
#X connect 0 0 1 0;
#X connect 1 0 2 0;
#X connect 2 0 5 0;
#X connect 2 0 15 0;
#X connect 3 0 0 1;
#X connect 4 0 0 0;
#X connect 5 0 6 0;
#X connect 5 1 7 0;
#X connect 5 1 27 0;
#X connect 5 2 9 0;
#X connect 5 3 8 0;
#X connect 6 0 14 0;
#X connect 9 0 10 0;
#X connect 9 1 11 0;
#X connect 11 0 23 0;
#X connect 12 0 26 0;
#X connect 13 0 26 1;
#X connect 14 0 12 0;
#X connect 15 0 25 1;
#X connect 16 0 26 0;
#X connect 18 0 26 0;
#X connect 19 0 18 0;
#X connect 22 0 24 0;
#X connect 23 0 22 0;
#X connect 24 0 25 0;
#X connect 25 0 20 0;
#X connect 26 0 15 1;
#X connect 27 0 21 0;
#X restore 71 128 pd cleanup;
#X floatatom 31 149 5 0 0 0 - - -;
#X obj 179 191 u_record \$0-pitchedin-1;
#X obj 180 232 s_playolap \$0-pitchedin-1;
#X obj 56 311 e_reverb rev1;
#X connect 1 0 28 0;
#X connect 1 1 28 1;
#X connect 28 0 2 0;
