#N canvas 164 30 967 649 10;
#X declare -path .;
#X declare -path rj;
#X declare -path ../pd;
#X declare -path ../../pd;
#N canvas 0 22 588 274 LICENSE 0;
#X text 79 84 (c) 2008 Reality Jockey;
#X text 57 36 Released under the GNU General Public License ver. 3
or later. See the file LICENSE.txt for the full text.;
#X restore 571 80 pd LICENSE;
#X obj 71 83 soundinput;
#X obj 73 491 soundoutput;
#X obj 571 108 OVERVIEW;
#X text 452 519 put your music here.;
#X text 27 23 RjDj Scene Template - _main.pd;
#X obj 571 24 declare -path .;
#X obj 571 52 declare -path rj;
#X text 639 108 of all RjDj abstractions;
#N canvas 0 22 448 215 more_paths 0;
#X text 27 19 You can add more paths here as well \, like the path
to soundoutput.pd on your computer etc.;
#X obj 36 57 declare -path ../pd;
#X obj 35 79 declare -path ../../pd;
#X restore 707 52 pd more_paths;
#X text 581 153 plan: 1) evolve a lead synth line sequence 2) record
all hte pitched input i can 3) constrain the pitched input into the
sequence 4) play bass and beats with markov dropouts;
#X obj 332 134 sigmund~;
#N canvas 18 283 1004 529 barjam 1;
#X obj 770 180 r \$0-one;
#X floatatom 770 203 5 0 0 0 - - -;
#X obj 580 46 u_loader SOMETAG \$0;
#X msg 582 149 one \$1;
#X floatatom 582 131 5 0 0 0 - - -;
#X text 723 179 ==>;
#X obj 582 180 u_dispatch \$0 one;
#X obj 773 227 hsl 128 15 0 127 0 0 empty empty empty -2 -8 0 10 -262144
-1 -1 0 1;
#X floatatom 770 292 5 0 0 0 - - -;
#X text 723 268 ==>;
#X obj 773 316 hsl 128 15 0 127 0 0 empty empty empty -2 -8 0 10 -262144
-1 -1 0 1;
#X obj 582 269 u_dispatch \$0 two;
#X obj 770 269 r \$0-two;
#X floatatom 644 130 5 0 0 0 - - -;
#X msg 644 148 two \$1;
#X text 553 302 Arguments for [u_dispatch]:;
#X text 570 327 1) \$0;
#X text 570 344 2) method name.;
#X text 577 98 [u_loader] itself accepts a "save" message \, too \,
to send its settings to its outlet.;
#X msg 580 24 save;
#X obj 580 71 print LOADER;
#X text 633 24 save to outlet;
#X obj 252 129 u_listloop;
#X msg 334 20 0 0 0 3;
#X obj 192 20 tgl 15 0 empty empty empty 17 7 0 10 -262144 -1 -1 0
1;
#X obj 192 41 metro 500;
#X floatatom 256 189 5 0 0 0 - - -;
#X obj 356 104 s_loopsmooth mytable;
#X connect 0 0 1 0;
#X connect 1 0 7 0;
#X connect 2 0 20 0;
#X connect 3 0 6 0;
#X connect 4 0 3 0;
#X connect 6 0 11 0;
#X connect 8 0 10 0;
#X connect 12 0 8 0;
#X connect 13 0 14 0;
#X connect 14 0 6 0;
#X connect 19 0 2 0;
#X connect 22 0 26 0;
#X connect 23 0 22 1;
#X connect 24 0 25 0;
#X connect 25 0 22 0;
#X restore 399 356 pd barjam;
