#N canvas 77 133 895 616 10;
#X declare -path .;
#X declare -path rj;
#X declare -path ../pd;
#X declare -path ../../pd;
#N canvas 0 22 588 274 LICENSE 0;
#X text 79 84 (c) 2008 Reality Jockey;
#X text 57 36 Released under the GNU General Public License ver. 3
or later. See the file LICENSE.txt for the full text.;
#X restore 571 80 pd LICENSE;
#X obj 75 62 soundinput;
#X obj 73 511 soundoutput;
#X obj 571 108 OVERVIEW;
#X text 27 23 RjDj Scene Template - _main.pd;
#X obj 571 24 declare -path .;
#X obj 571 52 declare -path rj;
#X text 639 108 of all RjDj abstractions;
#N canvas 0 22 448 215 more_paths 0;
#X text 27 19 You can add more paths here as well \, like the path
to soundoutput.pd on your computer etc.;
#X obj 36 57 declare -path ../pd;
#X obj 35 79 declare -path ../../pd;
#X restore 707 52 pd more_paths;
#X obj 75 119 +~;
#X obj 219 186 < 1;
#X floatatom 219 207 0 0 0 0 - - -;
#X msg 172 253 auto \$1;
#X obj 73 476 e_dynproc sunlimiter -10;
#X obj 15 373 loadbang;
#X obj 75 142 e_agc;
#X obj 73 373 *~;
#X obj 162 209 lop~ 5;
#X obj 162 186 sig~ 0;
#X text 196 122;
#X text 294 103;
#X text 238 154 0 for listen 1 for speak;
#X obj 228 252 lop~ 5;
#X obj 228 229 sig~ 0;
#X msg 396 32 \; pd dsp 1;
#X floatatom 172 313 8 40 100 1 detected - -;
#X obj 172 282 fiddle~ 1024 1 20 3;
#X obj 73 345 e_forcepitch spoo;
#X obj 404 338 timer;
#X obj 404 312 t b b;
#X obj 404 363 spigot;
#X msg 396 67 \; pd dsp 0;
#X obj 219 160 tgl 15 0 empty empty empty 17 7 0 10 -262144 -1 -1 0
1;
#X floatatom 404 390 8 40 10000 1 period - -;
#X obj 377 285 t f b;
#X msg 15 422 comp2 1 \, comp1 17 \, rel 200 \, att 20 \, thresh 70.8304
\, makeup 100;
#X obj 404 443 /;
#X obj 404 466 osc~ 1;
#X obj 404 417 swap 2000;
#X text 472 418 half f;
#X obj 271 347 bng 15 250 50 0 empty empty empty 17 7 0 10 -262144
-1 -1;
#X obj 219 131 metro 1000;
#X obj 662 132 loadbang;
#X floatatom 663 223 5 0 0 0 - - -;
#X obj 663 244 int;
#X floatatom 617 293 5 0 0 0 - - -;
#X obj 663 201 c_frand 2 4.5;
#X obj 578 201 c_frand 2 4.5;
#X floatatom 578 223 5 0 0 0 - - -;
#X obj 578 244 int;
#X obj 617 270 / 1;
#X floatatom 664 392 5 0 0 0 - - -;
#X floatatom 494 223 5 0 0 0 - - -;
#X obj 617 316 ftom;
#X obj 690 316 ftom;
#X obj 663 175 t b b;
#X msg 662 153 bang;
#X msg 690 293 1;
#X obj 664 370 - 0;
#X obj 426 244 expr 1000*pow(10. \, $f1);
#X floatatom 219 102 10 0 0 0 - - -;
#X obj 494 201 c_frand 0 1;
#X connect 1 0 9 0;
#X connect 1 1 9 1;
#X connect 9 0 15 0;
#X connect 10 0 11 0;
#X connect 11 0 23 0;
#X connect 11 0 12 0;
#X connect 11 0 34 0;
#X connect 12 0 26 0;
#X connect 13 0 2 0;
#X connect 13 0 2 1;
#X connect 14 0 35 0;
#X connect 15 0 26 0;
#X connect 15 0 27 0;
#X connect 16 0 13 0;
#X connect 16 0 13 1;
#X connect 17 0 16 1;
#X connect 18 0 17 0;
#X connect 23 0 22 0;
#X connect 25 0 27 1;
#X connect 26 0 25 0;
#X connect 26 1 29 0;
#X connect 26 1 40 0;
#X connect 27 0 16 0;
#X connect 28 0 30 0;
#X connect 29 0 28 0;
#X connect 29 1 28 1;
#X connect 30 0 33 0;
#X connect 32 0 18 0;
#X connect 32 0 10 0;
#X connect 33 0 38 0;
#X connect 34 0 30 1;
#X connect 34 1 29 0;
#X connect 35 0 13 2;
#X connect 36 0 37 0;
#X connect 38 0 36 0;
#X connect 38 1 36 1;
#X connect 41 0 32 0;
#X connect 42 0 56 0;
#X connect 43 0 44 0;
#X connect 44 0 50 1;
#X connect 45 0 53 0;
#X connect 46 0 43 0;
#X connect 47 0 48 0;
#X connect 48 0 49 0;
#X connect 49 0 50 0;
#X connect 50 0 45 0;
#X connect 52 0 59 0;
#X connect 53 0 58 0;
#X connect 54 0 58 1;
#X connect 55 0 47 0;
#X connect 55 0 46 0;
#X connect 55 0 61 0;
#X connect 55 1 57 0;
#X connect 56 0 55 0;
#X connect 57 0 54 0;
#X connect 58 0 51 0;
#X connect 59 0 60 0;
#X connect 60 0 41 0;
#X connect 61 0 52 0;
