#N canvas 89 143 895 616 10;
#X declare -path .;
#X declare -path rj;
#X obj 75 62 soundinput;
#X obj 73 493 soundoutput;
#X obj 571 108 OVERVIEW;
#X text 27 23 RjDj Scene Template - _main.pd;
#X obj 571 24 declare -path .;
#X obj 571 52 declare -path rj;
#X text 639 108 of all RjDj abstractions;
#X obj 75 119 +~;
#X obj 219 186 < 1;
#X floatatom 219 207 0 0 0 0 - - -;
#X msg 172 253 auto \$1;
#X obj 73 458 e_dynproc sunlimiter -10;
#X obj 188 493 loadbang;
#X obj 75 142 e_agc;
#X obj 73 396 *~;
#X obj 90 209 lop~ 5;
#X obj 90 186 sig~ 0;
#X text 196 122;
#X text 294 103;
#X text 238 154 0 for listen 1 for speak;
#X obj 228 252 lop~ 5;
#X obj 228 229 sig~ 0;
#X msg 396 32 \; pd dsp 1;
#X floatatom 172 309 8 40 100 1 detected - -;
#X obj 172 282 fiddle~ 1024 1 20 3;
#X obj 73 373 e_forcepitch spoo;
#X msg 396 67 \; pd dsp 0;
#X obj 219 160 tgl 15 0 empty empty empty 17 7 0 10 -262144 -1 -1 0
1;
#X msg 188 517 comp2 1 \, comp1 17 \, rel 200 \, att 20 \, thresh 70.8304
\, makeup 100;
#X obj 291 316 bng 15 250 50 0 empty empty empty 17 7 0 10 -262144
-1 -1;
#X obj 219 131 metro 1000;
#X obj 551 132 loadbang;
#X floatatom 552 223 5 0 0 0 - - -;
#X obj 552 244 int;
#X floatatom 506 293 5 0 0 0 - - -;
#X obj 552 201 c_frand 2 4.5;
#X obj 467 201 c_frand 2 4.5;
#X floatatom 467 223 5 0 0 0 - - -;
#X obj 467 244 int;
#X obj 506 270 / 1;
#X floatatom 506 364 5 0 0 0 - - -;
#X floatatom 383 223 5 0 0 0 - - -;
#X obj 506 316 ftom;
#X obj 579 316 ftom;
#X obj 552 175 t b b;
#X msg 551 153 bang;
#X msg 579 293 1;
#X obj 506 342 - 0;
#X obj 315 244 expr 1000*pow(10. \, $f1);
#X floatatom 219 102 10 0 0 0 - - -;
#X obj 383 201 c_frand 0 1;
#X floatatom 172 351 8 40 100 1 output - -;
#X text 245 454 should I give everything a fundamental pitch that it
wishes to synchronise to? How about filtering out self and forming
sychronised chords w/ neighbours?;
#X obj 172 330 + 0;
#X obj 143 426 e_agc;
#X connect 0 0 7 0;
#X connect 0 1 7 1;
#X connect 7 0 13 0;
#X connect 8 0 9 0;
#X connect 9 0 21 0;
#X connect 9 0 10 0;
#X connect 10 0 24 0;
#X connect 11 0 1 0;
#X connect 11 0 1 1;
#X connect 12 0 28 0;
#X connect 13 0 24 0;
#X connect 13 0 25 0;
#X connect 14 0 11 0;
#X connect 14 0 11 1;
#X connect 14 0 54 0;
#X connect 15 0 14 1;
#X connect 16 0 15 0;
#X connect 21 0 20 0;
#X connect 23 0 53 0;
#X connect 24 0 23 0;
#X connect 24 1 29 0;
#X connect 25 0 14 0;
#X connect 27 0 16 0;
#X connect 27 0 8 0;
#X connect 28 0 11 2;
#X connect 30 0 27 0;
#X connect 31 0 45 0;
#X connect 32 0 33 0;
#X connect 33 0 39 1;
#X connect 34 0 42 0;
#X connect 35 0 32 0;
#X connect 36 0 37 0;
#X connect 37 0 38 0;
#X connect 38 0 39 0;
#X connect 39 0 34 0;
#X connect 40 0 53 1;
#X connect 41 0 48 0;
#X connect 42 0 47 0;
#X connect 43 0 47 1;
#X connect 44 0 36 0;
#X connect 44 0 35 0;
#X connect 44 0 50 0;
#X connect 44 1 46 0;
#X connect 45 0 44 0;
#X connect 46 0 43 0;
#X connect 47 0 40 0;
#X connect 48 0 49 0;
#X connect 49 0 30 0;
#X connect 50 0 41 0;
#X connect 51 0 25 1;
#X connect 53 0 51 0;
#X connect 54 0 11 0;
#X connect 54 0 11 1;
