#N canvas 0 22 1041 680 10;
#X declare -path .;
#X declare -path rj;
#X declare -path ../pd;
#X declare -path ../../pd;
#N canvas 0 22 588 274 LICENSE 0;
#X text 79 84 (c) 2008 Reality Jockey;
#X text 57 36 Released under the GNU General Public License ver. 3
or later. See the file LICENSE.txt for the full text.;
#X restore 571 80 pd LICENSE;
#X obj 29 46 soundinput;
#X obj 128 539 soundoutput;
#X obj 571 109 OVERVIEW;
#X obj 571 24 declare -path .;
#X obj 571 52 declare -path rj;
#X text 639 108 of all RjDj abstractions;
#N canvas 0 22 448 215 more_paths 0;
#X text 27 19 You can add more paths here as well \, like the path
to soundoutput.pd on your computer etc.;
#X obj 36 57 declare -path ../pd;
#X obj 35 79 declare -path ../../pd;
#X restore 707 52 pd more_paths;
#X text 27 23 Feral - _main.pd;
#X obj 52 100 e_agc;
#N canvas 0 32 962 617 ui 1;
#X obj 546 57 r #touch;
#X obj 546 78 route down;
#X obj 546 202 list split 1;
#X obj 586 242 unpack 0 0;
#X obj 546 310 pack 0 0 0;
#X text 727 325 make something with it;
#X floatatom 751 202 5 0 0 1 index - -;
#X obj 586 263 m_touch2grid mygrid2 2 2;
#X obj 363 100 m_accel_pitch;
#X obj 213 112 m_accel_magnitude;
#X obj 58 84 u_loadmeter;
#X msg 56 49 1;
#X obj 57 164 list trim;
#X obj 23 194 g_showtext 200 200 1;
#X obj 56 28 loadbang;
#X obj 213 179 list trim;
#X obj 180 219 g_showtext 200 170 1;
#X obj 57 143 list prepend text cpu;
#X obj 213 158 list prepend text mag;
#X obj 363 144 list prepend text pitch;
#X obj 363 165 list trim;
#X obj 546 354 list trim;
#X obj 546 333 list prepend text touch;
#X obj 216 353 list trim;
#X obj 182 383 g_showtext 200 140 1;
#X obj 329 195 g_showtext 200 110 1;
#X obj 512 384 g_showtext 200 80 1;
#X obj 312 267 float;
#X obj 216 332 list prepend text maxmag;
#X obj 270 267 max 0;
#X obj 213 135 m_speedlimit 100;
#X obj 363 121 m_speedlimit 100;
#X obj 58 115 m_speedlimit 100;
#X obj 270 292 m_speedlimit 100;
#X obj 578 137 m_speedlimit 100;
#X connect 0 0 1 0;
#X connect 1 0 34 0;
#X connect 2 0 4 0;
#X connect 2 1 3 0;
#X connect 3 0 7 0;
#X connect 3 1 7 1;
#X connect 4 0 22 0;
#X connect 7 0 4 1;
#X connect 7 1 4 2;
#X connect 7 2 6 0;
#X connect 8 0 31 0;
#X connect 9 0 29 0;
#X connect 9 0 30 0;
#X connect 10 0 32 0;
#X connect 11 0 10 0;
#X connect 11 0 13 0;
#X connect 11 0 9 0;
#X connect 11 0 8 0;
#X connect 11 0 16 0;
#X connect 11 0 24 0;
#X connect 11 0 25 0;
#X connect 11 0 26 0;
#X connect 12 0 13 1;
#X connect 14 0 11 0;
#X connect 15 0 16 1;
#X connect 17 0 12 0;
#X connect 18 0 15 0;
#X connect 19 0 20 0;
#X connect 20 0 25 1;
#X connect 21 0 26 1;
#X connect 22 0 21 0;
#X connect 23 0 24 1;
#X connect 27 0 29 1;
#X connect 28 0 23 0;
#X connect 29 0 27 0;
#X connect 29 0 33 0;
#X connect 30 0 18 0;
#X connect 31 0 19 0;
#X connect 32 0 17 0;
#X connect 33 0 28 0;
#X connect 34 0 2 0;
#X restore 275 358 pd ui;
#X connect 1 0 9 0;
#X connect 1 1 9 0;
#X connect 9 0 2 0;
